<svg xmlns="http://www.w3.org/2000/svg" xmlns:svg="http://www.w3.org/2000/svg" id="svg2" width="580" height="580" version="1.0"><metadata id="metadata2975"/><g id="g1327"><path style="fill:#111;stroke:#eee;stroke-width:3.40799999" id="path1329" d="M 66.275,1.768 C 24.94,1.768 1.704,23.139 1.704,66.804 L 1.704,516.927 C 1.704,557.771 22.599,579.156 63.896,579.156 L 515.92,579.156 C 557.227,579.156 578.149,558.841 578.149,516.927 L 578.149,66.804 C 578.149,24.203 557.227,1.768 514.628,1.768 C 514.624,1.768 66.133,1.625 66.275,1.768 z"/></g><g id="g1970" transform="translate(68.799779,58.552307)" style="fill:#fff;fill-opacity:1"><path style="fill:#fff;stroke:none;fill-opacity:1" id="path1972" d="M 196.91,25.3815 C 196.97,-8.6185 248.219,-8.6185 248.185,26.3395 L 248.185,169.031 L 447.949,289.095 L 447.949,341.812 L 249.144,276.382 L 249.144,383.029 L 295.152,418.973 L 295.152,460.667 L 224.225,438.621 L 153.298,460.667 L 153.298,418.973 L 198.827,383.029 L 198.827,276.382 L 0,341.812 L 0,289.095 L 196.91,169.031 L 196.91,25.3815 z"/></g></svg>