<svg xmlns="http://www.w3.org/2000/svg" xmlns:svg="http://www.w3.org/2000/svg" id="svg2" width="580" height="580" version="1.0"><metadata id="metadata10"/><defs id="defs4"><style id="style6" type="text/css"/><marker id="ArrowStart" markerHeight="3" markerUnits="strokeWidth" markerWidth="4" orient="auto" refX="10" refY="5" viewBox="0 0 10 10"><path id="path2295" d="M 10 0 L 0 5 L 10 10 z"/></marker><marker id="ArrowEnd" markerHeight="3" markerUnits="strokeWidth" markerWidth="4" orient="auto" refX="0" refY="5" viewBox="0 0 10 10"><path id="path2292" d="M 0 0 L 10 5 L 0 10 z"/></marker></defs><g id="g1327"><path id="path1329" d="M 66.275,1.768 C 24.94,1.768 1.704,23.139 1.704,66.804 L 1.704,516.927 C 1.704,557.771 22.598,579.156 63.896,579.156 L 515.92,579.156 C 557.227,579.156 578.149,558.84 578.149,516.927 L 578.149,66.804 C 578.149,24.203 557.227,1.768 514.627,1.768 C 514.624,1.768 66.133,1.625 66.275,1.768 z" style="fill:#111;stroke:#eee;stroke-width:3.40799999"/></g><g id="g2319" transform="translate(879.29125,36.805119)"><path style="fill:#fff;stroke:none" id="path2323"/></g><g id="g2325" transform="translate(879.29125,36.805119)"><path style="fill:#fff;stroke:none" id="path2329"/></g><g style="fill:#fff;fill-opacity:1" id="g3257" transform="matrix(2.7729642,0,0,2.7729642,-628.68284,-980.10202)"><path style="fill:#fff;fill-opacity:1;stroke:none" id="path2449" d="M 297.97587,371.41171 C 288.36108,371.41171 283.26066,376.66076 280.90599,382.80496 L 268.40673,415.07916 C 263.4518,415.71451 254.66821,421.53069 254.66821,432.54881 L 254.66821,473.59113 L 266.83433,473.59113 L 266.83433,486.7167 C 266.83433,502.86498 289.68745,502.6748 289.68745,486.7167 L 289.68745,473.59113 L 330.79641,473.59113 L 330.80981,473.59113 L 371.91875,473.59113 L 371.91875,486.7167 C 371.91875,502.6748 394.77176,502.86498 394.77189,486.7167 L 394.77189,473.59113 L 406.93799,473.59113 L 406.93799,432.54881 C 406.93799,421.53069 398.15446,415.71451 393.19944,415.07916 L 380.68689,382.80496 C 378.33223,376.66076 373.23184,371.41171 363.61698,371.41171 L 345.94749,371.41171 L 315.85862,371.41171 L 297.97591,371.41171 L 297.97587,371.41171 z M 297.82929,383.16474 L 330.76977,383.16474 L 330.79637,383.16474 L 330.80977,383.16474 L 363.76354,383.16474 C 367.88397,383.20314 369.6487,385.77994 370.82602,389.34774 L 380.24709,414.74603 L 330.80977,414.74603 L 330.79637,414.74603 L 330.76977,414.74603 L 281.34573,414.74603 L 290.76681,389.34774 C 291.94415,385.77994 293.70843,383.20311 297.82929,383.16474 z M 278.62734,427.0987 C 284.4577,427.0987 289.18108,431.96322 289.18108,437.97225 C 289.18108,443.9817 284.4577,448.85914 278.62734,448.85914 C 272.79742,448.85914 268.0736,443.9817 268.0736,437.97225 C 268.0736,431.96324 272.79742,427.0987 278.62734,427.0987 z M 382.97881,427.0987 C 388.80918,427.0987 393.5326,431.96324 393.53256,437.97225 C 393.53256,443.9817 388.80918,448.85914 382.97881,448.85914 C 377.14889,448.85914 372.41172,443.9817 372.41172,437.97225 C 372.41172,431.96322 377.14889,427.0987 382.97881,427.0987 z"/><path id="path3236" d="M 295.0625,508.91991 C 282.37886,509.29804 267.71895,513.73016 249.84375,524.32616 L 257,536.41991 C 275.84249,525.25052 288.98665,522.36974 299.53125,523.01366 C 310.07585,523.65758 318.65735,527.93775 328.28125,533.13866 C 337.90515,538.33957 348.46673,544.46399 362.125,546.57616 C 375.78327,548.68833 392.10945,546.51176 412.5625,536.70116 L 406.46875,524.04491 C 387.85329,532.97409 374.94343,534.35 364.28125,532.70116 C 353.61907,531.05232 344.78308,526.09873 334.96875,520.79491 C 325.15442,515.49109 314.25225,509.82984 300.375,508.98241 C 298.64034,508.87648 296.87445,508.86589 295.0625,508.91991 z" style="font-size:medium;font-style:normal;font-variant:normal;font-weight:400;font-stretch:normal;text-indent:0;text-align:start;text-decoration:none;line-height:normal;letter-spacing:normal;word-spacing:normal;text-transform:none;direction:ltr;block-progression:tb;writing-mode:lr-tb;text-anchor:start;color:#000;fill:#fff;fill-opacity:1;fill-rule:nonzero;stroke:#fff;stroke-width:3.71662974;stroke-linecap:round;stroke-linejoin:round;stroke-miterlimit:4;stroke-opacity:1;stroke-dasharray:none;marker:none;visibility:visible;display:inline;overflow:visible;enable-background:accumulate;font-family:Bitstream Vera Sans;-inkscape-font-specification:Bitstream Vera Sans"/></g></svg>