<svg xmlns="http://www.w3.org/2000/svg" xmlns:svg="http://www.w3.org/2000/svg" id="svg2" width="580" height="580" version="1.0"><metadata id="metadata10"/><defs id="defs4"><style id="style6" type="text/css"/><marker id="ArrowStart" markerHeight="3" markerUnits="strokeWidth" markerWidth="4" orient="auto" refX="10" refY="5" viewBox="0 0 10 10"><path id="path2295" d="M 10 0 L 0 5 L 10 10 z"/></marker><marker id="ArrowEnd" markerHeight="3" markerUnits="strokeWidth" markerWidth="4" orient="auto" refX="0" refY="5" viewBox="0 0 10 10"><path id="path2292" d="M 0 0 L 10 5 L 0 10 z"/></marker><marker id="marker8025" markerHeight="3" markerUnits="strokeWidth" markerWidth="4" orient="auto" refX="10" refY="5" viewBox="0 0 10 10"><path id="path8027" d="M 10,0 L 0,5 L 10,10 L 10,0 z"/></marker><marker id="marker8021" markerHeight="3" markerUnits="strokeWidth" markerWidth="4" orient="auto" refX="0" refY="5" viewBox="0 0 10 10"><path id="path8023" d="M 0,0 L 10,5 L 0,10 L 0,0 z"/></marker></defs><g id="g1327"><path id="path1329" d="M 66.275,1.768 C 24.94,1.768 1.704,23.139 1.704,66.804 L 1.704,516.927 C 1.704,557.771 22.598,579.156 63.896,579.156 L 515.92,579.156 C 557.227,579.156 578.149,558.84 578.149,516.927 L 578.149,66.804 C 578.149,24.203 557.227,1.768 514.627,1.768 C 514.624,1.768 66.133,1.625 66.275,1.768 z" style="fill:#111;stroke:#eee;stroke-width:3.40799999"/></g><g id="g2319" transform="translate(879.29125,36.805119)"><path style="fill:#fff;stroke:none" id="path2323"/></g><g id="g2325" transform="translate(879.29125,36.805119)"><path style="fill:#fff;stroke:none" id="path2329"/></g><path id="path1897" d="M 249,111.75 C 240.51758,111.75 232.0625,117.88064 232.0625,127.6875 L 231.875,442.9375 L 249.3125,442.9375 L 249.46875,467.875 L 409.5625,467.78125 L 409.6875,442.9375 L 424.6875,443.0625 L 424.6875,124.4375 C 424.68751,117.64142 420.75087,111.75 413.34375,111.75 L 249,111.75 z M 275.78125,146.59375 L 380.6875,146.59375 C 386.49577,146.59375 391.06251,148.95926 391.0625,156.96875 L 391.0625,239.84375 C 391.0625,245.45746 388.06163,249.53125 381.65625,249.53125 L 276.0625,249.25 C 269.96423,249.25 264.71875,244.74463 264.71875,238.1875 L 265.25,156.6875 C 265.25,150.1638 269.76979,146.59375 275.78125,146.59375 z" style="fill:#fff;fill-opacity:1;fill-rule:evenodd;stroke:none;stroke-width:1px;stroke-linecap:butt;stroke-linejoin:miter;stroke-opacity:1"/><path id="path1899" d="M 232.83211,220.10791 L 216.8105,220.01303 C 216.70662,285.20608 217.18175,413.86794 217.45327,416.06937 C 218.03287,420.76868 217.68239,425.63716 216.47581,430.07245 C 191.35934,493.34558 110.08776,464.28417 121.62727,402.71575 C 146.97207,341.64522 182.51061,300.32073 200.19813,228.29037 L 201.77268,281.83519 C 185.8545,312.81087 157.77166,367.21167 135.99276,412.68501 C 134.15788,454.66887 184.10162,468.50125 199.74349,423.43723 C 206.71402,344.55555 199.48141,258.5723 199.35038,176.13983 C 209.5149,145.92256 220.73039,143.03014 232.11247,144.46938" style="fill:#fff;fill-opacity:1;fill-rule:evenodd;stroke:none;stroke-width:1px;stroke-linecap:butt;stroke-linejoin:miter;stroke-opacity:1"/></svg>