<svg xmlns="http://www.w3.org/2000/svg" xmlns:svg="http://www.w3.org/2000/svg" id="svg2" width="580" height="580" version="1.0"><metadata id="metadata2975"/><defs id="defs4"><symbol id="symbol-university" viewBox="244.5 110 489 219.9"><path id="path4460" d="M79,43l57,119c0,0,21-96,104-96s124,106,124,106l43-133l82-17L0,17L79,43z"/><path id="path4462" fill="none" stroke="#000" stroke-width="20" d="M94,176l-21,39"/><path id="path4464" d="M300,19c0,10.5-22.6,19-50.5,19S199,29.5,199,19s22.6-19,50.5-19S300,8.5,300,19z"/><path id="path4466" stroke="#000" stroke-width="20" d="M112,216l-16-38L64,88c0,0-9-8-4-35s16-24,16-24" ill="none"/></symbol></defs><g id="g1327"><path style="fill:#111;stroke:#eee;stroke-width:3.40799999" id="path1329" d="M 66.275,1.768 C 24.94,1.768 1.704,23.139 1.704,66.804 L 1.704,516.927 C 1.704,557.771 22.599,579.156 63.896,579.156 L 515.92,579.156 C 557.227,579.156 578.149,558.841 578.149,516.927 L 578.149,66.804 C 578.149,24.203 557.227,1.768 514.628,1.768 C 514.624,1.768 66.133,1.625 66.275,1.768 z"/></g><path style="font-size:40px;font-style:normal;font-variant:normal;font-weight:400;font-stretch:normal;text-align:start;line-height:125%;writing-mode:lr-tb;text-anchor:start;fill:#fff;fill-opacity:1;stroke:#fff;stroke-width:10;stroke-linecap:butt;stroke-linejoin:round;stroke-miterlimit:4;stroke-dasharray:none;stroke-opacity:1;font-family:NPSPICT3;-inkscape-font-specification:NPSPICT3" id="flowRoot3192" d="M 361.71459,80.721032 C 364.06866,80.721399 365.24586,79.741384 365.24623,77.781001 C 365.24586,76.598174 364.66025,75.618173 363.48938,74.840955 L 291.22544,34.899496 L 219.57102,74.840955 C 218.38762,75.618173 217.79603,76.598174 217.79625,77.781001 C 217.79603,79.741384 218.77604,80.721399 220.73628,80.721032 L 361.71459,80.721032 z M 365.24623,180.60396 C 369.54834,180.60424 371.6996,178.453 371.69997,174.15023 C 371.6996,169.83608 369.54834,167.67885 365.24623,167.67856 L 217.79625,167.67856 C 213.49353,167.67885 211.34229,169.83608 211.34251,174.15023 C 211.34229,178.453 213.49353,180.60424 217.79625,180.60396 L 230.13006,180.60396 L 181.96007,543.67391 L 400.4908,543.67391 L 352.91242,180.60396 L 365.24623,180.60396 z"/><path id="path3186" d="M 239.17868,105.75173 L 35.92179,79.900921 L 36.51338,165.66393 L 239.17868,140.40471 L 239.17868,105.75173 z M 345.88172,139.81312 L 548.54702,165.66393 L 548.54702,79.900921 L 345.88172,105.75173 L 345.88172,139.81312 z" style="font-size:40px;font-style:normal;font-variant:normal;font-weight:400;font-stretch:normal;text-align:start;line-height:125%;writing-mode:lr-tb;text-anchor:start;opacity:.5;fill:#fff;fill-opacity:1;stroke:#fff;stroke-width:10;stroke-linecap:butt;stroke-linejoin:round;stroke-miterlimit:4;stroke-dasharray:none;stroke-opacity:1;font-family:NPSPICT3;-inkscape-font-specification:NPSPICT3"/><path style="opacity:1;fill:#fff;fill-opacity:1;stroke:#fff;stroke-width:10;stroke-linecap:round;stroke-linejoin:round;stroke-miterlimit:4;stroke-dasharray:none;stroke-dashoffset:0;stroke-opacity:1" id="path3188" d="M 323.32363,125.39394 A 36.889275,36.889275 0 1 1 249.54508,125.39394 A 36.889275,36.889275 0 1 1 323.32363,125.39394 z" transform="matrix(0.8704944,0,0,0.8704944,43.094837,14.239211)"/></svg>