<svg xmlns="http://www.w3.org/2000/svg" xmlns:svg="http://www.w3.org/2000/svg" id="svg2" width="580" height="580" version="1.0"><metadata id="metadata2975"/><defs id="defs4"><symbol id="symbol-university" viewBox="244.5 110 489 219.9"><path id="path4460" d="M79,43l57,119c0,0,21-96,104-96s124,106,124,106l43-133l82-17L0,17L79,43z"/><path id="path4462" fill="none" stroke="#000" stroke-width="20" d="M94,176l-21,39"/><path id="path4464" d="M300,19c0,10.5-22.6,19-50.5,19S199,29.5,199,19s22.6-19,50.5-19S300,8.5,300,19z"/><path id="path4466" stroke="#000" stroke-width="20" d="M112,216l-16-38L64,88c0,0-9-8-4-35s16-24,16-24" ill="none"/></symbol><marker style="overflow:visible" id="Arrow2Lend" orient="auto" refX="0" refY="0"><path style="font-size:12;fill-rule:evenodd;stroke-width:.625;stroke-linejoin:round" id="path4137" d="M 8.7185878,4.0337352 L -2.2072895,0.016013256 L 8.7185884,-4.0017078 C 6.9730900,-1.6296469 6.9831476,1.6157441 8.7185878,4.0337352 z" transform="scale(1.1) rotate(180) translate(1,0)"/></marker><marker style="overflow:visible" id="Arrow1Mend" orient="auto" refX="0" refY="0"><path style="fill-rule:evenodd;stroke:#000;stroke-width:1pt;marker-start:none" id="path4125" d="M 0.0,0.0 L 5.0,-5.0 L -12.5,0.0 L 5.0,5.0 L 0.0,0.0 z" transform="scale(0.4) rotate(180) translate(10,0)"/></marker><marker style="overflow:visible" id="TriangleOutL" orient="auto" refX="0" refY="0"><path style="fill-rule:evenodd;stroke:#000;stroke-width:1pt;marker-start:none" id="path4214" d="M 5.77,0.0 L -2.88,5.0 L -2.88,-5.0 L 5.77,0.0 z" transform="scale(0.8)"/></marker><marker style="overflow:visible" id="Arrow1Lend" orient="auto" refX="0" refY="0"><path style="fill-rule:evenodd;stroke:#000;stroke-width:1pt;marker-start:none" id="path4119" d="M 0.0,0.0 L 5.0,-5.0 L -12.5,0.0 L 5.0,5.0 L 0.0,0.0 z" transform="scale(0.8) rotate(180) translate(12.5,0)"/></marker><marker style="overflow:visible" id="Tail" orient="auto" refX="0" refY="0"><g id="g4152" transform="scale(-1.2)"><path style="fill:none;fill-rule:evenodd;stroke:#000;stroke-width:.8;marker-start:none;marker-end:none;stroke-linecap:round" id="path4154" d="M -3.8048674,-3.9585227 L 0.54352094,0"/><path style="fill:none;fill-rule:evenodd;stroke:#000;stroke-width:.8;marker-start:none;marker-end:none;stroke-linecap:round" id="path4156" d="M -1.2866832,-3.9585227 L 3.0617053,0"/><path style="fill:none;fill-rule:evenodd;stroke:#000;stroke-width:.8;marker-start:none;marker-end:none;stroke-linecap:round" id="path4158" d="M 1.3053582,-3.9585227 L 5.6537466,0"/><path style="fill:none;fill-rule:evenodd;stroke:#000;stroke-width:.8;marker-start:none;marker-end:none;stroke-linecap:round" id="path4160" d="M -3.8048674,4.1775838 L 0.54352094,0.21974226"/><path style="fill:none;fill-rule:evenodd;stroke:#000;stroke-width:.8;marker-start:none;marker-end:none;stroke-linecap:round" id="path4162" d="M -1.2866832,4.1775838 L 3.0617053,0.21974226"/><path style="fill:none;fill-rule:evenodd;stroke:#000;stroke-width:.8;marker-start:none;marker-end:none;stroke-linecap:round" id="path4164" d="M 1.3053582,4.1775838 L 5.6537466,0.21974226"/></g></marker><marker style="overflow:visible" id="Arrow1Sstart" orient="auto" refX="0" refY="0"><path style="fill-rule:evenodd;stroke:#000;stroke-width:1pt;marker-start:none" id="path4128" d="M 0.0,0.0 L 5.0,-5.0 L -12.5,0.0 L 5.0,5.0 L 0.0,0.0 z" transform="scale(0.2) translate(6,0)"/></marker><marker style="overflow:visible" id="Arrow1Send" orient="auto" refX="0" refY="0"><path style="fill-rule:evenodd;stroke:#000;stroke-width:1pt;marker-start:none" id="path4131" d="M 0.0,0.0 L 5.0,-5.0 L -12.5,0.0 L 5.0,5.0 L 0.0,0.0 z" transform="scale(0.2) rotate(180) translate(6,0)"/></marker><marker style="overflow:visible" id="SemiCircleOut" orient="auto" refX="0" refY="0"><path style="fill-rule:evenodd;stroke:#000;stroke-width:1pt;marker-start:none;marker-end:none" id="path4235" d="M -2.5,-0.80913858 C -2.5,1.9508614 -4.7400000,4.1908614 -7.5,4.1908614 L -7.5,-5.8091386 C -4.7400000,-5.8091386 -2.5,-3.5691386 -2.5,-0.80913858 z" transform="scale(0.6) translate(7.125493,0.763446)"/></marker><marker style="overflow:visible" id="Arrow2Send" orient="auto" refX="0" refY="0"><path style="font-size:12;fill-rule:evenodd;stroke-width:.625;stroke-linejoin:round" id="path4149" d="M 8.7185878,4.0337352 L -2.2072895,0.016013256 L 8.7185884,-4.0017078 C 6.9730900,-1.6296469 6.9831476,1.6157441 8.7185878,4.0337352 z" transform="scale(0.3) rotate(180) translate(-2.3,0)"/></marker><marker style="overflow:visible" id="TriangleOutS" orient="auto" refX="0" refY="0"><path style="fill-rule:evenodd;stroke:#000;stroke-width:1pt;marker-start:none" id="path4220" d="M 5.77,0.0 L -2.88,5.0 L -2.88,-5.0 L 5.77,0.0 z" transform="scale(0.2)"/></marker><marker style="overflow:visible" id="CurveIn" orient="auto" refX="0" refY="0"><path style="fill-rule:evenodd;stroke:#000;stroke-width:1pt;marker-start:none;marker-end:none;fill:none" id="path4238" d="M 4.6254930,-5.0456926 C 1.8654930,-5.0456926 -0.37450702,-2.8056926 -0.37450702,-0.045692580 C -0.37450702,2.7143074 1.8654930,4.9543074 4.6254930,4.9543074" transform="scale(0.6)"/></marker><marker id="InfiniteLineStart" orient="auto" refX="0" refY="0" style="overflow:visible"><g id="g4298" transform="translate(-13,0)"><circle id="circle4300" cx="3" cy="0" r=".8" d="M 3.8,0 C 3.8,0.44182781 3.4418278,0.80000001 3,0.80000001 2.5581722,0.80000001 2.2,0.44182781 2.2,0 c 0,-0.44182781 0.3581722,-0.80000001 0.8,-0.80000001 0.4418278,0 0.8,0.3581722 0.8,0.80000001 z"/><circle id="circle4302" cx="6.5" cy="0" r=".8" d="M 7.3,0 C 7.3,0.44182781 6.9418278,0.80000001 6.5,0.80000001 6.0581722,0.80000001 5.7,0.44182781 5.7,0 c 0,-0.44182781 0.3581722,-0.80000001 0.8,-0.80000001 0.4418278,0 0.8,0.3581722 0.8,0.80000001 z"/><circle id="circle4304" cx="10" cy="0" r=".8" d="M 10.8,0 C 10.8,0.44182781 10.441828,0.80000001 10,0.80000001 9.5581722,0.80000001 9.2,0.44182781 9.2,0 c 0,-0.44182781 0.3581722,-0.80000001 0.8,-0.80000001 0.441828,0 0.8,0.3581722 0.8,0.80000001 z"/></g></marker><marker style="overflow:visible" id="StopS" orient="auto" refX="0" refY="0"><path style="fill:none;fill-opacity:.75;fill-rule:evenodd;stroke:#000;stroke-width:1pt" id="path4229" d="M 0.0,5.65 L 0.0,-5.65" transform="scale(0.2)"/></marker><marker style="overflow:visible" id="Arrow2Sstart" orient="auto" refX="0" refY="0"><path style="font-size:12;fill-rule:evenodd;stroke-width:.625;stroke-linejoin:round" id="path4146" d="M 8.7185878,4.0337352 L -2.2072895,0.016013256 L 8.7185884,-4.0017078 C 6.9730900,-1.6296469 6.9831476,1.6157441 8.7185878,4.0337352 z" transform="scale(0.3) translate(-2.3,0)"/></marker><marker style="overflow:visible" id="DiamondS" orient="auto" refX="0" refY="0"><path style="fill-rule:evenodd;stroke:#000;stroke-width:1pt;marker-start:none" id="path4202" d="M 0,-7.0710768 L -7.0710894,0 L 0,7.0710589 L 7.0710462,0 L 0,-7.0710768 z" transform="scale(0.2)"/></marker><marker id="RazorWire" orient="auto" refX="0" refY="0">style=&quot;overflow:visible&quot;&gt;<path style="fill:gray;fill-opacity:1;fill-rule:evenodd;stroke:#000;stroke-width:.1pt" id="path4286" d="M 0.022727273,-0.74009011 L 0.022727273,0.69740989 L -7.7585227,3.0099099 L 10.678977,3.0099099 L 3.4914773,0.69740989 L 3.4914773,-0.74009011 L 10.741477,-2.8963401 L -7.7272727,-2.8963401 L 0.022727273,-0.74009011 z" transform="scale(0.8,0.8)"/></marker><marker id="ArrowStart" markerHeight="3" markerUnits="strokeWidth" markerWidth="4" orient="auto" refX="10" refY="5" viewBox="0 0 10 10"><path id="path1968" d="M 10 0 L 0 5 L 10 10 z"/></marker><marker id="ArrowEnd" markerHeight="3" markerUnits="strokeWidth" markerWidth="4" orient="auto" refX="0" refY="5" viewBox="0 0 10 10"><path id="path1965" d="M 0 0 L 10 5 L 0 10 z"/></marker></defs><g id="g1327"><path style="fill:#111;stroke:#eee;stroke-width:3.40799999" id="path1329" d="M 66.275,1.768 C 24.94,1.768 1.704,23.139 1.704,66.804 L 1.704,516.927 C 1.704,557.771 22.599,579.156 63.896,579.156 L 515.92,579.156 C 557.227,579.156 578.149,558.841 578.149,516.927 L 578.149,66.804 C 578.149,24.203 557.227,1.768 514.628,1.768 C 514.624,1.768 66.133,1.625 66.275,1.768 z"/></g><path style="fill:#fff" id="path5679" d="m 121.52892,132.23153 100.56651,27.37779 55.84341,-38.73987 19.40016,4.65362 -55.2995,38.86073 304.78178,83.58383 -22.3011,81.83115 -305.93008,-83.4025 C 100.07394,211.16174 121.64979,132.11067 121.64979,132.11067"/><path style="fill:#fff" id="path5681" d="m 385.87862,341.52348 c -0.36262,-6.82934 -1.63179,-13.35649 -3.86794,-19.52101 l 137.91632,38.43767 -4.41188,16.92225 -129.6365,-35.83891 z"/><path style="fill:#fff" id="path5683" d="m 260.65398,306.89331 c 3.74706,-5.43929 8.15894,-10.33465 13.17518,-14.50478 L 43.747015,228.86967 v 18.25184 l 216.906965,59.7718 z"/><path style="fill:#fff" id="path5685" d="m 317.52481,367.39035 c 12.38951,0 22.42198,-9.97204 22.42198,-22.36155 0,-12.38949 -10.03247,-22.42197 -22.42198,-22.42197 -12.38949,0 -22.42196,10.03248 -22.42196,22.42197 0,12.38951 10.03247,22.36155 22.42196,22.36155 z m 224.58241,137.43283 c -10.93902,0 -21.33411,-2.4779 -30.58091,-6.64803 -9.60942,-4.41187 -20.36714,-7.01064 -31.60834,-7.01064 -11.24121,0 -21.99892,2.59877 -31.48747,7.01064 -9.36768,4.17013 -19.76277,6.64803 -30.70179,6.64803 -10.93904,0 -21.33413,-2.4779 -30.7018,-6.64803 -9.54898,-4.41187 -20.3067,-7.01064 -31.48747,-7.01064 -11.30165,0 -21.99892,2.59877 -31.60834,7.01064 -9.2468,4.17013 -19.76276,6.64803 -30.64136,6.64803 -10.87858,0 -21.33412,-2.4779 -30.64135,-6.64803 -9.60943,-4.41187 -20.42757,-7.01064 -31.60835,-7.01064 -11.18077,0 -21.99892,2.59877 -31.48747,7.01064 -9.30723,4.17013 -19.8232,6.64803 -30.70178,6.64803 -10.8786,0 -21.33413,-2.4779 -30.70181,-6.64803 -9.48854,-4.41187 -20.30669,-7.01064 -31.48746,-7.01064 -11.180769,0 -21.998925,2.59877 -31.5479,7.01064 -9.307246,4.17013 -19.823206,6.64803 -30.641362,6.64803 L 43.747015,322.18377 295.34459,391.50455 c -17.34531,-8.40069 -29.3722,-25.98774 -29.3722,-46.47575 0,-28.5865 23.14723,-51.67328 51.6733,-51.67328 28.52608,0 51.6733,23.14722 51.6733,51.67328 0,28.52609 -23.20766,51.6733 -51.6733,51.6733 -1.69223,0 -3.44488,-0.36262 -5.07667,-0.54393 l 229.29646,63.21668 0.24174,45.44833 z"/></svg>