<svg xmlns="http://www.w3.org/2000/svg" xmlns:svg="http://www.w3.org/2000/svg" id="svg2" width="580" height="580" version="1.0"><defs id="defs22"><marker id="ArrowStart" markerHeight="3" markerUnits="strokeWidth" markerWidth="4" orient="auto" refX="10" refY="5" viewBox="0 0 10 10"><path id="path3568" d="M 10 0 L 0 5 L 10 10 z"/></marker><marker id="ArrowEnd" markerHeight="3" markerUnits="strokeWidth" markerWidth="4" orient="auto" refX="0" refY="5" viewBox="0 0 10 10"><path id="path3565" d="M 0 0 L 10 5 L 0 10 z"/></marker><marker id="marker2959" markerHeight="3" markerUnits="strokeWidth" markerWidth="4" orient="auto" refX="10" refY="5" viewBox="0 0 10 10"><path id="path2626" d="M 10 0 L 0 5 L 10 10 z"/></marker><marker id="marker2956" markerHeight="3" markerUnits="strokeWidth" markerWidth="4" orient="auto" refX="0" refY="5" viewBox="0 0 10 10"><path id="path2623" d="M 0 0 L 10 5 L 0 10 z"/></marker><marker id="marker3077" markerHeight="3" markerUnits="strokeWidth" markerWidth="4" orient="auto" refX="10" refY="5" viewBox="0 0 10 10"><path id="path3298" d="M 10 0 L 0 5 L 10 10 z"/></marker><marker id="marker3074" markerHeight="3" markerUnits="strokeWidth" markerWidth="4" orient="auto" refX="0" refY="5" viewBox="0 0 10 10"><path id="path3295" d="M 0 0 L 10 5 L 0 10 z"/></marker><marker id="marker3188" markerHeight="3" markerUnits="strokeWidth" markerWidth="4" orient="auto" refX="10" refY="5" viewBox="0 0 10 10"><path id="path3318" d="M 10 0 L 0 5 L 10 10 z"/></marker><marker id="marker3185" markerHeight="3" markerUnits="strokeWidth" markerWidth="4" orient="auto" refX="0" refY="5" viewBox="0 0 10 10"><path id="path3315" d="M 0 0 L 10 5 L 0 10 z"/></marker></defs><metadata id="metadata10"/><g id="g1327"><path style="fill:#111;stroke:#eee;stroke-width:3.40799999" id="path1329" d="M 66.275,1.768 C 24.94,1.768 1.704,23.139 1.704,66.804 L 1.704,516.927 C 1.704,557.771 22.598,579.156 63.896,579.156 L 515.92,579.156 C 557.227,579.156 578.149,558.84 578.149,516.927 L 578.149,66.804 C 578.149,24.203 557.227,1.768 514.627,1.768 C 514.624,1.768 66.133,1.625 66.275,1.768 z"/></g><g id="g2319" transform="translate(879.29125,36.805119)"><path id="path2323" style="fill:#fff;stroke:none"/></g><g id="g2325" transform="translate(879.29125,36.805119)"><path id="path2329" style="fill:#fff;stroke:none"/></g><g id="g3324" transform="translate(-12.51126,-134.23929)"><path style="fill:#fff;stroke:none" id="path3326" d="M 269.59375,90.625 C 262.09375,90.625 257.46876,94.937502 257.46875,103.4375 L 257.46875,124.6875 L 211.9375,124.6875 C 187.4375,124.6875 174.43751,137.9375 168.4375,153.4375 L 136.5625,234.84375 C 123.9365,236.44675 101.59375,251.11024 101.59375,278.90625 L 101.59375,382.46875 L 132.59375,382.46875 L 132.59375,415.5625 C 132.59375,456.2985 190.81249,455.81949 190.8125,415.5625 L 190.8125,382.46875 L 295.5625,382.46875 L 295.625,382.46875 L 400.34375,382.46875 L 400.34375,415.5625 C 400.34375,455.8195 458.59374,456.29849 458.59375,415.5625 L 458.59375,382.46875 L 489.5625,382.46875 L 489.5625,278.90625 C 489.5625,251.11025 467.1885,236.44675 454.5625,234.84375 L 422.6875,153.4375 C 416.6875,137.9375 403.68749,124.6875 379.1875,124.6875 L 334.1875,124.6875 L 334.1875,103.4375 C 334.1875,94.9375 329.5625,90.624997 322.0625,90.625 L 295.625,90.625 L 295.5625,90.625 L 269.59375,90.625 z M 211.5625,154.34375 L 295.5,154.34375 L 295.5625,154.34375 L 295.625,154.34375 L 379.5625,154.34375 C 390.06249,154.44075 394.5625,160.9375 397.5625,169.9375 L 421.5625,232.90625 L 295.625,232.90625 L 295.5625,232.90625 L 295.5,232.90625 L 169.5625,232.90625 L 193.5625,169.9375 C 196.5625,160.9375 201.0625,154.44075 211.5625,154.34375 z M 162.625,264.28125 C 177.47999,264.28125 189.53125,276.55975 189.53125,291.71875 C 189.53125,306.87774 177.48,319.1875 162.625,319.1875 C 147.76799,319.18751 135.71875,306.87775 135.71875,291.71875 C 135.71875,276.55974 147.768,264.28125 162.625,264.28125 z M 428.5,264.28125 C 443.355,264.28125 455.40624,276.55974 455.40625,291.71875 C 455.40625,306.87775 443.35501,319.18751 428.5,319.1875 C 413.644,319.1875 401.62502,306.87774 401.625,291.71875 C 401.625,276.55975 413.64401,264.28125 428.5,264.28125 z" transform="translate(10.51126,70.239291)"/><g id="g3328"><g id="g3332"><g id="g3334"><path id="path3338" style="fill:#000;stroke:none"/></g><g id="g3340"><path id="path3344" style="fill:#000;stroke:none"/></g></g></g></g><path style="font-size:144px;font-style:normal;font-variant:normal;font-weight:400;font-stretch:normal;text-align:start;line-height:125%;writing-mode:lr-tb;text-anchor:start;fill:#fff;fill-opacity:1;stroke:none;stroke-width:1px;stroke-linecap:butt;stroke-linejoin:miter;stroke-opacity:1;font-family:Arial Black;-inkscape-font-specification:Arial Black" id="text3390" d="M 104.96867,426.89746 L 201.78899,426.89746 L 201.78899,452.35059 L 169.30461,452.35059 L 169.30461,529.97559 L 137.45305,529.97559 L 137.45305,452.35059 L 104.96867,452.35059 L 104.96867,426.89746 z M 279.69524,512.95996 L 243.41399,512.95996 L 238.4218,529.97559 L 205.86711,529.97559 L 244.6093,426.89746 L 279.34367,426.89746 L 318.08586,529.97559 L 284.75774,529.97559 L 279.69524,512.95996 z M 273.01555,490.6709 L 261.62492,453.61621 L 250.30461,490.6709 L 273.01555,490.6709 z M 321.1093,426.89746 L 356.19524,426.89746 L 374.47649,458.6084 L 392.19524,426.89746 L 426.92961,426.89746 L 394.86711,476.81934 L 429.95305,529.97559 L 394.16399,529.97559 L 373.84367,496.8584 L 353.45305,529.97559 L 317.87492,529.97559 L 353.45305,476.25684 L 321.1093,426.89746 z M 441.41399,426.89746 L 473.33586,426.89746 L 473.33586,529.97559 L 441.41399,529.97559 L 441.41399,426.89746 z"/></svg>