<svg xmlns="http://www.w3.org/2000/svg" xmlns:svg="http://www.w3.org/2000/svg" id="svg2" width="580" height="580" version="1.0"><metadata id="metadata2975"/><defs id="defs4"><symbol id="symbol-university" viewBox="244.5 110 489 219.9"><path id="path4460" d="M79,43l57,119c0,0,21-96,104-96s124,106,124,106l43-133l82-17L0,17L79,43z"/><path id="path4462" fill="none" stroke="#000" stroke-width="20" d="M94,176l-21,39"/><path id="path4464" d="M300,19c0,10.5-22.6,19-50.5,19S199,29.5,199,19s22.6-19,50.5-19S300,8.5,300,19z"/><path id="path4466" stroke="#000" stroke-width="20" d="M112,216l-16-38L64,88c0,0-9-8-4-35s16-24,16-24" ill="none"/></symbol><marker style="overflow:visible" id="Arrow2Lend" orient="auto" refX="0" refY="0"><path style="font-size:12;fill-rule:evenodd;stroke-width:.625;stroke-linejoin:round" id="path4137" d="M 8.7185878,4.0337352 L -2.2072895,0.016013256 L 8.7185884,-4.0017078 C 6.9730900,-1.6296469 6.9831476,1.6157441 8.7185878,4.0337352 z" transform="scale(1.1) rotate(180) translate(1,0)"/></marker><marker style="overflow:visible" id="Arrow1Mend" orient="auto" refX="0" refY="0"><path style="fill-rule:evenodd;stroke:#000;stroke-width:1pt;marker-start:none" id="path4125" d="M 0.0,0.0 L 5.0,-5.0 L -12.5,0.0 L 5.0,5.0 L 0.0,0.0 z" transform="scale(0.4) rotate(180) translate(10,0)"/></marker><marker style="overflow:visible" id="TriangleOutL" orient="auto" refX="0" refY="0"><path style="fill-rule:evenodd;stroke:#000;stroke-width:1pt;marker-start:none" id="path4214" d="M 5.77,0.0 L -2.88,5.0 L -2.88,-5.0 L 5.77,0.0 z" transform="scale(0.8)"/></marker><marker style="overflow:visible" id="Arrow1Lend" orient="auto" refX="0" refY="0"><path style="fill-rule:evenodd;stroke:#000;stroke-width:1pt;marker-start:none" id="path4119" d="M 0.0,0.0 L 5.0,-5.0 L -12.5,0.0 L 5.0,5.0 L 0.0,0.0 z" transform="scale(0.8) rotate(180) translate(12.5,0)"/></marker><marker style="overflow:visible" id="Tail" orient="auto" refX="0" refY="0"><g id="g4152" transform="scale(-1.2)"><path style="fill:none;fill-rule:evenodd;stroke:#000;stroke-width:.8;marker-start:none;marker-end:none;stroke-linecap:round" id="path4154" d="M -3.8048674,-3.9585227 L 0.54352094,0"/><path style="fill:none;fill-rule:evenodd;stroke:#000;stroke-width:.8;marker-start:none;marker-end:none;stroke-linecap:round" id="path4156" d="M -1.2866832,-3.9585227 L 3.0617053,0"/><path style="fill:none;fill-rule:evenodd;stroke:#000;stroke-width:.8;marker-start:none;marker-end:none;stroke-linecap:round" id="path4158" d="M 1.3053582,-3.9585227 L 5.6537466,0"/><path style="fill:none;fill-rule:evenodd;stroke:#000;stroke-width:.8;marker-start:none;marker-end:none;stroke-linecap:round" id="path4160" d="M -3.8048674,4.1775838 L 0.54352094,0.21974226"/><path style="fill:none;fill-rule:evenodd;stroke:#000;stroke-width:.8;marker-start:none;marker-end:none;stroke-linecap:round" id="path4162" d="M -1.2866832,4.1775838 L 3.0617053,0.21974226"/><path style="fill:none;fill-rule:evenodd;stroke:#000;stroke-width:.8;marker-start:none;marker-end:none;stroke-linecap:round" id="path4164" d="M 1.3053582,4.1775838 L 5.6537466,0.21974226"/></g></marker><marker style="overflow:visible" id="Arrow1Sstart" orient="auto" refX="0" refY="0"><path style="fill-rule:evenodd;stroke:#000;stroke-width:1pt;marker-start:none" id="path4128" d="M 0.0,0.0 L 5.0,-5.0 L -12.5,0.0 L 5.0,5.0 L 0.0,0.0 z" transform="scale(0.2) translate(6,0)"/></marker><marker style="overflow:visible" id="Arrow1Send" orient="auto" refX="0" refY="0"><path style="fill-rule:evenodd;stroke:#000;stroke-width:1pt;marker-start:none" id="path4131" d="M 0.0,0.0 L 5.0,-5.0 L -12.5,0.0 L 5.0,5.0 L 0.0,0.0 z" transform="scale(0.2) rotate(180) translate(6,0)"/></marker><marker style="overflow:visible" id="SemiCircleOut" orient="auto" refX="0" refY="0"><path style="fill-rule:evenodd;stroke:#000;stroke-width:1pt;marker-start:none;marker-end:none" id="path4235" d="M -2.5,-0.80913858 C -2.5,1.9508614 -4.7400000,4.1908614 -7.5,4.1908614 L -7.5,-5.8091386 C -4.7400000,-5.8091386 -2.5,-3.5691386 -2.5,-0.80913858 z" transform="scale(0.6) translate(7.125493,0.763446)"/></marker><marker style="overflow:visible" id="Arrow2Send" orient="auto" refX="0" refY="0"><path style="font-size:12;fill-rule:evenodd;stroke-width:.625;stroke-linejoin:round" id="path4149" d="M 8.7185878,4.0337352 L -2.2072895,0.016013256 L 8.7185884,-4.0017078 C 6.9730900,-1.6296469 6.9831476,1.6157441 8.7185878,4.0337352 z" transform="scale(0.3) rotate(180) translate(-2.3,0)"/></marker><marker style="overflow:visible" id="TriangleOutS" orient="auto" refX="0" refY="0"><path style="fill-rule:evenodd;stroke:#000;stroke-width:1pt;marker-start:none" id="path4220" d="M 5.77,0.0 L -2.88,5.0 L -2.88,-5.0 L 5.77,0.0 z" transform="scale(0.2)"/></marker><marker style="overflow:visible" id="CurveIn" orient="auto" refX="0" refY="0"><path style="fill-rule:evenodd;stroke:#000;stroke-width:1pt;marker-start:none;marker-end:none;fill:none" id="path4238" d="M 4.6254930,-5.0456926 C 1.8654930,-5.0456926 -0.37450702,-2.8056926 -0.37450702,-0.045692580 C -0.37450702,2.7143074 1.8654930,4.9543074 4.6254930,4.9543074" transform="scale(0.6)"/></marker><marker id="InfiniteLineStart" orient="auto" refX="0" refY="0" style="overflow:visible"><g id="g4298" transform="translate(-13,0)"><circle id="circle4300" cx="3" cy="0" r=".8" d="M 3.8,0 C 3.8,0.44182781 3.4418278,0.80000001 3,0.80000001 C 2.5581722,0.80000001 2.2,0.44182781 2.2,0 C 2.2,-0.44182781 2.5581722,-0.80000001 3,-0.80000001 C 3.4418278,-0.80000001 3.8,-0.44182781 3.8,0 z"/><circle id="circle4302" cx="6.5" cy="0" r=".8" d="M 7.3,0 C 7.3,0.44182781 6.9418278,0.80000001 6.5,0.80000001 C 6.0581722,0.80000001 5.7,0.44182781 5.7,0 C 5.7,-0.44182781 6.0581722,-0.80000001 6.5,-0.80000001 C 6.9418278,-0.80000001 7.3,-0.44182781 7.3,0 z"/><circle id="circle4304" cx="10" cy="0" r=".8" d="M 10.8,0 C 10.8,0.44182781 10.441828,0.80000001 10,0.80000001 C 9.5581722,0.80000001 9.2,0.44182781 9.2,0 C 9.2,-0.44182781 9.5581722,-0.80000001 10,-0.80000001 C 10.441828,-0.80000001 10.8,-0.44182781 10.8,0 z"/></g></marker><marker style="overflow:visible" id="StopS" orient="auto" refX="0" refY="0"><path style="fill:none;fill-opacity:.75;fill-rule:evenodd;stroke:#000;stroke-width:1pt" id="path4229" d="M 0.0,5.65 L 0.0,-5.65" transform="scale(0.2)"/></marker><marker style="overflow:visible" id="Arrow2Sstart" orient="auto" refX="0" refY="0"><path style="font-size:12;fill-rule:evenodd;stroke-width:.625;stroke-linejoin:round" id="path4146" d="M 8.7185878,4.0337352 L -2.2072895,0.016013256 L 8.7185884,-4.0017078 C 6.9730900,-1.6296469 6.9831476,1.6157441 8.7185878,4.0337352 z" transform="scale(0.3) translate(-2.3,0)"/></marker><marker style="overflow:visible" id="DiamondS" orient="auto" refX="0" refY="0"><path style="fill-rule:evenodd;stroke:#000;stroke-width:1pt;marker-start:none" id="path4202" d="M 0,-7.0710768 L -7.0710894,0 L 0,7.0710589 L 7.0710462,0 L 0,-7.0710768 z" transform="scale(0.2)"/></marker><marker id="RazorWire" orient="auto" refX="0" refY="0">style=&quot;overflow:visible&quot;&gt;<path style="fill:gray;fill-opacity:1;fill-rule:evenodd;stroke:#000;stroke-width:.1pt" id="path4286" d="M 0.022727273,-0.74009011 L 0.022727273,0.69740989 L -7.7585227,3.0099099 L 10.678977,3.0099099 L 3.4914773,0.69740989 L 3.4914773,-0.74009011 L 10.741477,-2.8963401 L -7.7272727,-2.8963401 L 0.022727273,-0.74009011 z" transform="scale(0.8,0.8)"/></marker></defs><g id="g1327"><path style="fill:#111;stroke:#eee;stroke-width:3.40799999" id="path1329" d="M 66.275,1.768 C 24.94,1.768 1.704,23.139 1.704,66.804 L 1.704,516.927 C 1.704,557.771 22.599,579.156 63.896,579.156 L 515.92,579.156 C 557.227,579.156 578.149,558.841 578.149,516.927 L 578.149,66.804 C 578.149,24.203 557.227,1.768 514.628,1.768 C 514.624,1.768 66.133,1.625 66.275,1.768 z"/></g><path style="opacity:.6;fill:#fff;fill-opacity:1;stroke:none" id="path4809" d="m 383.59788,119.68254 a 95.132271,95.132271 0 1 1 -190.26454,0 95.132271,95.132271 0 1 1 190.26454,0 z" transform="matrix(0.91935484,0,0,0.91935484,29.263356,9.6518182)"/><path id="path4813" d="m 383.59788,119.68254 a 95.132271,95.132271 0 1 1 -190.26454,0 95.132271,95.132271 0 1 1 190.26454,0 z" transform="matrix(0.91935484,0,0,0.91935484,29.263356,181.65182)" style="opacity:.2;fill:#fff;fill-opacity:1;stroke:none"/><path style="opacity:.3;fill:#fff;fill-opacity:1;stroke:none" id="path4815" d="m 383.59788,119.68254 a 95.132271,95.132271 0 1 1 -190.26454,0 95.132271,95.132271 0 1 1 190.26454,0 z" transform="matrix(0.91935484,0,0,0.91935484,29.263356,351.65182)"/><path style="font-size:medium;font-style:normal;font-variant:normal;font-weight:400;font-stretch:normal;text-indent:0;text-align:start;text-decoration:none;line-height:normal;letter-spacing:normal;word-spacing:normal;text-transform:none;direction:ltr;block-progression:tb;writing-mode:lr-tb;text-anchor:start;color:#000;fill:#fff;fill-opacity:1;stroke:none;stroke-width:200;marker:none;visibility:visible;display:inline;overflow:visible;enable-background:accumulate;font-family:Bitstream Vera Sans;-inkscape-font-specification:Bitstream Vera Sans" id="path4782" d="m 296.09195,17.829971 c -1.1544,-0.01235 -2.31572,5.1e-4 -3.47009,0.02965 -49.73086,-0.08599 -95.36898,42.46164 -97.87428,92.298414 -1.58709,25.61454 0.16862,51.29301 -0.50421,76.93512 0.21255,95.85547 -0.63683,191.72794 0.50421,287.57244 4.1478,45.80317 43.39248,85.55474 89.33253,89.62911 43.41739,4.86929 88.30297,-21.28198 103.92469,-62.28363 8.26021,-19.9307 8.13,-41.86942 7.41471,-63.08442 -0.27357,-110.32898 0.62412,-220.67496 -0.53386,-330.99303 -4.11589,-45.501345 -42.81102,-85.076601 -88.44276,-89.451167 -3.44097,-0.392503 -6.88777,-0.615452 -10.35094,-0.652495 z m -0.0297,24.972772 c 42.62651,0 77.20205,34.575538 77.20205,77.202047 0,42.62651 -34.57554,77.17239 -77.20205,77.17239 -42.62651,0 -77.17239,-34.54588 -77.17239,-77.17239 0,-42.626509 34.54588,-77.202047 77.17239,-77.202047 z m 0,170.835107 c 42.62651,0 77.20205,34.57554 77.20205,77.20205 0,42.62651 -34.57554,77.17239 -77.20205,77.17239 -42.62651,0 -77.17239,-34.54588 -77.17239,-77.17239 0,-42.62651 34.54588,-77.20205 77.17239,-77.20205 z m 0,170.83512 c 42.62651,0 77.20205,34.57553 77.20205,77.20204 0,42.62651 -34.57554,77.17239 -77.20205,77.17239 -42.62651,0 -77.17239,-34.54588 -77.17239,-77.17239 0,-42.62651 34.54588,-77.20204 77.17239,-77.20204 z"/><path id="path8151" d="m 296.09195,17.829971 c -1.1544,-0.01235 -2.31572,5.1e-4 -3.47009,0.02965 -49.73086,-0.08599 -95.36898,42.46164 -97.87428,92.298414 -1.58709,25.61454 0.16862,51.29301 -0.50421,76.93512 0.21255,95.85547 -0.63683,191.72794 0.50421,287.57244 4.1478,45.80317 43.39248,85.55474 89.33253,89.62911 43.41739,4.86929 88.30297,-21.28198 103.92469,-62.28363 8.26021,-19.9307 8.13,-41.86942 7.41471,-63.08442 -0.27357,-110.32898 0.62412,-220.67496 -0.53386,-330.99303 -4.11589,-45.501345 -42.81102,-85.076601 -88.44276,-89.451167 -3.44097,-0.392503 -6.88777,-0.615452 -10.35094,-0.652495 z m -0.0297,24.972772 c 42.62651,0 77.20205,34.575538 77.20205,77.202047 0,42.62651 -34.57554,77.17239 -77.20205,77.17239 -42.62651,0 -77.17239,-34.54588 -77.17239,-77.17239 0,-42.626509 34.54588,-77.202047 77.17239,-77.202047 z m 0,170.835107 c 42.62651,0 77.20205,34.57554 77.20205,77.20205 0,42.62651 -34.57554,77.17239 -77.20205,77.17239 -42.62651,0 -77.17239,-34.54588 -77.17239,-77.17239 0,-42.62651 34.54588,-77.20205 77.17239,-77.20205 z m 0,170.83512 c 42.62651,0 77.20205,34.57553 77.20205,77.20204 0,42.62651 -34.57554,77.17239 -77.20205,77.17239 -42.62651,0 -77.17239,-34.54588 -77.17239,-77.17239 0,-42.62651 34.54588,-77.20204 77.17239,-77.20204 z" style="font-size:medium;font-style:normal;font-variant:normal;font-weight:400;font-stretch:normal;text-indent:0;text-align:start;text-decoration:none;line-height:normal;letter-spacing:normal;word-spacing:normal;text-transform:none;direction:ltr;block-progression:tb;writing-mode:lr-tb;text-anchor:start;color:#000;fill:none;fill-opacity:1;stroke:#fff;stroke-width:8;marker:none;visibility:visible;display:inline;overflow:visible;enable-background:accumulate;font-family:Bitstream Vera Sans;-inkscape-font-specification:Bitstream Vera Sans;stroke-opacity:1;stroke-miterlimit:4;stroke-dasharray:none"/></svg>