<svg xmlns="http://www.w3.org/2000/svg" xmlns:svg="http://www.w3.org/2000/svg" id="svg2" width="580" height="580" version="1.0"><metadata id="metadata2975"/><defs id="defs4"><symbol id="symbol-university" viewBox="244.5 110 489 219.9"><path id="path4460" d="M79,43l57,119c0,0,21-96,104-96s124,106,124,106l43-133l82-17L0,17L79,43z"/><path id="path4462" fill="none" stroke="#000" stroke-width="20" d="M94,176l-21,39"/><path id="path4464" d="M300,19c0,10.5-22.6,19-50.5,19S199,29.5,199,19s22.6-19,50.5-19S300,8.5,300,19z"/><path id="path4466" stroke="#000" stroke-width="20" d="M112,216l-16-38L64,88c0,0-9-8-4-35s16-24,16-24" ill="none"/></symbol><marker style="overflow:visible" id="Arrow2Lend" orient="auto" refX="0" refY="0"><path style="font-size:12;fill-rule:evenodd;stroke-width:.625;stroke-linejoin:round" id="path4137" d="M 8.7185878,4.0337352 L -2.2072895,0.016013256 L 8.7185884,-4.0017078 C 6.9730900,-1.6296469 6.9831476,1.6157441 8.7185878,4.0337352 z" transform="scale(1.1) rotate(180) translate(1,0)"/></marker><marker style="overflow:visible" id="Arrow1Mend" orient="auto" refX="0" refY="0"><path style="fill-rule:evenodd;stroke:#000;stroke-width:1pt;marker-start:none" id="path4125" d="M 0.0,0.0 L 5.0,-5.0 L -12.5,0.0 L 5.0,5.0 L 0.0,0.0 z" transform="scale(0.4) rotate(180) translate(10,0)"/></marker><marker style="overflow:visible" id="TriangleOutL" orient="auto" refX="0" refY="0"><path style="fill-rule:evenodd;stroke:#000;stroke-width:1pt;marker-start:none" id="path4214" d="M 5.77,0.0 L -2.88,5.0 L -2.88,-5.0 L 5.77,0.0 z" transform="scale(0.8)"/></marker><marker style="overflow:visible" id="Arrow1Lend" orient="auto" refX="0" refY="0"><path style="fill-rule:evenodd;stroke:#000;stroke-width:1pt;marker-start:none" id="path4119" d="M 0.0,0.0 L 5.0,-5.0 L -12.5,0.0 L 5.0,5.0 L 0.0,0.0 z" transform="scale(0.8) rotate(180) translate(12.5,0)"/></marker><marker style="overflow:visible" id="Tail" orient="auto" refX="0" refY="0"><g id="g4152" transform="scale(-1.2)"><path style="fill:none;fill-rule:evenodd;stroke:#000;stroke-width:.8;marker-start:none;marker-end:none;stroke-linecap:round" id="path4154" d="M -3.8048674,-3.9585227 L 0.54352094,0"/><path style="fill:none;fill-rule:evenodd;stroke:#000;stroke-width:.8;marker-start:none;marker-end:none;stroke-linecap:round" id="path4156" d="M -1.2866832,-3.9585227 L 3.0617053,0"/><path style="fill:none;fill-rule:evenodd;stroke:#000;stroke-width:.8;marker-start:none;marker-end:none;stroke-linecap:round" id="path4158" d="M 1.3053582,-3.9585227 L 5.6537466,0"/><path style="fill:none;fill-rule:evenodd;stroke:#000;stroke-width:.8;marker-start:none;marker-end:none;stroke-linecap:round" id="path4160" d="M -3.8048674,4.1775838 L 0.54352094,0.21974226"/><path style="fill:none;fill-rule:evenodd;stroke:#000;stroke-width:.8;marker-start:none;marker-end:none;stroke-linecap:round" id="path4162" d="M -1.2866832,4.1775838 L 3.0617053,0.21974226"/><path style="fill:none;fill-rule:evenodd;stroke:#000;stroke-width:.8;marker-start:none;marker-end:none;stroke-linecap:round" id="path4164" d="M 1.3053582,4.1775838 L 5.6537466,0.21974226"/></g></marker><marker style="overflow:visible" id="Arrow1Sstart" orient="auto" refX="0" refY="0"><path style="fill-rule:evenodd;stroke:#000;stroke-width:1pt;marker-start:none" id="path4128" d="M 0.0,0.0 L 5.0,-5.0 L -12.5,0.0 L 5.0,5.0 L 0.0,0.0 z" transform="scale(0.2) translate(6,0)"/></marker><marker style="overflow:visible" id="Arrow1Send" orient="auto" refX="0" refY="0"><path style="fill-rule:evenodd;stroke:#000;stroke-width:1pt;marker-start:none" id="path4131" d="M 0.0,0.0 L 5.0,-5.0 L -12.5,0.0 L 5.0,5.0 L 0.0,0.0 z" transform="scale(0.2) rotate(180) translate(6,0)"/></marker><marker style="overflow:visible" id="SemiCircleOut" orient="auto" refX="0" refY="0"><path style="fill-rule:evenodd;stroke:#000;stroke-width:1pt;marker-start:none;marker-end:none" id="path4235" d="M -2.5,-0.80913858 C -2.5,1.9508614 -4.7400000,4.1908614 -7.5,4.1908614 L -7.5,-5.8091386 C -4.7400000,-5.8091386 -2.5,-3.5691386 -2.5,-0.80913858 z" transform="scale(0.6) translate(7.125493,0.763446)"/></marker><marker style="overflow:visible" id="Arrow2Send" orient="auto" refX="0" refY="0"><path style="font-size:12;fill-rule:evenodd;stroke-width:.625;stroke-linejoin:round" id="path4149" d="M 8.7185878,4.0337352 L -2.2072895,0.016013256 L 8.7185884,-4.0017078 C 6.9730900,-1.6296469 6.9831476,1.6157441 8.7185878,4.0337352 z" transform="scale(0.3) rotate(180) translate(-2.3,0)"/></marker><marker style="overflow:visible" id="TriangleOutS" orient="auto" refX="0" refY="0"><path style="fill-rule:evenodd;stroke:#000;stroke-width:1pt;marker-start:none" id="path4220" d="M 5.77,0.0 L -2.88,5.0 L -2.88,-5.0 L 5.77,0.0 z" transform="scale(0.2)"/></marker><marker style="overflow:visible" id="CurveIn" orient="auto" refX="0" refY="0"><path style="fill-rule:evenodd;stroke:#000;stroke-width:1pt;marker-start:none;marker-end:none;fill:none" id="path4238" d="M 4.6254930,-5.0456926 C 1.8654930,-5.0456926 -0.37450702,-2.8056926 -0.37450702,-0.045692580 C -0.37450702,2.7143074 1.8654930,4.9543074 4.6254930,4.9543074" transform="scale(0.6)"/></marker><marker id="InfiniteLineStart" orient="auto" refX="0" refY="0" style="overflow:visible"><g id="g4298" transform="translate(-13,0)"><circle id="circle4300" cx="3" cy="0" r=".8"/><circle id="circle4302" cx="6.5" cy="0" r=".8"/><circle id="circle4304" cx="10" cy="0" r=".8"/></g></marker><marker style="overflow:visible" id="StopS" orient="auto" refX="0" refY="0"><path style="fill:none;fill-opacity:.75;fill-rule:evenodd;stroke:#000;stroke-width:1pt" id="path4229" d="M 0.0,5.65 L 0.0,-5.65" transform="scale(0.2)"/></marker><marker style="overflow:visible" id="Arrow2Sstart" orient="auto" refX="0" refY="0"><path style="font-size:12;fill-rule:evenodd;stroke-width:.625;stroke-linejoin:round" id="path4146" d="M 8.7185878,4.0337352 L -2.2072895,0.016013256 L 8.7185884,-4.0017078 C 6.9730900,-1.6296469 6.9831476,1.6157441 8.7185878,4.0337352 z" transform="scale(0.3) translate(-2.3,0)"/></marker><marker style="overflow:visible" id="DiamondS" orient="auto" refX="0" refY="0"><path style="fill-rule:evenodd;stroke:#000;stroke-width:1pt;marker-start:none" id="path4202" d="M 0,-7.0710768 L -7.0710894,0 L 0,7.0710589 L 7.0710462,0 L 0,-7.0710768 z" transform="scale(0.2)"/></marker><marker id="RazorWire" orient="auto" refX="0" refY="0">style=&quot;overflow:visible&quot;&gt;<path style="fill:gray;fill-opacity:1;fill-rule:evenodd;stroke:#000;stroke-width:.1pt" id="path4286" d="M 0.022727273,-0.74009011 L 0.022727273,0.69740989 L -7.7585227,3.0099099 L 10.678977,3.0099099 L 3.4914773,0.69740989 L 3.4914773,-0.74009011 L 10.741477,-2.8963401 L -7.7272727,-2.8963401 L 0.022727273,-0.74009011 z" transform="scale(0.8,0.8)"/></marker><marker id="ArrowStart" markerHeight="3" markerUnits="strokeWidth" markerWidth="4" orient="auto" refX="10" refY="5" viewBox="0 0 10 10"><path id="path1968" d="M 10 0 L 0 5 L 10 10 z"/></marker><marker id="ArrowEnd" markerHeight="3" markerUnits="strokeWidth" markerWidth="4" orient="auto" refX="0" refY="5" viewBox="0 0 10 10"><path id="path1965" d="M 0 0 L 10 5 L 0 10 z"/></marker></defs><g id="g1327"><path style="fill:#111;stroke:#eee;stroke-width:3.40799999" id="path1329" d="M 66.275,1.768 C 24.94,1.768 1.704,23.139 1.704,66.804 L 1.704,516.927 C 1.704,557.771 22.599,579.156 63.896,579.156 L 515.92,579.156 C 557.227,579.156 578.149,558.841 578.149,516.927 L 578.149,66.804 C 578.149,24.203 557.227,1.768 514.628,1.768 C 514.624,1.768 66.133,1.625 66.275,1.768 z"/></g><g id="g1970" transform="translate(68.799779,58.552307)" style="fill:#fff;fill-opacity:1"><path style="fill:none;fill-opacity:1;fill-rule:evenodd;stroke:#fff;stroke-width:10.20251942;stroke-linecap:butt;stroke-linejoin:miter;stroke-miterlimit:4;stroke-dasharray:none;stroke-opacity:1" id="path30859" d="M 139.91292,59.401389 L 264.27747,-22.516346 L 385.93548,59.335394 L 264.36187,141.22396 L 139.91292,59.401389 z"/><path style="fill:#fff;fill-opacity:1;fill-rule:evenodd;stroke:none;stroke-width:1px;stroke-linecap:butt;stroke-linejoin:miter;stroke-opacity:1" id="path29926" d="M 91.618394,433.19081 C 92.051199,500.76043 188.83336,500.76167 188.83336,433.7984"/><path style="fill:#fff;fill-opacity:1;fill-rule:evenodd;stroke:none;stroke-width:1px;stroke-linecap:butt;stroke-linejoin:miter;stroke-opacity:1" id="path30815" d="M 292.12427,433.17099 C 292.55709,500.74061 389.33924,500.74185 389.33924,433.77858"/><path style="fill:#fff;fill-opacity:1;fill-rule:evenodd;stroke:none;stroke-width:1px;stroke-linecap:butt;stroke-linejoin:miter;stroke-opacity:1" id="path30821" d="M 199.31435,464.02619 L 280.73189,464.02619 C 276.58803,456.84882 274.69755,449.24004 274.95976,433.6465 L 206.45358,433.6465 C 205.96861,449.4574 203.48975,456.79418 199.31435,464.02619 z"/><path style="fill:#fff;fill-opacity:1;fill-rule:evenodd;stroke:none;stroke-width:1px;stroke-linecap:butt;stroke-linejoin:miter;stroke-opacity:1" id="path30827" d="M 62.971849,146.47669 L 63.24513,177.26644 L 440.23734,177.26644 L 440.23734,146.47669 L 62.971849,146.47669 z"/><path style="fill:#fff;fill-opacity:1;fill-rule:evenodd;stroke:none;stroke-width:1px;stroke-linecap:butt;stroke-linejoin:miter;stroke-opacity:1" id="path30833" d="M 411.63385,175.85448 C 419.21672,181.20794 426.20887,185.73251 426.20887,190.33842 L 426.11778,292.72799 C 424.34282,302.78628 417.20148,304.4682 411.63385,310.03584 L 440.23734,310.03584 L 440.23734,175.85448 L 411.63385,175.85448 z"/><path style="fill:#fff;fill-opacity:1;fill-rule:evenodd;stroke:none;stroke-width:1px;stroke-linecap:butt;stroke-linejoin:miter;stroke-opacity:1" id="path30839" d="M 201.94656,176.17176 C 209.52945,181.52521 216.5265,186.05376 216.5265,190.65968 L 216.43794,378.82619 C 214.66298,388.88447 207.51419,390.5491 201.94656,396.11673 L 236.54011,395.85215 L 236.97162,190.26873 C 236.97162,186.20036 244.17537,181.43724 251.61005,176.18768 L 201.94656,176.17176 z"/><path style="fill:#fff;fill-opacity:1;fill-rule:evenodd;stroke:none;stroke-width:1px;stroke-linecap:butt;stroke-linejoin:miter;stroke-opacity:1" id="path30849" d="M 155.72273,175.99893 C 148.13984,181.35238 141.14279,185.88093 141.14279,190.48684 L 141.23135,378.65336 C 143.00631,388.71164 150.1551,390.37627 155.72273,395.9439 L 121.12918,395.93845 L 121.3417,176.11687 L 155.72273,175.99893 z"/><path style="fill:#fff;fill-opacity:1;fill-rule:evenodd;stroke:none;stroke-width:1px;stroke-linecap:butt;stroke-linejoin:miter;stroke-opacity:1" id="path30853" d="M 62.921418,175.62675 L -3.0305836,306.8931 L -3.0305836,386.50919 C -3.030569,400.88843 13.948843,415.83626 26.893771,415.79588 L 440.23734,415.79588 L 440.23734,309.44373 L 235.58995,309.44373 L 235.58995,395.75522 L 122.08692,395.75522 L 122.08692,309.58037 L 64.971031,309.58037 C 52.021717,309.58036 30.167701,294.01969 38.00723,264.76216 L 81.868954,175.62675 L 62.921418,175.62675 z"/><path style="fill:#fff;fill-opacity:1;fill-rule:evenodd;stroke:none;stroke-width:1px;stroke-linecap:butt;stroke-linejoin:miter;stroke-opacity:1" id="path30857" d="M 237.67599,292.82628 C 239.45095,302.88456 246.8123,304.12407 252.37993,309.6917 C 240.94718,309.67049 222.35221,309.54411 222.31107,308.48723 L 221.70875,293.01868 L 237.67599,292.82628 z"/><path style="fill:#fff;fill-opacity:1;fill-rule:evenodd;stroke-width:1px;stroke-linecap:butt;stroke-linejoin:miter;stroke-opacity:1" id="path31750" d="M 369.49363,147.12424 L 359.08186,136.20457 L 166.33706,136.20457 L 157.44897,146.87029 L 369.49363,147.12424 z"/></g></svg>