<svg xmlns="http://www.w3.org/2000/svg" xmlns:svg="http://www.w3.org/2000/svg" id="svg2" width="580" height="580" version="1.0"><metadata id="metadata2975"/><defs id="defs4"><symbol id="symbol-university" viewBox="244.5 110 489 219.9"><path id="path4460" d="M79,43l57,119c0,0,21-96,104-96s124,106,124,106l43-133l82-17L0,17L79,43z"/><path id="path4462" fill="none" stroke="#000" stroke-width="20" d="M94,176l-21,39"/><path id="path4464" d="M300,19c0,10.5-22.6,19-50.5,19S199,29.5,199,19s22.6-19,50.5-19S300,8.5,300,19z"/><path id="path4466" stroke="#000" stroke-width="20" d="M112,216l-16-38L64,88c0,0-9-8-4-35s16-24,16-24" ill="none"/></symbol></defs><g id="g1327"><path style="fill:#111;stroke:#eee;stroke-width:3.40799999" id="path1329" d="M 66.275,1.768 C 24.94,1.768 1.704,23.139 1.704,66.804 L 1.704,516.927 C 1.704,557.771 22.599,579.156 63.896,579.156 L 515.92,579.156 C 557.227,579.156 578.149,558.841 578.149,516.927 L 578.149,66.804 C 578.149,24.203 557.227,1.768 514.628,1.768 C 514.624,1.768 66.133,1.625 66.275,1.768 z"/></g><g id="g2325" transform="translate(-9.2012672,4.4650424)"><line style="fill:none;stroke:#fff;stroke-width:50;stroke-linecap:round;stroke-linejoin:round" id="line6215" x1="221.745" x2="155.745" y1="147.005" y2="491.855"/><line style="fill:none;stroke:#fff;stroke-width:35;stroke-linecap:round;stroke-linejoin:round" id="line6217" x1="79.945" x2="79.945" y1="499.455" y2="211.905"/><line style="fill:none;stroke:#fff;stroke-width:35;stroke-linecap:round;stroke-linejoin:round" id="line6219" x1="82.146" x2="207.545" y1="255.08" y2="255.08"/><line style="fill:none;stroke:#fff;stroke-width:50;stroke-linecap:round;stroke-linejoin:round" id="line6221" x1="382.545" x2="448.546" y1="147.005" y2="491.855"/><line style="fill:none;stroke:#fff;stroke-width:35;stroke-linecap:round;stroke-linejoin:round" id="line6223" x1="524.346" x2="524.346" y1="499.455" y2="211.905"/><line style="fill:none;stroke:#fff;stroke-width:35;stroke-linecap:round;stroke-linejoin:round" id="line6225" x1="522.146" x2="396.745" y1="255.08" y2="255.08"/></g></svg>