<svg xmlns="http://www.w3.org/2000/svg" xmlns:svg="http://www.w3.org/2000/svg" id="svg2" width="580" height="580" version="1.0"><defs id="defs22"><marker id="ArrowStart" markerHeight="3" markerUnits="strokeWidth" markerWidth="4" orient="auto" refX="10" refY="5" viewBox="0 0 10 10"><path id="path3568" d="M 10 0 L 0 5 L 10 10 z"/></marker><marker id="ArrowEnd" markerHeight="3" markerUnits="strokeWidth" markerWidth="4" orient="auto" refX="0" refY="5" viewBox="0 0 10 10"><path id="path3565" d="M 0 0 L 10 5 L 0 10 z"/></marker><marker id="marker2959" markerHeight="3" markerUnits="strokeWidth" markerWidth="4" orient="auto" refX="10" refY="5" viewBox="0 0 10 10"><path id="path2626" d="M 10 0 L 0 5 L 10 10 z"/></marker><marker id="marker2956" markerHeight="3" markerUnits="strokeWidth" markerWidth="4" orient="auto" refX="0" refY="5" viewBox="0 0 10 10"><path id="path2623" d="M 0 0 L 10 5 L 0 10 z"/></marker><marker id="marker3077" markerHeight="3" markerUnits="strokeWidth" markerWidth="4" orient="auto" refX="10" refY="5" viewBox="0 0 10 10"><path id="path3298" d="M 10 0 L 0 5 L 10 10 z"/></marker><marker id="marker3074" markerHeight="3" markerUnits="strokeWidth" markerWidth="4" orient="auto" refX="0" refY="5" viewBox="0 0 10 10"><path id="path3295" d="M 0 0 L 10 5 L 0 10 z"/></marker></defs><metadata id="metadata10"/><g id="g1327"><path style="fill:#111;stroke:#eee;stroke-width:3.40799999" id="path1329" d="M 66.275,1.768 C 24.94,1.768 1.704,23.139 1.704,66.804 L 1.704,516.927 C 1.704,557.771 22.598,579.156 63.896,579.156 L 515.92,579.156 C 557.227,579.156 578.149,558.84 578.149,516.927 L 578.149,66.804 C 578.149,24.203 557.227,1.768 514.627,1.768 C 514.624,1.768 66.133,1.625 66.275,1.768 z"/></g><g id="g2319" transform="translate(879.29125,36.805119)"><path id="path2323" style="fill:#fff;stroke:none"/></g><g id="g2325" transform="translate(879.29125,36.805119)"><path id="path2329" style="fill:#fff;stroke:none"/></g><path style="fill:none;stroke:#fff;stroke-width:54.68502426;stroke-linecap:round;stroke-linejoin:miter;stroke-miterlimit:4;stroke-opacity:1;stroke-dasharray:none" id="path2900" d="m 68.690452,226.50324 451.760378,0"/><path id="path3730" d="m 68.690452,360.07403 451.760378,0" style="fill:none;stroke:#fff;stroke-width:54.68502426;stroke-linecap:round;stroke-linejoin:miter;stroke-miterlimit:4;stroke-opacity:1;stroke-dasharray:none"/><path style="fill:none;stroke:#fff;stroke-width:54.68502426;stroke-linecap:round;stroke-linejoin:miter;stroke-miterlimit:4;stroke-opacity:1;stroke-dasharray:none" id="path3732" d="M 132.37824,443.67778 452.51615,144.52914"/></svg>