<svg xmlns="http://www.w3.org/2000/svg" xmlns:svg="http://www.w3.org/2000/svg" id="svg2" width="580" height="580" version="1.0"><metadata id="metadata2975"/><defs id="defs4"><symbol id="symbol-university" viewBox="244.5 110 489 219.9"><path id="path4460" d="M79,43l57,119c0,0,21-96,104-96s124,106,124,106l43-133l82-17L0,17L79,43z"/><path id="path4462" fill="none" stroke="#000" stroke-width="20" d="M94,176l-21,39"/><path id="path4464" d="M300,19c0,10.5-22.6,19-50.5,19S199,29.5,199,19s22.6-19,50.5-19S300,8.5,300,19z"/><path id="path4466" stroke="#000" stroke-width="20" d="M112,216l-16-38L64,88c0,0-9-8-4-35s16-24,16-24" ill="none"/></symbol></defs><g id="g1327"><path style="fill:#111;stroke:#eee;stroke-width:3.40799999" id="path1329" d="M 66.275,1.768 C 24.94,1.768 1.704,23.139 1.704,66.804 L 1.704,516.927 C 1.704,557.771 22.599,579.156 63.896,579.156 L 515.92,579.156 C 557.227,579.156 578.149,558.841 578.149,516.927 L 578.149,66.804 C 578.149,24.203 557.227,1.768 514.628,1.768 C 514.624,1.768 66.133,1.625 66.275,1.768 z"/></g><g id="g2325" transform="translate(-6.5446793,11.806088)"><path style="fill:none;stroke:#7f7f7f;stroke-width:20" id="path5473" d="m 71.146,445.933 c 0,-35.346 88.647,-64 198,-64"/><polygon style="fill:none;stroke:#fff;stroke-width:30;stroke-linecap:round;stroke-linejoin:round" id="polygon5475" points="519.152 442.928 328.149 507.928 328.149 185.931 519.152 120.931"/><path style="fill:none;stroke:#7f7f7f;stroke-width:20" id="path5477" d="m 71.146,348.933 c 0,-35.346 88.647,-64.001 198,-64.001"/><path style="fill:none;stroke:#7f7f7f;stroke-width:20" id="path5479" d="m 71.146,252.931 c 0,-35.346 88.647,-64 198,-64"/><path style="fill:none;stroke:#fff;stroke-width:30;stroke-linecap:round" id="path5481" d="m 269.146,509.928 c -109.353,0 -198,-28.654 -198,-64"/><line style="fill:none;stroke:#fff;stroke-width:30;stroke-linecap:round" id="line5483" x1="71.146" x2="71.146" y1="121.931" y2="446.928"/><line style="fill:none;stroke:#fff;stroke-width:30;stroke-linecap:round" id="line5485" x1="268.146" x2="268.146" y1="188.931" y2="509.928"/><line style="fill:none;stroke:#7f7f7f;stroke-width:30" id="line5487" x1="268.146" x2="268.146" y1="58.931" y2="188.931"/><path style="fill:none;stroke:#fff;stroke-width:20" id="path5489" d="m 268.146,395.933 c -109.353,0 -198,-28.654 -198,-64"/><path style="fill:none;stroke:#fff;stroke-width:20" id="path5491" d="m 270.146,292.932 c -109.353,0 -198,-28.655 -198,-64"/><path style="fill:none;stroke:#fff;stroke-width:30;stroke-linecap:round" id="path5493" d="m 269.146,185.931 c -109.353,0 -198,-28.654 -198,-64 0,-35.346 88.647,-64 198,-64"/><line style="fill:none;stroke:#fff;stroke-width:30;stroke-linecap:round;stroke-linejoin:round" id="line5495" x1="328.149" x2="519.152" y1="292.935" y2="227.934"/><line style="fill:none;stroke:#fff;stroke-width:30;stroke-linecap:round;stroke-linejoin:round" id="line5497" x1="328.149" x2="519.152" y1="396.936" y2="331.936"/><line style="fill:none;stroke:#fff;stroke-width:20;stroke-linecap:round;stroke-linejoin:round" id="line5499" x1="329.146" x2="515.146" y1="503.928" y2="122.931"/></g></svg>