<svg xmlns="http://www.w3.org/2000/svg" xmlns:svg="http://www.w3.org/2000/svg" id="svg2" width="580" height="580" version="1.0"><defs id="defs22"><marker id="ArrowStart" markerHeight="3" markerUnits="strokeWidth" markerWidth="4" orient="auto" refX="10" refY="5" viewBox="0 0 10 10"><path id="path3568" d="M 10 0 L 0 5 L 10 10 z"/></marker><marker id="ArrowEnd" markerHeight="3" markerUnits="strokeWidth" markerWidth="4" orient="auto" refX="0" refY="5" viewBox="0 0 10 10"><path id="path3565" d="M 0 0 L 10 5 L 0 10 z"/></marker><marker id="marker2959" markerHeight="3" markerUnits="strokeWidth" markerWidth="4" orient="auto" refX="10" refY="5" viewBox="0 0 10 10"><path id="path2626" d="M 10 0 L 0 5 L 10 10 z"/></marker><marker id="marker2956" markerHeight="3" markerUnits="strokeWidth" markerWidth="4" orient="auto" refX="0" refY="5" viewBox="0 0 10 10"><path id="path2623" d="M 0 0 L 10 5 L 0 10 z"/></marker><marker id="marker3077" markerHeight="3" markerUnits="strokeWidth" markerWidth="4" orient="auto" refX="10" refY="5" viewBox="0 0 10 10"><path id="path3298" d="M 10 0 L 0 5 L 10 10 z"/></marker><marker id="marker3074" markerHeight="3" markerUnits="strokeWidth" markerWidth="4" orient="auto" refX="0" refY="5" viewBox="0 0 10 10"><path id="path3295" d="M 0 0 L 10 5 L 0 10 z"/></marker></defs><metadata id="metadata10"/><g id="g1327"><path style="fill:#111;stroke:#eee;stroke-width:3.40799999" id="path1329" d="M 66.275,1.768 C 24.94,1.768 1.704,23.139 1.704,66.804 L 1.704,516.927 C 1.704,557.771 22.598,579.156 63.896,579.156 L 515.92,579.156 C 557.227,579.156 578.149,558.84 578.149,516.927 L 578.149,66.804 C 578.149,24.203 557.227,1.768 514.627,1.768 C 514.624,1.768 66.133,1.625 66.275,1.768 z"/></g><g id="g2319" transform="translate(879.29125,36.805119)"><path id="path2323" style="fill:#fff;stroke:none"/></g><g id="g2325" transform="translate(879.29125,36.805119)"><path id="path2329" style="fill:#fff;stroke:none"/></g><path style="font-size:medium;font-style:normal;font-variant:normal;font-weight:400;font-stretch:normal;text-indent:0;text-align:start;text-decoration:none;line-height:normal;letter-spacing:normal;word-spacing:normal;text-transform:none;direction:ltr;block-progression:tb;writing-mode:lr-tb;text-anchor:start;opacity:.75;color:#000;fill:#fff;fill-opacity:1;stroke:none;stroke-width:50;marker:none;visibility:visible;display:inline;overflow:visible;enable-background:accumulate;font-family:Bitstream Vera Sans;-inkscape-font-specification:Bitstream Vera Sans" id="path2900" d="M 97.6875,138.375 C 92.456765,138.45674 87.300035,140.68383 83.65625,144.4375 C 80.012464,148.19118 77.926326,153.4254 78,158.65625 L 78,178.65625 L 78,187.5 L 68.6875,187.5 C 62.083592,187.4066 55.484286,190.0505 50.78125,194.6875 C 46.078213,199.3245 43.34375,205.89543 43.34375,212.5 C 43.34375,219.10457 46.078213,225.6755 50.78125,230.3125 C 55.484286,234.9495 62.083592,237.5934 68.6875,237.5 L 78,237.5 L 78,313.0625 L 68.6875,313.0625 C 62.083592,312.9691 55.484286,315.613 50.78125,320.25 C 46.078213,324.887 43.34375,331.45793 43.34375,338.0625 C 43.34375,344.66707 46.078213,351.238 50.78125,355.875 C 55.484286,360.512 62.083592,363.1559 68.6875,363.0625 L 78,363.0625 L 78,409.34375 L 78,429.34375 L 78,449.34375 L 118,449.34375 L 118,429.34375 L 118,409.34375 L 118,363.0625 L 212.3125,363.0625 L 212.3125,335 L 212.3125,334 L 212.3125,333 L 387.6875,333 L 387.6875,363.0625 L 474,363.0625 L 474,409.34375 L 474,429.34375 L 474,449.34375 L 514,449.34375 L 514,429.34375 L 514,409.34375 L 514,363.0625 L 520.4375,363.0625 C 527.04141,363.1559 533.64071,360.512 538.34375,355.875 C 543.04679,351.238 545.78125,344.66707 545.78125,338.0625 C 545.78125,331.45793 543.04679,324.887 538.34375,320.25 C 533.64071,315.613 527.04141,312.9691 520.4375,313.0625 L 514,313.0625 L 514,237.5 L 520.4375,237.5 C 527.04141,237.5934 533.64071,234.9495 538.34375,230.3125 C 543.04679,225.6755 545.78125,219.10457 545.78125,212.5 C 545.78125,205.89543 543.04679,199.3245 538.34375,194.6875 C 533.64071,190.0505 527.04141,187.4066 520.4375,187.5 L 514,187.5 L 514,178.65625 L 514,158.65625 C 514.07514,153.32123 511.9007,147.98864 508.125,144.21875 C 504.3493,140.44885 499.02239,138.29164 493.6875,138.375 C 488.45677,138.45674 483.30004,140.68383 479.65625,144.4375 C 476.01247,148.19118 473.92633,153.4254 474,158.65625 L 474,178.65625 L 474,187.5 L 118,187.5 L 118,178.65625 L 118,158.65625 C 118.07514,153.32123 115.9007,147.98864 112.125,144.21875 C 108.3493,140.44885 103.02239,138.29164 97.6875,138.375 z M 118,237.5 L 474,237.5 L 474,313.0625 L 118,313.0625 L 118,237.5 z"/><path style="fill:none;stroke:#fff;stroke-width:50;stroke-linecap:square;stroke-linejoin:miter;stroke-miterlimit:4;stroke-opacity:1;stroke-dasharray:none" id="path4403" d="M 232,468 L 372,468"/><path id="path4405" d="M 240.31579,386 L 359.68421,386" style="fill:none;stroke:#fff;stroke-width:50;stroke-linecap:butt;stroke-linejoin:miter;stroke-miterlimit:4;stroke-opacity:1;stroke-dasharray:none"/></svg>