<svg xmlns="http://www.w3.org/2000/svg" xmlns:svg="http://www.w3.org/2000/svg" id="svg2" width="580" height="580" version="1.0"><metadata id="metadata2975"/><g id="g1327"><path style="fill:#111;stroke:#eee;stroke-width:3.40799999" id="path1329" d="M 66.275,1.768 C 24.94,1.768 1.704,23.139 1.704,66.804 L 1.704,516.927 C 1.704,557.771 22.599,579.156 63.896,579.156 L 515.92,579.156 C 557.227,579.156 578.149,558.841 578.149,516.927 L 578.149,66.804 C 578.149,24.203 557.227,1.768 514.628,1.768 C 514.624,1.768 66.133,1.625 66.275,1.768 z"/></g><g id="g10747" transform="translate(32,66)"><path id="path3264" d="M 477.06925,164.57688 L 48.196494,164.57688 L 97.86424,376.40271 L 427.39502,374.94461 L 477.06925,164.57688 z" style="fill:none;fill-rule:evenodd;stroke:#fff;stroke-width:28.1733551;stroke-linecap:round;stroke-linejoin:round;stroke-miterlimit:4;stroke-dasharray:none;stroke-opacity:1"/><path style="fill:none;fill-rule:evenodd;stroke:#fff;stroke-width:18.7822361;stroke-linecap:round;stroke-linejoin:miter;stroke-miterlimit:4;stroke-dasharray:none;stroke-opacity:1" id="path3268" d="M 128.06871,165.73536 L 128.06871,363.20709"/><path id="path3280" d="M 86.424707,243.00115 L 445.19209,243.00115" style="fill:none;fill-rule:evenodd;stroke:#fff;stroke-width:18.7822361;stroke-linecap:round;stroke-linejoin:miter;stroke-miterlimit:4;stroke-dasharray:none;stroke-opacity:1"/><path id="path3318" d="M 215.1525,165.73536 L 215.1525,363.25095" style="fill:none;fill-rule:evenodd;stroke:#fff;stroke-width:18.7822361;stroke-linecap:round;stroke-linejoin:miter;stroke-miterlimit:4;stroke-dasharray:none;stroke-opacity:1"/><path style="fill:none;fill-rule:evenodd;stroke:#fff;stroke-width:18.7822361;stroke-linecap:round;stroke-linejoin:miter;stroke-miterlimit:4;stroke-dasharray:none;stroke-opacity:1" id="path3320" d="M 306.2363,165.73536 L 306.2363,372.15933"/><path id="path3322" d="M 395.3201,165.73536 L 395.3201,373.5219" style="fill:none;fill-rule:evenodd;stroke:#fff;stroke-width:18.7822361;stroke-linecap:round;stroke-linejoin:miter;stroke-miterlimit:4;stroke-dasharray:none;stroke-opacity:1"/><path style="fill:none;fill-rule:evenodd;stroke:#fff;stroke-width:18.7822361;stroke-linecap:round;stroke-linejoin:miter;stroke-miterlimit:4;stroke-dasharray:none;stroke-opacity:1" id="path3324" d="M 104.24147,322.08495 L 427.37533,322.08495"/></g><path style="fill:#fff;fill-rule:evenodd;stroke:#fff;stroke-width:20;stroke-linecap:round;stroke-linejoin:round;stroke-miterlimit:4;stroke-dasharray:none;stroke-opacity:1" id="path10756" d="M 287.11282,222.95322 L 340.84305,78.558998 L 356.51268,84.389791 L 302.02568,230.81774 L 287.11282,222.95322 z"/></svg>