<svg xmlns="http://www.w3.org/2000/svg" xmlns:svg="http://www.w3.org/2000/svg" xmlns:xlink="http://www.w3.org/1999/xlink" id="svg2" width="580" height="580" version="1.0"><metadata id="metadata2975"/><defs id="defs4"><symbol id="symbol-university" viewBox="244.5 110 489 219.9"><path id="path4460" d="M79,43l57,119c0,0,21-96,104-96s124,106,124,106l43-133l82-17L0,17L79,43z"/><path id="path4462" fill="none" stroke="#000" stroke-width="20" d="M94,176l-21,39"/><path id="path4464" d="M300,19c0,10.5-22.6,19-50.5,19S199,29.5,199,19s22.6-19,50.5-19S300,8.5,300,19z"/><path id="path4466" stroke="#000" stroke-width="20" d="M112,216l-16-38L64,88c0,0-9-8-4-35s16-24,16-24" ill="none"/></symbol><marker style="overflow:visible" id="Arrow2Lend" orient="auto" refX="0" refY="0"><path style="font-size:12;fill-rule:evenodd;stroke-width:.625;stroke-linejoin:round" id="path4137" d="M 8.7185878,4.0337352 L -2.2072895,0.016013256 L 8.7185884,-4.0017078 C 6.9730900,-1.6296469 6.9831476,1.6157441 8.7185878,4.0337352 z" transform="scale(1.1) rotate(180) translate(1,0)"/></marker><marker style="overflow:visible" id="Arrow1Mend" orient="auto" refX="0" refY="0"><path style="fill-rule:evenodd;stroke:#000;stroke-width:1pt;marker-start:none" id="path4125" d="M 0.0,0.0 L 5.0,-5.0 L -12.5,0.0 L 5.0,5.0 L 0.0,0.0 z" transform="scale(0.4) rotate(180) translate(10,0)"/></marker><marker style="overflow:visible" id="TriangleOutL" orient="auto" refX="0" refY="0"><path style="fill-rule:evenodd;stroke:#000;stroke-width:1pt;marker-start:none" id="path4214" d="M 5.77,0.0 L -2.88,5.0 L -2.88,-5.0 L 5.77,0.0 z" transform="scale(0.8)"/></marker><marker style="overflow:visible" id="Arrow1Lend" orient="auto" refX="0" refY="0"><path style="fill-rule:evenodd;stroke:#000;stroke-width:1pt;marker-start:none" id="path4119" d="M 0.0,0.0 L 5.0,-5.0 L -12.5,0.0 L 5.0,5.0 L 0.0,0.0 z" transform="scale(0.8) rotate(180) translate(12.5,0)"/></marker><marker style="overflow:visible" id="Tail" orient="auto" refX="0" refY="0"><g id="g4152" transform="scale(-1.2)"><path style="fill:none;fill-rule:evenodd;stroke:#000;stroke-width:.8;marker-start:none;marker-end:none;stroke-linecap:round" id="path4154" d="M -3.8048674,-3.9585227 L 0.54352094,0"/><path style="fill:none;fill-rule:evenodd;stroke:#000;stroke-width:.8;marker-start:none;marker-end:none;stroke-linecap:round" id="path4156" d="M -1.2866832,-3.9585227 L 3.0617053,0"/><path style="fill:none;fill-rule:evenodd;stroke:#000;stroke-width:.8;marker-start:none;marker-end:none;stroke-linecap:round" id="path4158" d="M 1.3053582,-3.9585227 L 5.6537466,0"/><path style="fill:none;fill-rule:evenodd;stroke:#000;stroke-width:.8;marker-start:none;marker-end:none;stroke-linecap:round" id="path4160" d="M -3.8048674,4.1775838 L 0.54352094,0.21974226"/><path style="fill:none;fill-rule:evenodd;stroke:#000;stroke-width:.8;marker-start:none;marker-end:none;stroke-linecap:round" id="path4162" d="M -1.2866832,4.1775838 L 3.0617053,0.21974226"/><path style="fill:none;fill-rule:evenodd;stroke:#000;stroke-width:.8;marker-start:none;marker-end:none;stroke-linecap:round" id="path4164" d="M 1.3053582,4.1775838 L 5.6537466,0.21974226"/></g></marker><marker style="overflow:visible" id="Arrow1Sstart" orient="auto" refX="0" refY="0"><path style="fill-rule:evenodd;stroke:#000;stroke-width:1pt;marker-start:none" id="path4128" d="M 0.0,0.0 L 5.0,-5.0 L -12.5,0.0 L 5.0,5.0 L 0.0,0.0 z" transform="scale(0.2) translate(6,0)"/></marker><marker style="overflow:visible" id="Arrow1Send" orient="auto" refX="0" refY="0"><path style="fill-rule:evenodd;stroke:#000;stroke-width:1pt;marker-start:none" id="path4131" d="M 0.0,0.0 L 5.0,-5.0 L -12.5,0.0 L 5.0,5.0 L 0.0,0.0 z" transform="scale(0.2) rotate(180) translate(6,0)"/></marker><marker style="overflow:visible" id="SemiCircleOut" orient="auto" refX="0" refY="0"><path style="fill-rule:evenodd;stroke:#000;stroke-width:1pt;marker-start:none;marker-end:none" id="path4235" d="M -2.5,-0.80913858 C -2.5,1.9508614 -4.7400000,4.1908614 -7.5,4.1908614 L -7.5,-5.8091386 C -4.7400000,-5.8091386 -2.5,-3.5691386 -2.5,-0.80913858 z" transform="scale(0.6) translate(7.125493,0.763446)"/></marker><marker style="overflow:visible" id="Arrow2Send" orient="auto" refX="0" refY="0"><path style="font-size:12;fill-rule:evenodd;stroke-width:.625;stroke-linejoin:round" id="path4149" d="M 8.7185878,4.0337352 L -2.2072895,0.016013256 L 8.7185884,-4.0017078 C 6.9730900,-1.6296469 6.9831476,1.6157441 8.7185878,4.0337352 z" transform="scale(0.3) rotate(180) translate(-2.3,0)"/></marker><marker style="overflow:visible" id="TriangleOutS" orient="auto" refX="0" refY="0"><path style="fill-rule:evenodd;stroke:#000;stroke-width:1pt;marker-start:none" id="path4220" d="M 5.77,0.0 L -2.88,5.0 L -2.88,-5.0 L 5.77,0.0 z" transform="scale(0.2)"/></marker><marker style="overflow:visible" id="CurveIn" orient="auto" refX="0" refY="0"><path style="fill-rule:evenodd;stroke:#000;stroke-width:1pt;marker-start:none;marker-end:none;fill:none" id="path4238" d="M 4.6254930,-5.0456926 C 1.8654930,-5.0456926 -0.37450702,-2.8056926 -0.37450702,-0.045692580 C -0.37450702,2.7143074 1.8654930,4.9543074 4.6254930,4.9543074" transform="scale(0.6)"/></marker><marker id="InfiniteLineStart" orient="auto" refX="0" refY="0" style="overflow:visible"><g id="g4298" transform="translate(-13,0)"><circle id="circle4300" cx="3" cy="0" r=".8"/><circle id="circle4302" cx="6.5" cy="0" r=".8"/><circle id="circle4304" cx="10" cy="0" r=".8"/></g></marker><marker style="overflow:visible" id="StopS" orient="auto" refX="0" refY="0"><path style="fill:none;fill-opacity:.75;fill-rule:evenodd;stroke:#000;stroke-width:1pt" id="path4229" d="M 0.0,5.65 L 0.0,-5.65" transform="scale(0.2)"/></marker><marker style="overflow:visible" id="Arrow2Sstart" orient="auto" refX="0" refY="0"><path style="font-size:12;fill-rule:evenodd;stroke-width:.625;stroke-linejoin:round" id="path4146" d="M 8.7185878,4.0337352 L -2.2072895,0.016013256 L 8.7185884,-4.0017078 C 6.9730900,-1.6296469 6.9831476,1.6157441 8.7185878,4.0337352 z" transform="scale(0.3) translate(-2.3,0)"/></marker><marker style="overflow:visible" id="DiamondS" orient="auto" refX="0" refY="0"><path style="fill-rule:evenodd;stroke:#000;stroke-width:1pt;marker-start:none" id="path4202" d="M 0,-7.0710768 L -7.0710894,0 L 0,7.0710589 L 7.0710462,0 L 0,-7.0710768 z" transform="scale(0.2)"/></marker><marker id="RazorWire" orient="auto" refX="0" refY="0">style=&quot;overflow:visible&quot;&gt;<path style="fill:gray;fill-opacity:1;fill-rule:evenodd;stroke:#000;stroke-width:.1pt" id="path4286" d="M 0.022727273,-0.74009011 L 0.022727273,0.69740989 L -7.7585227,3.0099099 L 10.678977,3.0099099 L 3.4914773,0.69740989 L 3.4914773,-0.74009011 L 10.741477,-2.8963401 L -7.7272727,-2.8963401 L 0.022727273,-0.74009011 z" transform="scale(0.8,0.8)"/></marker><marker id="ArrowStart" markerHeight="3" markerUnits="strokeWidth" markerWidth="4" orient="auto" refX="10" refY="5" viewBox="0 0 10 10"><path id="path1968" d="M 10 0 L 0 5 L 10 10 z"/></marker><marker id="ArrowEnd" markerHeight="3" markerUnits="strokeWidth" markerWidth="4" orient="auto" refX="0" refY="5" viewBox="0 0 10 10"><path id="path1965" d="M 0 0 L 10 5 L 0 10 z"/></marker><filter id="ShadowBlur" x="0" y="0" filterUnits="userSpaceOnUse"><feGaussianBlur id="feGaussianBlur6" in="SourceGraphic" stdDeviation="2"/></filter><clipPath id="clipoutline2" clipPathUnits="userSpaceOnUse"><path id="outline2" d="M 55.8,12 L 56.56,12.16 C 65.4,9.22 85.24,20.8 80.82,31.12 C 79.7,32.74 79.89,35.62 81.24,37.43 L 56.43,62.25 C 55.04,60.86 51.95,60.89 50.53,62.25 L 9.5,101.63 C 5.76,105.22 8.7,108.27 10.28,109.88 L 17.64,117.24 C 19.25,118.84 23.5,121 26.52,117.8 L 65.24,76.99 C 66.59,75.57 66.6,72.52 65.24,71.12 C 65.24,71.12 65.25,71.1 65.24,71.1 L 90.15,46.2 C 92.78,48.57 95.263827,48.774854 97.62,48.13 C 102.17057,46.884568 104.70725,51.336643 107.43,54.59 L 106.2,55.8 C 104.38,57.64 104.55,60.74 106.59,62.78 C 108.63,64.82 111.74,64.99 113.56,63.17 L 121.7,55.04 C 123.52,53.2 123.35,50.1 121.3,48.07 C 119.46,46.22 116.79,45.98 114.93,47.3 C 109.35,41.04 112.28,40.1 104.92,31.95 L 91.13,17.86 C 81.2,8.12 68.3,8.13 55.8,12 z"/></clipPath><clipPath id="clipoutline1" clipPathUnits="userSpaceOnUse"><path id="outline1" d="M 22.42,17.2 L 35.38,30.15 L 32.88,38.93 L 24.1,41.43 L 11.14,28.47 L 5.28,34.33 L 20.17,55.79 L 37.73,52.45 L 99.36,118.07 C 108.8,127.58 121.53,113.32 112.7,105.2 L 46.85,42.92 L 50.86,25.16 L 28.72,10.89 L 22.42,17.2 z M 103.48,109.17 C 105.16,107.49 107.88,107.49 109.56,109.17 C 111.24,110.85 111.24,113.57 109.56,115.25 C 107.88,116.92 105.16,116.92 103.48,115.25 C 101.8,113.57 101.8,110.85 103.48,109.17 z"/></clipPath><linearGradient id="lgdg" x1="73.88" x2="84.3" y1="66.2" y2="86.68" gradientTransform="translate(-0.30267,-3.20138)" gradientUnits="userSpaceOnUse" xlink:href="#BlackTransparent"/><linearGradient id="lg55" x1="550.96" x2="655.42" y1="-137.5" y2="-241.2" gradientTransform="matrix(0.26,0,0,0.26,-106.57,101.57)" gradientUnits="userSpaceOnUse" xlink:href="#WhiteTransparent"/><linearGradient id="lg51" x1="646.24" x2="607.66" y1="-252.6" y2="-186.26" gradientTransform="matrix(0.2,0,0,0.2,-80.94,88.3)" gradientUnits="userSpaceOnUse" xlink:href="#WhiteTransparent"/><linearGradient id="lg19" x1="2482.957" x2="2375.498" y1="6145.308" y2="6037.526" gradientUnits="userSpaceOnUse" xlink:href="#BlackTransparent"/><linearGradient id="lg16" x1="577.03" x2="626.1" y1="124" y2="124" gradientTransform="matrix(7.75e-2,7.75e-2,-0.36,0.36,78.84,-44.8)" gradientUnits="userSpaceOnUse" spreadMethod="pad" xlink:href="#WhiteTransparent"/><linearGradient id="lg12" x1="146.15" x2="146.15" y1="288.57" y2="368.27" gradientTransform="matrix(0.3,0.3,-9e-2,9e-2,78.84,-44.8)" gradientUnits="userSpaceOnUse" xlink:href="#WhiteTransparent"/><linearGradient id="lg09" x1="258.96" x2="258.96" y1="62.74" y2="-1.72" gradientTransform="matrix(0.33,0.33,-9.44e-2,9.44e-2,9.03,-48.1)" gradientUnits="userSpaceOnUse" xlink:href="#WhiteTransparent"/><linearGradient id="lg05" x1="543.1" x2="419.88" y1="286.56" y2="286.56" gradientTransform="matrix(9.98e-2,9.98e-2,-0.28,0.28,78.84,-44.8)" gradientUnits="userSpaceOnUse" spreadMethod="pad" xlink:href="#BlackTransparent"/><linearGradient id="lg02" x1="512.7" x2="615.59" y1="254.36" y2="254.83" gradientTransform="matrix(8.07e-2,7.75e-2,-0.35,0.36,77.14,-45.89)" gradientUnits="userSpaceOnUse" xlink:href="#WhiteTransparent"/><linearGradient id="lg1999" x1="637.03" x2="638.3" y1="69.99" y2="118.3" gradientTransform="matrix(0.1,0.1,-0.22,0.2,75.6,-33.53)" gradientUnits="userSpaceOnUse" xlink:href="#WhiteTransparent"/><linearGradient id="BlackTransparent"><stop id="stop4625" offset="0" style="stop-color:black;stop-opacity:1"/><stop id="stop4627" offset="1" style="stop-color:black;stop-opacity:0"/></linearGradient><linearGradient id="WhiteTransparent"><stop id="stop4620" offset="0" style="stop-color:white;stop-opacity:1"/><stop id="stop4622" offset="1" style="stop-color:white;stop-opacity:0"/></linearGradient><linearGradient id="linearGradient4756" x1="73.88" x2="84.3" y1="66.2" y2="86.68" gradientTransform="matrix(5.1645214,0,0,5.1645214,646.72889,-106.63978)" gradientUnits="userSpaceOnUse" xlink:href="#BlackTransparent"/><linearGradient id="linearGradient4765" x1="2482.957" x2="2375.498" y1="6145.308" y2="6037.526" gradientUnits="userSpaceOnUse" xlink:href="#BlackTransparent"/><linearGradient id="linearGradient4767" x1="577.03" x2="626.1" y1="124" y2="124" gradientTransform="matrix(7.75e-2,7.75e-2,-0.36,0.36,78.84,-44.8)" gradientUnits="userSpaceOnUse" spreadMethod="pad" xlink:href="#WhiteTransparent"/><linearGradient id="linearGradient4769" x1="146.15" x2="146.15" y1="288.57" y2="368.27" gradientTransform="matrix(0.3,0.3,-9e-2,9e-2,78.84,-44.8)" gradientUnits="userSpaceOnUse" xlink:href="#WhiteTransparent"/><linearGradient id="linearGradient4771" x1="258.96" x2="258.96" y1="62.74" y2="-1.72" gradientTransform="matrix(0.33,0.33,-9.44e-2,9.44e-2,9.03,-48.1)" gradientUnits="userSpaceOnUse" xlink:href="#WhiteTransparent"/><linearGradient id="linearGradient4773" x1="543.1" x2="419.88" y1="286.56" y2="286.56" gradientTransform="matrix(9.98e-2,9.98e-2,-0.28,0.28,78.84,-44.8)" gradientUnits="userSpaceOnUse" spreadMethod="pad" xlink:href="#BlackTransparent"/><linearGradient id="linearGradient4775" x1="512.7" x2="615.59" y1="254.36" y2="254.83" gradientTransform="matrix(8.07e-2,7.75e-2,-0.35,0.36,77.14,-45.89)" gradientUnits="userSpaceOnUse" xlink:href="#WhiteTransparent"/><linearGradient id="linearGradient4777" x1="637.03" x2="638.3" y1="69.99" y2="118.3" gradientTransform="matrix(0.1,0.1,-0.22,0.2,75.6,-33.53)" gradientUnits="userSpaceOnUse" xlink:href="#WhiteTransparent"/><linearGradient id="linearGradient4780" x1="637.03" x2="638.3" y1="69.99" y2="118.3" gradientTransform="matrix(0.5164521,0.5164521,-1.1361947,1.0329043,1038.7299,-263.27259)" gradientUnits="userSpaceOnUse" xlink:href="#WhiteTransparent"/><linearGradient id="linearGradient4784" x1="512.7" x2="615.59" y1="254.36" y2="254.83" gradientTransform="matrix(0.4167769,0.4002504,-1.8075825,1.8592277,1046.6832,-327.10608)" gradientUnits="userSpaceOnUse" xlink:href="#WhiteTransparent"/><linearGradient id="linearGradient4787" x1="543.1" x2="419.88" y1="286.56" y2="286.56" gradientTransform="matrix(0.5154192,0.5154192,-1.446066,1.446066,1055.4629,-321.47675)" gradientUnits="userSpaceOnUse" spreadMethod="pad" xlink:href="#BlackTransparent"/><linearGradient id="linearGradient4791" x1="258.96" x2="258.96" y1="62.74" y2="-1.72" gradientTransform="matrix(1.7042921,1.7042921,-0.4875308,0.4875308,694.92767,-338.51967)" gradientUnits="userSpaceOnUse" xlink:href="#WhiteTransparent"/><linearGradient id="linearGradient4794" x1="146.15" x2="146.15" y1="288.57" y2="368.27" gradientTransform="matrix(1.5493564,1.5493564,-0.4648069,0.4648069,1055.4629,-321.47675)" gradientUnits="userSpaceOnUse" xlink:href="#WhiteTransparent"/><linearGradient id="linearGradient4798" x1="577.03" x2="626.1" y1="124" y2="124" gradientTransform="matrix(0.4002504,0.4002504,-1.8592277,1.8592277,1055.4629,-321.47675)" gradientUnits="userSpaceOnUse" spreadMethod="pad" xlink:href="#WhiteTransparent"/><linearGradient id="linearGradient4801" x1="2482.957" x2="2375.498" y1="6145.308" y2="6037.526" gradientTransform="matrix(5.1645214,0,0,5.1645214,648.29204,-90.106189)" gradientUnits="userSpaceOnUse" xlink:href="#BlackTransparent"/></defs><g id="g1327"><path style="fill:#111;stroke:#eee;stroke-width:3.40799999" id="path1329" d="M 66.275,1.768 C 24.94,1.768 1.704,23.139 1.704,66.804 L 1.704,516.927 C 1.704,557.771 22.599,579.156 63.896,579.156 L 515.92,579.156 C 557.227,579.156 578.149,558.841 578.149,516.927 L 578.149,66.804 C 578.149,24.203 557.227,1.768 514.628,1.768 C 514.624,1.768 66.133,1.625 66.275,1.768 z"/></g><g id="spanner" transform="matrix(-2.39037,-2.47827,2.47827,-2.39037,402.26708,618.45764)" style="fill:#fff;stroke:#fff;stroke-width:2.34710145;stroke-linecap:round;stroke-linejoin:round;stroke-miterlimit:4;stroke-dasharray:none;stroke-opacity:1"><use id="use4649" width="580" height="580" x="0" y="0" class="outline-big" xlink:href="#outline1" style="fill:#fff;stroke:#fff;stroke-width:2.34710145;stroke-linecap:round;stroke-linejoin:round;stroke-miterlimit:4;stroke-dasharray:none;stroke-opacity:1"/><use id="use4651" width="580" height="580" x="0" y="0" class="outline-small" xlink:href="#outline1" style="fill:#fff;stroke:#fff;stroke-width:2.34710145;stroke-linecap:round;stroke-linejoin:round;stroke-miterlimit:4;stroke-dasharray:none;stroke-opacity:1"/><use id="use4653" width="580" height="580" x="0" y="0" class="aluminium4" xlink:href="#outline1" style="fill:#fff;stroke:#fff;stroke-width:2.34710145;stroke-linecap:round;stroke-linejoin:round;stroke-miterlimit:4;stroke-dasharray:none;stroke-opacity:1"/><use style="fill:#fff;stroke:#fff;stroke-width:2.34710145;stroke-linecap:round;stroke-linejoin:round;stroke-miterlimit:4;stroke-dasharray:none;stroke-opacity:1" id="use4655" width="580" height="580" x="0" y="0" class="stroke-highlight" clip-path="url(#clipoutline1)" xlink:href="#outline1"/><path style="fill:#fff;stroke:#fff;stroke-width:2.34710145;stroke-linecap:round;stroke-linejoin:round;stroke-miterlimit:4;stroke-dasharray:none;stroke-opacity:1" id="path4657" d="M 24.33,15.4 L 37.78,28.78 L 34.45,40.47 L 23.5,43.74 L 9.9319417,30 L 5.2,34.54 L 19.4,54.48 L 38.3,50.34 L 100.8,116.7 C 108.3,125 121,114.03 111.94,105.1 L 45.04,42 L 48.9,24.83 L 28.94,10.8 L 24.33,15.4 z M 104.3,108.7 C 105.97,107.03 108.93,106.7 110.6,108.4 C 112.3,110.07 113.66,113.03 111.25,116.24 C 109.25,118.24 106.05,118.16 104.05,116 C 102.37,114.32 102.6,110.4 104.3,108.7 z" class="high-specularity"/><path style="fill:#fff;stroke:#fff;stroke-width:2.34710145;stroke-linecap:round;stroke-linejoin:round;stroke-miterlimit:4;stroke-dasharray:none;stroke-opacity:1" id="path4659" d="M 24.2,15.42 L 47.67,39.07 L 50.89,25.2 L 28.79,10.8 L 24.2,15.42 z" class="specularity"/></g><use id="use4686" width="580" height="580" x="0" y="0" class="stroke-highlight" clip-path="url(#clipoutline2)" transform="matrix(2.7849965,-2.7934095,2.7934095,2.7849965,-144.60212,251.90736)" xlink:href="#outline2" style="fill:#fff;fill-opacity:1;stroke:#fff;stroke-opacity:1;stroke-width:2.5351542299999998;stroke-miterlimit:4;stroke-dasharray:none;stroke-linejoin:round;stroke-linecap:round"/></svg>