<svg xmlns="http://www.w3.org/2000/svg" xmlns:svg="http://www.w3.org/2000/svg" id="svg2" width="580" height="580" version="1.0"><metadata id="metadata2975"/><defs id="defs4"><symbol id="symbol-university" viewBox="244.5 110 489 219.9"><path id="path4460" d="M79,43l57,119c0,0,21-96,104-96s124,106,124,106l43-133l82-17L0,17L79,43z"/><path id="path4462" fill="none" stroke="#000" stroke-width="20" d="M94,176l-21,39"/><path id="path4464" d="M300,19c0,10.5-22.6,19-50.5,19S199,29.5,199,19s22.6-19,50.5-19S300,8.5,300,19z"/><path id="path4466" stroke="#000" stroke-width="20" d="M112,216l-16-38L64,88c0,0-9-8-4-35s16-24,16-24" ill="none"/></symbol><marker style="overflow:visible" id="Arrow2Lend" orient="auto" refX="0" refY="0"><path style="font-size:12;fill-rule:evenodd;stroke-width:.625;stroke-linejoin:round" id="path4137" d="M 8.7185878,4.0337352 L -2.2072895,0.016013256 L 8.7185884,-4.0017078 C 6.9730900,-1.6296469 6.9831476,1.6157441 8.7185878,4.0337352 z" transform="scale(1.1) rotate(180) translate(1,0)"/></marker><marker style="overflow:visible" id="Arrow1Mend" orient="auto" refX="0" refY="0"><path style="fill-rule:evenodd;stroke:#000;stroke-width:1pt;marker-start:none" id="path4125" d="M 0.0,0.0 L 5.0,-5.0 L -12.5,0.0 L 5.0,5.0 L 0.0,0.0 z" transform="scale(0.4) rotate(180) translate(10,0)"/></marker><marker style="overflow:visible" id="TriangleOutL" orient="auto" refX="0" refY="0"><path style="fill-rule:evenodd;stroke:#000;stroke-width:1pt;marker-start:none" id="path4214" d="M 5.77,0.0 L -2.88,5.0 L -2.88,-5.0 L 5.77,0.0 z" transform="scale(0.8)"/></marker><marker style="overflow:visible" id="Arrow1Lend" orient="auto" refX="0" refY="0"><path style="fill-rule:evenodd;stroke:#000;stroke-width:1pt;marker-start:none" id="path4119" d="M 0.0,0.0 L 5.0,-5.0 L -12.5,0.0 L 5.0,5.0 L 0.0,0.0 z" transform="scale(0.8) rotate(180) translate(12.5,0)"/></marker><marker style="overflow:visible" id="Tail" orient="auto" refX="0" refY="0"><g id="g4152" transform="scale(-1.2)"><path style="fill:none;fill-rule:evenodd;stroke:#000;stroke-width:.8;marker-start:none;marker-end:none;stroke-linecap:round" id="path4154" d="M -3.8048674,-3.9585227 L 0.54352094,0"/><path style="fill:none;fill-rule:evenodd;stroke:#000;stroke-width:.8;marker-start:none;marker-end:none;stroke-linecap:round" id="path4156" d="M -1.2866832,-3.9585227 L 3.0617053,0"/><path style="fill:none;fill-rule:evenodd;stroke:#000;stroke-width:.8;marker-start:none;marker-end:none;stroke-linecap:round" id="path4158" d="M 1.3053582,-3.9585227 L 5.6537466,0"/><path style="fill:none;fill-rule:evenodd;stroke:#000;stroke-width:.8;marker-start:none;marker-end:none;stroke-linecap:round" id="path4160" d="M -3.8048674,4.1775838 L 0.54352094,0.21974226"/><path style="fill:none;fill-rule:evenodd;stroke:#000;stroke-width:.8;marker-start:none;marker-end:none;stroke-linecap:round" id="path4162" d="M -1.2866832,4.1775838 L 3.0617053,0.21974226"/><path style="fill:none;fill-rule:evenodd;stroke:#000;stroke-width:.8;marker-start:none;marker-end:none;stroke-linecap:round" id="path4164" d="M 1.3053582,4.1775838 L 5.6537466,0.21974226"/></g></marker><marker style="overflow:visible" id="Arrow1Sstart" orient="auto" refX="0" refY="0"><path style="fill-rule:evenodd;stroke:#000;stroke-width:1pt;marker-start:none" id="path4128" d="M 0.0,0.0 L 5.0,-5.0 L -12.5,0.0 L 5.0,5.0 L 0.0,0.0 z" transform="scale(0.2) translate(6,0)"/></marker><marker style="overflow:visible" id="Arrow1Send" orient="auto" refX="0" refY="0"><path style="fill-rule:evenodd;stroke:#000;stroke-width:1pt;marker-start:none" id="path4131" d="M 0.0,0.0 L 5.0,-5.0 L -12.5,0.0 L 5.0,5.0 L 0.0,0.0 z" transform="scale(0.2) rotate(180) translate(6,0)"/></marker><marker style="overflow:visible" id="SemiCircleOut" orient="auto" refX="0" refY="0"><path style="fill-rule:evenodd;stroke:#000;stroke-width:1pt;marker-start:none;marker-end:none" id="path4235" d="M -2.5,-0.80913858 C -2.5,1.9508614 -4.7400000,4.1908614 -7.5,4.1908614 L -7.5,-5.8091386 C -4.7400000,-5.8091386 -2.5,-3.5691386 -2.5,-0.80913858 z" transform="scale(0.6) translate(7.125493,0.763446)"/></marker><marker style="overflow:visible" id="Arrow2Send" orient="auto" refX="0" refY="0"><path style="font-size:12;fill-rule:evenodd;stroke-width:.625;stroke-linejoin:round" id="path4149" d="M 8.7185878,4.0337352 L -2.2072895,0.016013256 L 8.7185884,-4.0017078 C 6.9730900,-1.6296469 6.9831476,1.6157441 8.7185878,4.0337352 z" transform="scale(0.3) rotate(180) translate(-2.3,0)"/></marker><marker style="overflow:visible" id="TriangleOutS" orient="auto" refX="0" refY="0"><path style="fill-rule:evenodd;stroke:#000;stroke-width:1pt;marker-start:none" id="path4220" d="M 5.77,0.0 L -2.88,5.0 L -2.88,-5.0 L 5.77,0.0 z" transform="scale(0.2)"/></marker><marker style="overflow:visible" id="CurveIn" orient="auto" refX="0" refY="0"><path style="fill-rule:evenodd;stroke:#000;stroke-width:1pt;marker-start:none;marker-end:none;fill:none" id="path4238" d="M 4.6254930,-5.0456926 C 1.8654930,-5.0456926 -0.37450702,-2.8056926 -0.37450702,-0.045692580 C -0.37450702,2.7143074 1.8654930,4.9543074 4.6254930,4.9543074" transform="scale(0.6)"/></marker><marker id="InfiniteLineStart" orient="auto" refX="0" refY="0" style="overflow:visible"><g id="g4298" transform="translate(-13,0)"><circle id="circle4300" cx="3" cy="0" r=".8" d="M 3.8,0 C 3.8,0.44182781 3.4418278,0.80000001 3,0.80000001 2.5581722,0.80000001 2.2,0.44182781 2.2,0 c 0,-0.44182781 0.3581722,-0.80000001 0.8,-0.80000001 0.4418278,0 0.8,0.3581722 0.8,0.80000001 z"/><circle id="circle4302" cx="6.5" cy="0" r=".8" d="M 7.3,0 C 7.3,0.44182781 6.9418278,0.80000001 6.5,0.80000001 6.0581722,0.80000001 5.7,0.44182781 5.7,0 c 0,-0.44182781 0.3581722,-0.80000001 0.8,-0.80000001 0.4418278,0 0.8,0.3581722 0.8,0.80000001 z"/><circle id="circle4304" cx="10" cy="0" r=".8" d="M 10.8,0 C 10.8,0.44182781 10.441828,0.80000001 10,0.80000001 9.5581722,0.80000001 9.2,0.44182781 9.2,0 c 0,-0.44182781 0.3581722,-0.80000001 0.8,-0.80000001 0.441828,0 0.8,0.3581722 0.8,0.80000001 z"/></g></marker><marker style="overflow:visible" id="StopS" orient="auto" refX="0" refY="0"><path style="fill:none;fill-opacity:.75;fill-rule:evenodd;stroke:#000;stroke-width:1pt" id="path4229" d="M 0.0,5.65 L 0.0,-5.65" transform="scale(0.2)"/></marker><marker style="overflow:visible" id="Arrow2Sstart" orient="auto" refX="0" refY="0"><path style="font-size:12;fill-rule:evenodd;stroke-width:.625;stroke-linejoin:round" id="path4146" d="M 8.7185878,4.0337352 L -2.2072895,0.016013256 L 8.7185884,-4.0017078 C 6.9730900,-1.6296469 6.9831476,1.6157441 8.7185878,4.0337352 z" transform="scale(0.3) translate(-2.3,0)"/></marker><marker style="overflow:visible" id="DiamondS" orient="auto" refX="0" refY="0"><path style="fill-rule:evenodd;stroke:#000;stroke-width:1pt;marker-start:none" id="path4202" d="M 0,-7.0710768 L -7.0710894,0 L 0,7.0710589 L 7.0710462,0 L 0,-7.0710768 z" transform="scale(0.2)"/></marker><marker id="RazorWire" orient="auto" refX="0" refY="0">style=&quot;overflow:visible&quot;&gt;<path style="fill:gray;fill-opacity:1;fill-rule:evenodd;stroke:#000;stroke-width:.1pt" id="path4286" d="M 0.022727273,-0.74009011 L 0.022727273,0.69740989 L -7.7585227,3.0099099 L 10.678977,3.0099099 L 3.4914773,0.69740989 L 3.4914773,-0.74009011 L 10.741477,-2.8963401 L -7.7272727,-2.8963401 L 0.022727273,-0.74009011 z" transform="scale(0.8,0.8)"/></marker><marker id="ArrowStart" markerHeight="3" markerUnits="strokeWidth" markerWidth="4" orient="auto" refX="10" refY="5" viewBox="0 0 10 10"><path id="path1968" d="M 10 0 L 0 5 L 10 10 z"/></marker><marker id="ArrowEnd" markerHeight="3" markerUnits="strokeWidth" markerWidth="4" orient="auto" refX="0" refY="5" viewBox="0 0 10 10"><path id="path1965" d="M 0 0 L 10 5 L 0 10 z"/></marker></defs><g id="g1327"><path style="fill:#111;stroke:#eee;stroke-width:3.40799999" id="path1329" d="M 66.275,1.768 C 24.94,1.768 1.704,23.139 1.704,66.804 L 1.704,516.927 C 1.704,557.771 22.599,579.156 63.896,579.156 L 515.92,579.156 C 557.227,579.156 578.149,558.841 578.149,516.927 L 578.149,66.804 C 578.149,24.203 557.227,1.768 514.628,1.768 C 514.624,1.768 66.133,1.625 66.275,1.768 z"/></g><circle id="circle5739" cx="18.94" cy="152.353" r=".764" d="m 19.704001,152.353 c 0,0.42194 -0.342055,0.764 -0.764,0.764 -0.421946,0 -0.764,-0.34206 -0.764,-0.764 0,-0.42195 0.342054,-0.764 0.764,-0.764 0.421945,0 0.764,0.34205 0.764,0.764 z" transform="matrix(57.208547,0,0,57.208547,-862.80914,-8592.0905)" style="fill:#fff"/><path id="path5741" d="m 59.50705,406.41348 c 10.24033,0 20.0802,-2.34555 28.89032,-6.29294 9.03895,-4.17622 19.27928,-6.63619 29.86286,-6.63619 10.58358,0 20.82391,2.45997 29.80566,6.63619 8.86732,3.94739 18.7644,6.23573 29.11915,6.23573 10.29753,0 20.19461,-2.28834 29.00473,-6.23573 8.98174,-4.17622 19.22207,-6.63619 29.86286,-6.63619 10.64079,0 20.7667,2.45997 29.86286,6.63619 8.75291,3.94739 18.70721,6.23573 29.00471,6.23573 10.2976,0 20.2519,-2.28834 29.0048,-6.23573 9.0961,-4.17622 19.2792,-6.63619 29.92,-6.63619 10.6408,0 20.7667,2.45997 29.8057,6.63619 8.8673,3.94739 18.7644,6.23573 29.0619,6.23573 10.3548,0 20.1946,-2.28834 29.062,-6.23573 8.9817,-4.17622 19.222,-6.63619 29.8056,-6.63619 9.0962,0 17.9063,1.71626 25.9155,4.86273 12.9863,-14.18772 20.9955,-33.06654 20.9955,-53.71883 0,-44.05058 -35.6409,-79.6915 -79.6343,-79.6915 l -8.9245,0.97254 c -9.7827,39.70273 -49.4854,41.41899 -49.4854,41.41899 l -181.80876,-0.0572 -15.21747,-8.92453 36.67068,-61.49919 40.10319,23.16946 c 24.02756,15.56073 36.55626,-6.23573 36.55626,-6.23573 l 40.2176,-65.56099 c 17.5058,-28.48986 -19.6225,-51.31607 -36.9567,-22.7118 l -28.14662,45.99567 -66.934,-37.01393 c -46.39613,-25.85826 -66.01866,16.99094 -66.01866,16.99094 l -52.57466,90.04626 c -8.92453,18.70719 -0.97254,26.7736 -0.97254,26.7736 l -25.97268,-0.0572 v 98.16986 z" style="fill:#fff"/><path id="path5743" d="m 530.5622,493.37047 c -10.2975,0 -20.1946,-2.28834 -28.9475,-6.23573 -9.0962,-4.17622 -19.2793,-6.63619 -29.9201,-6.63619 -10.6408,0 -20.8239,2.45997 -29.8056,6.63619 -8.8673,3.94739 -18.7072,6.23573 -29.062,6.23573 -10.2975,0 -20.1946,-2.28834 -29.0619,-6.23573 -9.039,-4.17622 -19.2221,-6.63619 -29.8057,-6.63619 -10.698,0 -20.8239,2.45997 -29.92,6.63619 -8.7529,3.94739 -18.7072,6.23573 -29.0048,6.23573 -10.2975,0 -20.25178,-2.28834 -29.00469,-6.23573 -9.09616,-4.17622 -19.27928,-6.63619 -29.86286,-6.63619 -10.698,0 -20.88112,2.45997 -29.86286,6.63619 -8.81012,3.94739 -18.7072,6.23573 -29.00474,6.23573 -10.35474,0 -20.25182,-2.28834 -29.11915,-6.23573 -8.98174,-4.17622 -19.22207,-6.63619 -29.80565,-6.63619 -10.58358,0 -20.82391,2.45997 -29.86286,6.63619 -8.81012,3.94739 -18.7072,6.23573 -29.00474,6.23573 v -43.47849 c 10.29754,0 20.19462,-2.34555 29.00474,-6.29294 9.03895,-4.17623 19.27928,-6.63619 29.86286,-6.63619 10.58358,0 20.82391,2.45996 29.80565,6.63619 8.86733,3.94739 18.76441,6.29294 29.11915,6.29294 10.29754,0 20.19462,-2.34555 29.00474,-6.29294 8.98174,-4.17623 19.22207,-6.63619 29.86286,-6.63619 10.64079,0 20.7667,2.45996 29.86286,6.63619 8.75291,3.94739 18.70719,6.29294 29.00469,6.29294 10.2976,0 20.2519,-2.34555 29.0048,-6.29294 9.0961,-4.17623 19.2793,-6.63619 29.92,-6.63619 10.6408,0 20.7667,2.45996 29.8057,6.63619 8.8673,3.94739 18.7644,6.29294 29.0619,6.29294 10.3548,0 20.1947,-2.34555 29.062,-6.29294 8.9817,-4.17623 19.2221,-6.63619 29.8056,-6.63619 10.698,0 20.8239,2.45996 29.9201,6.63619 8.7529,3.94739 18.65,6.29294 28.9475,6.29294 v 43.47849 z" style="fill:#fff"/></svg>