<svg xmlns="http://www.w3.org/2000/svg" xmlns:svg="http://www.w3.org/2000/svg" id="svg2" width="580" height="580" version="1.0"><metadata id="metadata2975"/><defs id="defs4"><symbol id="symbol-university" viewBox="244.5 110 489 219.9"><path id="path4460" d="M79,43l57,119c0,0,21-96,104-96s124,106,124,106l43-133l82-17L0,17L79,43z"/><path id="path4462" fill="none" stroke="#000" stroke-width="20" d="M94,176l-21,39"/><path id="path4464" d="M300,19c0,10.5-22.6,19-50.5,19S199,29.5,199,19s22.6-19,50.5-19S300,8.5,300,19z"/><path id="path4466" stroke="#000" stroke-width="20" d="M112,216l-16-38L64,88c0,0-9-8-4-35s16-24,16-24" ill="none"/></symbol></defs><g id="g1327"><path style="fill:#111;stroke:#eee;stroke-width:3.40799999" id="path1329" d="M 66.275,1.768 C 24.94,1.768 1.704,23.139 1.704,66.804 L 1.704,516.927 C 1.704,557.771 22.599,579.156 63.896,579.156 L 515.92,579.156 C 557.227,579.156 578.149,558.841 578.149,516.927 L 578.149,66.804 C 578.149,24.203 557.227,1.768 514.628,1.768 C 514.624,1.768 66.133,1.625 66.275,1.768 z"/></g><g id="g11108" transform="matrix(1.6413845,0,0,1.6413845,-169.66007,733.43926)"><circle style="fill:#fff" id="circle5993" cx="22.254" cy="304.478" r=".694" d="M 22.948,304.478 C 22.948,304.86128 22.637285,305.172 22.254,305.172 C 21.870714,305.172 21.56,304.86128 21.56,304.478 C 21.56,304.09471 21.870714,303.784 22.254,303.784 C 22.637285,303.784 22.948,304.09471 22.948,304.478 z" transform="matrix(39.813911,0,0,39.813911,-491.40772,-12515.876)"/><path style="fill:#fff" id="path5995" d="M 316.09802,-130.00717 H 387.48437 C 387.48437,-130.00717 392.89906,-129.44978 392.89906,-135.10335 V -140.75693 H 403.44974 C 403.44974,-140.75693 405.87839,-121.44718 391.46576,-119.61574 H 316.09802 V -130.00717 z"/><path style="fill:#fff" id="path5997" d="M 138.0104,-185.18925 L 188.53425,-134.70521 C 188.53425,-134.70521 191.91843,-130.56457 195.93964,-134.50614 L 199.96084,-138.52735 L 207.40605,-131.04233 C 207.40605,-131.04233 195.42206,-115.63435 183.95565,-124.51285 L 130.72445,-177.78386 L 138.0104,-185.18925 z"/><path style="fill:#fff" id="path5999" d="M 332.89949,-202.787 L 332.97912,-152.74091 C 332.97912,-143.34483 340.58358,-135.70056 350.05929,-135.70056 C 358.65909,-135.70056 367.05983,-145.65404 367.05983,-152.74091 V -222.37544 C 367.05983,-227.23274 365.02932,-231.61227 361.76458,-234.75757 L 320.91551,-275.4872 L 375.10224,-329.67394 C 385.2946,-342.37457 379.91972,-357.6233 379.91972,-357.6233 C 374.26615,-374.54421 355.11566,-375.10161 355.11566,-375.10161 L 215.40864,-375.14142 C 207.96344,-375.14142 201.91173,-369.12952 201.91173,-361.64451 C 201.91173,-354.15949 207.96344,-348.14759 215.40864,-348.14759 L 311.87775,-347.98833 L 271.22775,-307.5374 C 265.41491,-301.60513 262.46868,-294.91639 262.46868,-286.15733 C 262.46868,-277.7566 265.81305,-270.27158 271.387,-264.77726 L 332.89949,-202.787 z"/><path style="fill:#fff" id="path6001" d="M 262.74738,-257.21262 C 261.47334,-258.44685 260.27892,-259.80052 259.20394,-261.27364 L 178.62059,-180.53102 C 172.52906,-175.63391 170.53836,-166.99429 174.20124,-159.78798 C 178.3817,-151.5465 188.53425,-148.28176 196.77573,-152.50203 C 197.89052,-153.09924 198.92568,-153.77608 199.88122,-154.57235 L 282.61452,-237.4251 L 262.74738,-257.21262 z"/></g></svg>