<svg xmlns="http://www.w3.org/2000/svg" xmlns:svg="http://www.w3.org/2000/svg" id="svg2" width="580" height="580" version="1.0"><metadata id="metadata2975"/><defs id="defs4"><symbol id="symbol-university" viewBox="244.5 110 489 219.9"><path id="path4460" d="M79,43l57,119c0,0,21-96,104-96s124,106,124,106l43-133l82-17L0,17L79,43z"/><path id="path4462" fill="none" stroke="#000" stroke-width="20" d="M94,176l-21,39"/><path id="path4464" d="M300,19c0,10.5-22.6,19-50.5,19S199,29.5,199,19s22.6-19,50.5-19S300,8.5,300,19z"/><path id="path4466" stroke="#000" stroke-width="20" d="M112,216l-16-38L64,88c0,0-9-8-4-35s16-24,16-24" ill="none"/></symbol><marker style="overflow:visible" id="Arrow2Lend" orient="auto" refX="0" refY="0"><path style="font-size:12;fill-rule:evenodd;stroke-width:.625;stroke-linejoin:round" id="path4137" d="M 8.7185878,4.0337352 L -2.2072895,0.016013256 L 8.7185884,-4.0017078 C 6.9730900,-1.6296469 6.9831476,1.6157441 8.7185878,4.0337352 z" transform="scale(1.1) rotate(180) translate(1,0)"/></marker><marker style="overflow:visible" id="Arrow1Mend" orient="auto" refX="0" refY="0"><path style="fill-rule:evenodd;stroke:#000;stroke-width:1pt;marker-start:none" id="path4125" d="M 0.0,0.0 L 5.0,-5.0 L -12.5,0.0 L 5.0,5.0 L 0.0,0.0 z" transform="scale(0.4) rotate(180) translate(10,0)"/></marker><marker style="overflow:visible" id="TriangleOutL" orient="auto" refX="0" refY="0"><path style="fill-rule:evenodd;stroke:#000;stroke-width:1pt;marker-start:none" id="path4214" d="M 5.77,0.0 L -2.88,5.0 L -2.88,-5.0 L 5.77,0.0 z" transform="scale(0.8)"/></marker><marker style="overflow:visible" id="Arrow1Lend" orient="auto" refX="0" refY="0"><path style="fill-rule:evenodd;stroke:#000;stroke-width:1pt;marker-start:none" id="path4119" d="M 0.0,0.0 L 5.0,-5.0 L -12.5,0.0 L 5.0,5.0 L 0.0,0.0 z" transform="scale(0.8) rotate(180) translate(12.5,0)"/></marker><marker style="overflow:visible" id="Tail" orient="auto" refX="0" refY="0"><g id="g4152" transform="scale(-1.2)"><path style="fill:none;fill-rule:evenodd;stroke:#000;stroke-width:.8;marker-start:none;marker-end:none;stroke-linecap:round" id="path4154" d="M -3.8048674,-3.9585227 L 0.54352094,0"/><path style="fill:none;fill-rule:evenodd;stroke:#000;stroke-width:.8;marker-start:none;marker-end:none;stroke-linecap:round" id="path4156" d="M -1.2866832,-3.9585227 L 3.0617053,0"/><path style="fill:none;fill-rule:evenodd;stroke:#000;stroke-width:.8;marker-start:none;marker-end:none;stroke-linecap:round" id="path4158" d="M 1.3053582,-3.9585227 L 5.6537466,0"/><path style="fill:none;fill-rule:evenodd;stroke:#000;stroke-width:.8;marker-start:none;marker-end:none;stroke-linecap:round" id="path4160" d="M -3.8048674,4.1775838 L 0.54352094,0.21974226"/><path style="fill:none;fill-rule:evenodd;stroke:#000;stroke-width:.8;marker-start:none;marker-end:none;stroke-linecap:round" id="path4162" d="M -1.2866832,4.1775838 L 3.0617053,0.21974226"/><path style="fill:none;fill-rule:evenodd;stroke:#000;stroke-width:.8;marker-start:none;marker-end:none;stroke-linecap:round" id="path4164" d="M 1.3053582,4.1775838 L 5.6537466,0.21974226"/></g></marker><marker style="overflow:visible" id="Arrow1Sstart" orient="auto" refX="0" refY="0"><path style="fill-rule:evenodd;stroke:#000;stroke-width:1pt;marker-start:none" id="path4128" d="M 0.0,0.0 L 5.0,-5.0 L -12.5,0.0 L 5.0,5.0 L 0.0,0.0 z" transform="scale(0.2) translate(6,0)"/></marker><marker style="overflow:visible" id="Arrow1Send" orient="auto" refX="0" refY="0"><path style="fill-rule:evenodd;stroke:#000;stroke-width:1pt;marker-start:none" id="path4131" d="M 0.0,0.0 L 5.0,-5.0 L -12.5,0.0 L 5.0,5.0 L 0.0,0.0 z" transform="scale(0.2) rotate(180) translate(6,0)"/></marker><marker style="overflow:visible" id="SemiCircleOut" orient="auto" refX="0" refY="0"><path style="fill-rule:evenodd;stroke:#000;stroke-width:1pt;marker-start:none;marker-end:none" id="path4235" d="M -2.5,-0.80913858 C -2.5,1.9508614 -4.7400000,4.1908614 -7.5,4.1908614 L -7.5,-5.8091386 C -4.7400000,-5.8091386 -2.5,-3.5691386 -2.5,-0.80913858 z" transform="scale(0.6) translate(7.125493,0.763446)"/></marker><marker style="overflow:visible" id="Arrow2Send" orient="auto" refX="0" refY="0"><path style="font-size:12;fill-rule:evenodd;stroke-width:.625;stroke-linejoin:round" id="path4149" d="M 8.7185878,4.0337352 L -2.2072895,0.016013256 L 8.7185884,-4.0017078 C 6.9730900,-1.6296469 6.9831476,1.6157441 8.7185878,4.0337352 z" transform="scale(0.3) rotate(180) translate(-2.3,0)"/></marker><marker style="overflow:visible" id="TriangleOutS" orient="auto" refX="0" refY="0"><path style="fill-rule:evenodd;stroke:#000;stroke-width:1pt;marker-start:none" id="path4220" d="M 5.77,0.0 L -2.88,5.0 L -2.88,-5.0 L 5.77,0.0 z" transform="scale(0.2)"/></marker><marker style="overflow:visible" id="CurveIn" orient="auto" refX="0" refY="0"><path style="fill-rule:evenodd;stroke:#000;stroke-width:1pt;marker-start:none;marker-end:none;fill:none" id="path4238" d="M 4.6254930,-5.0456926 C 1.8654930,-5.0456926 -0.37450702,-2.8056926 -0.37450702,-0.045692580 C -0.37450702,2.7143074 1.8654930,4.9543074 4.6254930,4.9543074" transform="scale(0.6)"/></marker><marker id="InfiniteLineStart" orient="auto" refX="0" refY="0" style="overflow:visible"><g id="g4298" transform="translate(-13,0)"><circle id="circle4300" cx="3" cy="0" r=".8"/><circle id="circle4302" cx="6.5" cy="0" r=".8"/><circle id="circle4304" cx="10" cy="0" r=".8"/></g></marker><marker style="overflow:visible" id="StopS" orient="auto" refX="0" refY="0"><path style="fill:none;fill-opacity:.75;fill-rule:evenodd;stroke:#000;stroke-width:1pt" id="path4229" d="M 0.0,5.65 L 0.0,-5.65" transform="scale(0.2)"/></marker><marker style="overflow:visible" id="Arrow2Sstart" orient="auto" refX="0" refY="0"><path style="font-size:12;fill-rule:evenodd;stroke-width:.625;stroke-linejoin:round" id="path4146" d="M 8.7185878,4.0337352 L -2.2072895,0.016013256 L 8.7185884,-4.0017078 C 6.9730900,-1.6296469 6.9831476,1.6157441 8.7185878,4.0337352 z" transform="scale(0.3) translate(-2.3,0)"/></marker><marker style="overflow:visible" id="DiamondS" orient="auto" refX="0" refY="0"><path style="fill-rule:evenodd;stroke:#000;stroke-width:1pt;marker-start:none" id="path4202" d="M 0,-7.0710768 L -7.0710894,0 L 0,7.0710589 L 7.0710462,0 L 0,-7.0710768 z" transform="scale(0.2)"/></marker><marker id="RazorWire" orient="auto" refX="0" refY="0">style=&quot;overflow:visible&quot;&gt;<path style="fill:gray;fill-opacity:1;fill-rule:evenodd;stroke:#000;stroke-width:.1pt" id="path4286" d="M 0.022727273,-0.74009011 L 0.022727273,0.69740989 L -7.7585227,3.0099099 L 10.678977,3.0099099 L 3.4914773,0.69740989 L 3.4914773,-0.74009011 L 10.741477,-2.8963401 L -7.7272727,-2.8963401 L 0.022727273,-0.74009011 z" transform="scale(0.8,0.8)"/></marker></defs><g id="g1327"><path style="fill:#111;stroke:#eee;stroke-width:3.40799999" id="path1329" d="M 66.275,1.768 C 24.94,1.768 1.704,23.139 1.704,66.804 L 1.704,516.927 C 1.704,557.771 22.599,579.156 63.896,579.156 L 515.92,579.156 C 557.227,579.156 578.149,558.841 578.149,516.927 L 578.149,66.804 C 578.149,24.203 557.227,1.768 514.628,1.768 C 514.624,1.768 66.133,1.625 66.275,1.768 z"/></g><path style="fill-rule:evenodd;stroke:none;stroke-width:.18338014;stroke-miterlimit:10;fill:#fff;fill-opacity:1" id="path10456" d="M 291.6875 37.21875 C 143.19033 37.21875 22.65625 151.99467 22.65625 293.40625 C 22.65625 434.81273 143.18524 549.5625 291.6875 549.5625 C 440.18977 549.5625 560.71877 434.81272 560.71875 293.40625 C 560.71875 151.99468 440.18469 37.218751 291.6875 37.21875 z M 271.5 58.5 L 327.625 104.90625 L 312.78125 164.125 L 250.4375 193.09375 L 171.5625 172.1875 L 159.84375 123.96875 L 190.09375 78.3125 L 271.5 58.5 z M 411.25 83.25 L 483.5 142.5 L 463.15625 216.59375 L 397.125 226.46875 L 335.34375 164.6875 L 345.21875 108.5625 L 411.25 83.25 z M 151.21875 94.25 C 148.65143 104.33591 146.07144 114.44535 143.6875 124.53125 L 107.375 133.875 C 110.30908 128.55698 114.00512 123.61575 118.40625 119.03125 C 122.25723 114.07999 126.28395 109.28848 131.96875 105.4375 C 137.65353 101.03637 143.33342 97.550847 151.21875 94.25 z M 162.78125 191.46875 L 235.5625 211.8125 L 254.09375 290.65625 L 178.1875 349.34375 L 112.15625 347.5 L 95.46875 259.84375 L 162.78125 191.46875 z M 472.3125 236.1875 L 509.34375 298.5625 L 458.1875 383.09375 L 394 377.03125 L 370.53125 323.3125 L 409.96875 247.375 L 472.3125 236.1875 z M 36.78125 257.46875 L 75.125 269.75 L 95.46875 354.84375 L 70.71875 399.40625 C 64.850589 401.78509 59.336915 395.55027 53.46875 382.71875 C 47.050446 368.78185 38.434082 340.71784 35.5 319.8125 C 32.749296 298.71868 32.930267 278.1907 36.78125 257.46875 z M 544.03125 291.75 C 544.21466 313.0221 542.54672 330.99653 539.0625 349.15625 C 534.84475 367.1224 528.60483 383.45288 522.375 396.65625 C 516.14519 409.121 510.44544 417.94433 503.84375 423.8125 L 474.15625 389.3125 L 526.03125 301.65625 L 544.03125 291.75 z M 268.75 305.875 L 351.46875 327.53125 L 377.875 389.6875 L 332.21875 449.65625 L 229.15625 428.03125 L 195.21875 360.15625 L 268.75 305.875 z M 220.71875 443.40625 L 330.03125 462.6875 L 361.375 510.71875 L 353.5 531.8125 C 338.27944 534.02323 322.85209 535.66449 306.53125 536.03125 C 289.66029 536.39803 271.69583 536.01621 255.375 534.1875 C 237.95388 531.62017 221.80777 527.0271 207.6875 522.4375 C 193.56723 517.49135 182.75452 512.00381 173.21875 505.21875 L 171.9375 480.46875 L 220.71875 443.40625 z"/><path style="opacity:.20192309;fill:#fff;fill-rule:evenodd;stroke:#000;stroke-width:.18338014;stroke-miterlimit:10" id="path10544" stroke-miterlimit="10" d="M 151.21755,94.265209 C 143.33221,97.566052 137.64742,101.05027 131.96264,105.4514 C 126.27785,109.30238 122.24349,114.07027 118.39251,119.02153 C 113.99138,123.60603 110.32378,128.5573 107.3897,133.87532 L 143.69897,124.52293 L 143.69897,124.52293 C 146.08291,114.43703 148.65023,104.35112 151.21755,94.265209 z" clip-rule="evenodd"/><path style="opacity:.20192309;fill:#fff;fill-rule:evenodd;stroke:#000;stroke-width:.18338014;stroke-miterlimit:10" id="path10546" stroke-miterlimit="10" d="M 190.09415,78.311135 L 271.51493,58.506079 L 327.62926,104.90126 L 312.77547,164.13305 L 250.42622,193.10711 L 171.57275,172.20177 L 159.83642,123.97279 L 190.09415,78.311135 z" clip-rule="evenodd"/><path style="opacity:.20192309;fill:#fff;fill-rule:evenodd;stroke:#000;stroke-width:.18338014;stroke-miterlimit:10" id="path10548" stroke-miterlimit="10" d="M 345.23376,108.56886 L 335.33632,164.68319 L 397.1303,226.4823 L 463.1472,216.57977 L 483.5024,142.49419 L 411.2506,83.2624 L 345.23376,108.56886 z" clip-rule="evenodd"/><path style="opacity:.20192309;fill:#fff;fill-rule:evenodd;stroke:#000;stroke-width:.18338014;stroke-miterlimit:10" id="path10550" stroke-miterlimit="10" d="M 409.9669,247.38764 L 472.3162,236.20145 L 509.359,298.5507 L 458.1959,383.08895 L 394.0129,377.03741 L 370.5453,323.30193 L 409.9669,247.38764 z" clip-rule="evenodd"/><path style="opacity:.20192309;fill:#fff;fill-rule:evenodd;stroke:#000;stroke-width:.18338014;stroke-miterlimit:10" id="path10552" stroke-miterlimit="10" d="M 503.8576,423.79935 L 474.15,389.32388 L 526.0466,301.66307 L 544.0178,291.76564 C 544.2012,313.03773 542.5508,331.0039 539.0666,349.16362 C 534.8488,367.12979 528.6088,383.45571 522.379,396.65908 C 516.1492,409.12384 510.4593,417.93118 503.8576,423.79935 z" clip-rule="evenodd"/><path style="opacity:.20192309;fill:#fff;fill-rule:evenodd;stroke:#000;stroke-width:.18338014;stroke-miterlimit:10" id="path10554" stroke-miterlimit="10" d="M 195.22879,360.16643 L 268.76423,305.88591 L 351.46868,327.52477 L 377.8754,389.69573 L 332.21377,449.65595 L 229.15412,428.01709 L 195.22879,360.16643 z" clip-rule="evenodd"/><path style="opacity:.20192309;fill:#fff;fill-rule:evenodd;stroke:#000;stroke-width:.18338014;stroke-miterlimit:10" id="path10556" stroke-miterlimit="10" d="M 353.48586,531.80517 C 338.26531,534.01591 322.86138,535.65615 306.54054,536.02291 C 289.66957,536.38967 271.69831,536.02291 255.37748,534.1942 C 237.95637,531.62688 221.81891,527.04238 207.69864,522.45278 C 193.57837,517.50661 182.75894,512.0052 173.22317,505.22014 L 171.93951,480.45872 L 220.71863,443.42102 L 330.0183,462.68103 L 361.3712,510.72664 L 353.48586,531.80517 z" clip-rule="evenodd"/><path style="opacity:.20192309;fill:#fff;fill-rule:evenodd;stroke:#000;stroke-width:.18338014;stroke-miterlimit:10" id="path10558" stroke-miterlimit="10" d="M 95.46999,259.85749 L 162.7705,191.45669 L 235.57242,211.81189 L 254.09382,290.66536 L 178.17444,349.3521 L 112.15758,347.5132 L 95.46999,259.85749 z" clip-rule="evenodd"/><path style="opacity:.20192309;fill:#fff;fill-rule:evenodd;stroke:#000;stroke-width:.18338014;stroke-miterlimit:10" id="path10560" stroke-miterlimit="10" d="M 70.71367,399.41488 C 64.8455,401.79373 59.3441,395.55371 53.47593,382.72219 C 47.05763,368.7853 38.43876,340.72814 35.50468,319.8228 C 32.75397,298.72899 32.93735,278.1955 36.78834,257.47355 L 75.11479,269.76002 L 95.46999,354.8535 L 70.71367,399.41488 z" clip-rule="evenodd"/></svg>