<svg xmlns="http://www.w3.org/2000/svg" xmlns:svg="http://www.w3.org/2000/svg" xmlns:xlink="http://www.w3.org/1999/xlink" id="svg2" width="580" height="580" version="1.0"><metadata id="metadata2975"/><defs id="defs4"><symbol id="symbol-university" viewBox="244.5 110 489 219.9"><path id="path4460" d="M79,43l57,119c0,0,21-96,104-96s124,106,124,106l43-133l82-17L0,17L79,43z"/><path id="path4462" fill="none" stroke="#000" stroke-width="20" d="M94,176l-21,39"/><path id="path4464" d="M300,19c0,10.5-22.6,19-50.5,19S199,29.5,199,19s22.6-19,50.5-19S300,8.5,300,19z"/><path id="path4466" stroke="#000" stroke-width="20" d="M112,216l-16-38L64,88c0,0-9-8-4-35s16-24,16-24" ill="none"/></symbol><radialGradient id="radialGradient874" cx="180.245" cy="198.419" r="101.58" fx="180.245" fy="198.419" gradientTransform="scale(0.79354273,1.2601716)" gradientUnits="userSpaceOnUse" xlink:href="#linearGradient829"/><linearGradient id="linearGradient829"><stop style="stop-color:#fff;stop-opacity:.341667" id="stop830" offset="0"/><stop style="stop-color:#fff;stop-opacity:0" id="stop831" offset="1"/></linearGradient><radialGradient id="radialGradient832" cx="360.851" cy="167.474" r="46.395" fx="360.851" fy="167.474" gradientTransform="scale(1.007004,0.99304475)" gradientUnits="userSpaceOnUse" xlink:href="#linearGradient829"/><linearGradient id="linearGradient6826"><stop style="stop-color:#fff;stop-opacity:.341667" id="stop6828" offset="0"/><stop style="stop-color:#fff;stop-opacity:0" id="stop6830" offset="1"/></linearGradient><linearGradient id="linearGradient850" x1="465.294" x2="463.271" y1="248.245" y2="405.769" gradientTransform="scale(0.74491357,1.3424376)" gradientUnits="userSpaceOnUse" spreadMethod="pad" xlink:href="#linearGradient855"/><linearGradient id="linearGradient855"><stop style="stop-color:#fff;stop-opacity:0" id="stop856" offset="0"/><stop style="stop-color:#ffa617;stop-opacity:.733333" id="stop857" offset="1"/></linearGradient><linearGradient id="linearGradient854" x1="157.806" x2="155.406" y1="120.962" y2="231.635" gradientTransform="scale(1.4586159,0.68558144)" gradientUnits="userSpaceOnUse" xlink:href="#linearGradient855"/><linearGradient id="linearGradient6837"><stop style="stop-color:#fff;stop-opacity:0" id="stop6839" offset="0"/><stop style="stop-color:#ffa617;stop-opacity:.733333" id="stop6841" offset="1"/></linearGradient><clipPath id="clipoutline2" clipPathUnits="userSpaceOnUse"><path id="outline2" d="m 55.8,12 0.76,0.16 c 8.84,-2.94 28.68,8.64 24.26,18.96 -1.12,1.62 -0.93,4.5 0.42,6.31 L 56.43,62.25 c -1.39,-1.39 -4.48,-1.36 -5.9,0 L 9.5,101.63 c -3.74,3.59 -0.8,6.64 0.78,8.25 l 7.36,7.36 c 1.61,1.6 5.86,3.76 8.88,0.56 L 65.24,76.99 c 1.35,-1.42 1.36,-4.47 0,-5.87 0,0 0.01,-0.02 0,-0.02 L 90.15,46.2 c 2.63,2.37 5.113827,2.574854 7.47,1.93 4.55057,-1.245432 7.08725,3.206643 9.81,6.46 l -1.23,1.21 c -1.82,1.84 -1.65,4.94 0.39,6.98 2.04,2.04 5.15,2.21 6.97,0.39 l 8.14,-8.13 c 1.82,-1.84 1.65,-4.94 -0.4,-6.97 -1.84,-1.85 -4.51,-2.09 -6.37,-0.77 -5.58,-6.26 -2.65,-7.2 -10.01,-15.35 L 91.13,17.86 C 81.2,8.12 68.3,8.13 55.8,12 z"/></clipPath></defs><g id="g1327"><path style="fill:#111;stroke:#eee;stroke-width:3.40799999" id="path1329" d="M 66.275,1.768 C 24.94,1.768 1.704,23.139 1.704,66.804 L 1.704,516.927 C 1.704,557.771 22.599,579.156 63.896,579.156 L 515.92,579.156 C 557.227,579.156 578.149,558.841 578.149,516.927 L 578.149,66.804 C 578.149,24.203 557.227,1.768 514.628,1.768 C 514.624,1.768 66.133,1.625 66.275,1.768 z"/></g><rect id="rect2311" width="178.953" height="35.047" x="32.726" y="437.771" style="fill:#fff"/><rect id="rect2313" width="178.953" height="35.047" x="32.726" y="384.72" style="fill:#fff"/><rect id="rect2315" width="178.953" height="35.047" x="32.726" y="331.539" style="fill:#fff"/><rect id="rect2317" width="178.953" height="35.047" x="32.726" y="278.296" style="fill:#fff"/><path id="path2319" d="M 284.07932,100.11271 C 280.81166,92.360036 273.05897,86.849853 264.15299,86.849853 l -28.76823,0.128144 V 472.7543 H 371.66547 L 284.07932,100.11271 z" style="fill:#fff"/><rect id="rect2321" width="178.953" height="34.919" x="32.726" y="225.244" style="fill:#fff"/><rect id="rect2323" width="178.953" height="35.047" x="32.726" y="172.065" style="fill:#fff"/><rect id="rect2325" width="178.953" height="35.047" x="32.726" y="118.885" style="fill:#fff"/><path id="path2327" d="m 388.32414,442.25613 c 2.62695,0.51257 5.25388,0.76886 7.88083,0.76886 6.98382,0 13.64729,-1.60179 19.5419,-4.22874 6.15089,-2.88324 12.87843,-4.48503 20.11854,-4.48503 7.11197,0 13.90358,1.60179 20.05447,4.48503 5.89461,2.62695 12.62216,4.22874 19.5419,4.22874 6.91976,0 13.51915,-1.60179 19.5419,-4.22874 6.02275,-2.88324 12.87844,-4.48503 20.05447,-4.48503 7.17605,0 14.03173,1.60179 20.11856,4.48503 5.8946,2.62695 12.49399,4.22874 19.54189,4.22874 v 29.15266 c -6.98383,0 -13.64729,-1.47365 -19.54189,-4.10059 -6.1509,-2.88323 -13.00659,-4.48503 -20.11856,-4.48503 -7.11196,0 -14.03172,1.6018 -20.05447,4.48503 -6.02275,2.62694 -12.62214,4.10059 -19.5419,4.10059 -6.91974,0 -13.64729,-1.47365 -19.5419,-4.10059 -6.15089,-2.88323 -12.87843,-4.48503 -20.05447,-4.48503 -7.24011,0 -14.03173,1.6018 -20.11854,4.48503 -5.89461,2.62694 -12.494,4.10059 -19.5419,4.10059 -0.38443,0 -0.76886,0 -1.1533,0 l -6.72753,-29.92152 z" style="fill:#fff"/><path id="path2329" d="m 376.66307,385.04001 c 6.02275,2.62695 12.62214,4.22874 19.5419,4.22874 6.98382,0 13.64729,-1.60179 19.5419,-4.22874 6.15089,-2.88323 12.87843,-4.48502 20.11854,-4.48502 7.11197,0 13.90358,1.60179 20.05447,4.48502 5.89461,2.62695 12.62216,4.22874 19.5419,4.22874 6.91976,0 13.51915,-1.60179 19.5419,-4.22874 6.02275,-2.88323 12.87844,-4.48502 20.05447,-4.48502 7.17605,0 14.03173,1.60179 20.11856,4.48502 5.8946,2.62695 12.49399,4.22874 19.54189,4.22874 v 29.15267 c -6.98383,0 -13.64729,-1.47365 -19.54189,-4.1006 -6.1509,-2.88323 -13.00659,-4.48502 -20.11856,-4.48502 -7.11196,0 -14.03172,1.60179 -20.05447,4.48502 -6.02275,2.62695 -12.62214,4.1006 -19.5419,4.1006 -6.91974,0 -13.64729,-1.47365 -19.5419,-4.1006 -6.15089,-2.88323 -12.87843,-4.48502 -20.05447,-4.48502 -7.24011,0 -14.03173,1.60179 -20.11854,4.48502 -5.89461,2.62695 -12.494,4.1006 -19.5419,4.1006 -4.22874,0 -8.39341,-0.51258 -12.36586,-1.6018 l -7.17604,-31.77961 z" style="fill:#fff"/></svg>