<svg xmlns="http://www.w3.org/2000/svg" xmlns:svg="http://www.w3.org/2000/svg" id="svg2" width="580" height="580" version="1.0"><metadata id="metadata2975"/><g id="g1327"><path style="fill:#111;stroke:#eee;stroke-width:3.40799999" id="path1329" d="M 66.275,1.768 C 24.94,1.768 1.704,23.139 1.704,66.804 L 1.704,516.927 C 1.704,557.771 22.599,579.156 63.896,579.156 L 515.92,579.156 C 557.227,579.156 578.149,558.841 578.149,516.927 L 578.149,66.804 C 578.149,24.203 557.227,1.768 514.628,1.768 C 514.624,1.768 66.133,1.625 66.275,1.768 z"/></g><path style="fill:#fff;fill-opacity:1;fill-rule:evenodd;stroke:#fff;stroke-width:18.62236595;stroke-linecap:round;stroke-linejoin:round;stroke-miterlimit:4;stroke-dasharray:none;stroke-opacity:1" id="path3407" d="M 85.437235,125.05685 C 85.437236,125.05685 41.418849,463.35286 234.35797,462.61634 C 239.06615,462.87529 243.54307,462.94955 247.80099,462.87822 C 252.05891,462.94955 256.53583,462.87529 261.24401,462.61634 C 454.18314,463.35286 410.16476,125.05685 410.16475,125.05685 L 247.80099,125.72609 L 85.437235,125.05685 z"/><path style="fill:none;fill-rule:evenodd;stroke:#fff;stroke-width:45.62662125;stroke-linecap:butt;stroke-linejoin:miter;stroke-miterlimit:4;stroke-dasharray:none;stroke-opacity:1" id="path3409" d="M 387.14691,197.01015 C 387.14691,197.01015 432.10304,162.99107 467.64668,162.99107 C 503.19055,162.99107 519.49033,218.37096 518.73421,255.55454 C 517.97787,292.73815 490.75292,383.71961 358.40927,385.30186 C 226.06585,386.88412 387.90303,197.01015 387.14691,197.01015 z"/></svg>