<svg xmlns="http://www.w3.org/2000/svg" xmlns:svg="http://www.w3.org/2000/svg" id="svg2" width="580" height="580" version="1.0"><metadata id="metadata10"/><defs id="defs4"><style id="style6" type="text/css"/></defs><g id="g1327"><path id="path1329" d="M 66.275,1.768 C 24.94,1.768 1.704,23.139 1.704,66.804 L 1.704,516.927 C 1.704,557.771 22.598,579.156 63.896,579.156 L 515.92,579.156 C 557.227,579.156 578.149,558.84 578.149,516.927 L 578.149,66.804 C 578.149,24.203 557.227,1.768 514.627,1.768 C 514.624,1.768 66.133,1.625 66.275,1.768 z" style="fill:#111;stroke:#eee;stroke-width:3.40799999"/></g><g style="stroke:#fff;stroke-opacity:1" id="g7869" transform="matrix(1.4035676,0,0,1.4035676,482.70151,-226.81019)"><path style="fill:none;stroke:#fff;stroke-width:27.80254744999999872;stroke-linecap:round;stroke-linejoin:round;stroke-miterlimit:4;stroke-opacity:1;stroke-dasharray:none" id="path5183" d="m -279.31217,527.08594 58.38535,-303.04776 73.67675,-2.7807 44.48407,300.2675"/><path style="fill:none;stroke:#fff;stroke-width:27.80254744999999872;stroke-linecap:round;stroke-linejoin:round;stroke-miterlimit:4;stroke-opacity:1;stroke-dasharray:none" id="path5189" d="m -286.2628,222.64805 -1.21975,82.01751 116.60032,-5.5605 L 8.4441909,218.47767 -286.2628,222.64805 z"/><path style="fill:none;stroke:#fff;stroke-width:13.90127372999999977;stroke-linecap:butt;stroke-linejoin:miter;stroke-miterlimit:4;stroke-opacity:1;stroke-dasharray:none" id="path5191" d="m -272.36153,489.5525 152.91401,-51.43471 -120.94108,-59.77548 108.42993,-55.60509"/><path style="fill:none;stroke:#fff;stroke-width:12.2930002199999997;stroke-linecap:round;stroke-linejoin:round;stroke-miterlimit:4;stroke-opacity:1;stroke-dasharray:none" id="path5193" d="m 18.175082,217.05133 0,204.68937"/><path style="fill:none;stroke:#fff;stroke-width:22.24203681999999915px;stroke-linecap:round;stroke-linejoin:round;stroke-opacity:1" id="path5199" d="m 16.784955,411.70537 c 0,0 7.157265,27.85726 4.170382,43.09395 -2.986883,15.23668 -45.874202,-5.56051 -45.874202,-5.56051"/></g></svg>