<svg xmlns="http://www.w3.org/2000/svg" xmlns:svg="http://www.w3.org/2000/svg" id="svg2" width="580" height="580" version="1.0"><metadata id="metadata10"/><defs id="defs4"><style id="style6" type="text/css"/></defs><g id="g1327"><path id="path1329" d="M 66.275,1.768 C 24.94,1.768 1.704,23.139 1.704,66.804 L 1.704,516.927 C 1.704,557.771 22.598,579.156 63.896,579.156 L 515.92,579.156 C 557.227,579.156 578.149,558.84 578.149,516.927 L 578.149,66.804 C 578.149,24.203 557.227,1.768 514.627,1.768 C 514.624,1.768 66.133,1.625 66.275,1.768 z" style="fill:#111;stroke:#eee;stroke-width:3.40799999"/></g><path id="path3831" d="M 96.374372,94.415061 156.93802,154.97876" style="fill:none;stroke:#fff;stroke-width:80;stroke-linecap:round;stroke-linejoin:miter;stroke-miterlimit:4;stroke-opacity:1;stroke-dasharray:none"/><path style="fill:none;stroke:#fff;stroke-width:80;stroke-linecap:round;stroke-linejoin:miter;stroke-miterlimit:4;stroke-opacity:1;stroke-dasharray:none" id="path3833" d="M 479.85476,94.415061 419.29111,154.97876"/><path style="fill:none;stroke:#fff;stroke-width:80;stroke-linecap:round;stroke-linejoin:miter;stroke-miterlimit:4;stroke-opacity:1;stroke-dasharray:none" id="path3837" d="m 96.374372,475.54806 60.563648,-60.5637"/><path id="path3839" d="m 479.85476,475.54806 -60.56365,-60.5637" style="fill:none;stroke:#fff;stroke-width:80;stroke-linecap:round;stroke-linejoin:miter;stroke-miterlimit:4;stroke-opacity:1;stroke-dasharray:none"/><path id="path3852" d="m 88,1083.5 a 45.5,45.5 0 1 1 -91,0 45.5,45.5 0 1 1 91,0 z" transform="matrix(3.754397,0,0,3.754397,129.09096,-3785.1688)" style="fill:none;stroke:#fff;stroke-width:15.98126144;stroke-linecap:round;stroke-linejoin:round;stroke-miterlimit:4;stroke-opacity:1;stroke-dasharray:none;stroke-dashoffset:0"/><path id="path3907" d="m 491.94531,288.67201 -22.2254,0" style="fill:none;stroke:#fff;stroke-width:80;stroke-linecap:round;stroke-linejoin:miter;stroke-miterlimit:4;stroke-opacity:1;stroke-dasharray:none"/><path style="fill:none;stroke:#fff;stroke-width:80;stroke-linecap:round;stroke-linejoin:miter;stroke-miterlimit:4;stroke-opacity:1;stroke-dasharray:none" id="path3909" d="m 109.94531,288.67201 -22.2254,0"/><path style="fill:none;stroke:#fff;stroke-width:80;stroke-linecap:round;stroke-linejoin:miter;stroke-miterlimit:4;stroke-opacity:1;stroke-dasharray:none" id="path3911" d="m 290.83261,463.55931 0,22.2254"/><path id="path3913" d="m 290.83261,79.55931 0,22.2254" style="fill:none;stroke:#fff;stroke-width:80;stroke-linecap:round;stroke-linejoin:miter;stroke-miterlimit:4;stroke-opacity:1;stroke-dasharray:none"/><path style="fill:#fff;stroke:#fff;stroke-width:15.981261440000001;stroke-linecap:round;stroke-linejoin:round;stroke-miterlimit:4;stroke-opacity:1;stroke-dasharray:none;stroke-dashoffset:0;fill-opacity:1;opacity:.1" id="path3921" d="m 88,1083.5 a 45.5,45.5 0 1 1 -91,0 45.5,45.5 0 1 1 91,0 z" transform="matrix(3.754397,0,0,3.754397,129.09096,-3785.1688)"/></svg>