<svg xmlns="http://www.w3.org/2000/svg" xmlns:svg="http://www.w3.org/2000/svg" id="svg2" width="580" height="580" version="1.0"><metadata id="metadata10"/><defs id="defs4"><style id="style6" type="text/css"/></defs><g id="g1327"><path id="path1329" d="M 66.275,1.768 C 24.94,1.768 1.704,23.139 1.704,66.804 L 1.704,516.927 C 1.704,557.771 22.598,579.156 63.896,579.156 L 515.92,579.156 C 557.227,579.156 578.149,558.84 578.149,516.927 L 578.149,66.804 C 578.149,24.203 557.227,1.768 514.627,1.768 C 514.624,1.768 66.133,1.625 66.275,1.768 z" style="fill:#111;stroke:#eee;stroke-width:3.40799999"/></g><path style="fill:none;fill-opacity:.75;fill-rule:evenodd;stroke:#fff;stroke-width:19.809278490000001;stroke-linecap:round;stroke-linejoin:round;stroke-miterlimit:4;stroke-opacity:1" id="path1686" d="M 292.54222,132.60258 C 292.54222,132.90911 292.54222,93.21567 292.54222,93.5222 C 292.54222,117.85531 276.20952,369.78441 172.11187,508.73738"/><path style="fill:none;fill-opacity:.75;fill-rule:evenodd;stroke:#fff;stroke-width:19.809278490000001;stroke-linecap:round;stroke-linejoin:round;stroke-miterlimit:4;stroke-opacity:1" id="path2308" d="M 292.2498,132.14279 C 292.2498,132.44933 292.2498,92.75589 292.2498,93.06242 C 292.2498,117.39547 308.5825,369.32463 412.68011,508.27769"/><path style="opacity:1;fill:none;fill-rule:evenodd;stroke:#fff;stroke-width:12.53017044;stroke-linecap:round;stroke-linejoin:miter;stroke-miterlimit:4;stroke-dasharray:none;stroke-opacity:1" id="path3758" d="M 317.84839,284.64087 L 249.34445,348.05373"/><path id="path3768" d="M 267.37692,284.64087 L 335.88086,348.05373" style="opacity:1;fill:none;fill-rule:evenodd;stroke:#fff;stroke-width:12.53017044;stroke-linecap:round;stroke-linejoin:miter;stroke-miterlimit:4;stroke-dasharray:none;stroke-opacity:1"/><path id="path3770" d="M 262.86852,347.87329 L 370.09962,447.13518" style="opacity:1;fill:none;fill-rule:evenodd;stroke:#fff;stroke-width:15.42174816;stroke-linecap:round;stroke-linejoin:miter;stroke-miterlimit:4;stroke-dasharray:none;stroke-opacity:1"/><path style="opacity:1;fill:none;fill-rule:evenodd;stroke:#fff;stroke-width:15.42174816;stroke-linecap:round;stroke-linejoin:miter;stroke-miterlimit:4;stroke-dasharray:none;stroke-opacity:1" id="path3772" d="M 322.01303,347.87329 L 214.78193,447.13518"/><path style="fill:none;fill-rule:evenodd;stroke:#fff;stroke-width:10;stroke-linecap:butt;stroke-linejoin:miter;stroke-miterlimit:4;stroke-dasharray:none;stroke-opacity:1;opacity:.5" id="path3804" d="M 294.39906,90.807 C 167.11984,171.41717 35.59798,89.39278 35.59798,89.39278"/><path id="path3806" d="M 550.39906,92.807 C 423.11984,173.41717 291.59798,91.39278 291.59798,91.39278" style="fill:none;fill-rule:evenodd;stroke:#fff;stroke-width:10;stroke-linecap:butt;stroke-linejoin:miter;stroke-miterlimit:4;stroke-dasharray:none;stroke-opacity:1;opacity:.5"/><path id="path3812" d="M 294.39906,130.807 C 167.11984,211.41717 35.59798,129.39278 35.59798,129.39278" style="fill:none;fill-rule:evenodd;stroke:#fff;stroke-width:10;stroke-linecap:butt;stroke-linejoin:miter;stroke-miterlimit:4;stroke-dasharray:none;stroke-opacity:1;opacity:.5"/><path style="fill:none;fill-rule:evenodd;stroke:#fff;stroke-width:10;stroke-linecap:butt;stroke-linejoin:miter;stroke-miterlimit:4;stroke-dasharray:none;stroke-opacity:1;opacity:.5" id="path3814" d="M 550.39906,132.807 C 423.11984,213.41717 291.59798,131.39278 291.59798,131.39278"/><path style="fill:none;fill-rule:evenodd;stroke:#fff;stroke-width:10;stroke-linecap:butt;stroke-linejoin:miter;stroke-miterlimit:4;stroke-dasharray:none;stroke-opacity:1;opacity:.5" id="path3816" d="M 294.39906,170.807 C 167.11984,251.41717 35.59798,169.39278 35.59798,169.39278"/><path id="path3818" d="M 550.39906,172.807 C 423.11984,253.41717 291.59798,171.39278 291.59798,171.39278" style="fill:none;fill-rule:evenodd;stroke:#fff;stroke-width:10;stroke-linecap:butt;stroke-linejoin:miter;stroke-miterlimit:4;stroke-dasharray:none;stroke-opacity:1;opacity:.5"/></svg>