<svg xmlns="http://www.w3.org/2000/svg" xmlns:svg="http://www.w3.org/2000/svg" id="svg2" width="580" height="580" version="1.0"><metadata id="metadata10"/><defs id="defs4"><style id="style6" type="text/css"/></defs><g id="g1327"><path id="path1329" d="M 66.275,1.768 C 24.94,1.768 1.704,23.139 1.704,66.804 L 1.704,516.927 C 1.704,557.771 22.598,579.156 63.896,579.156 L 515.92,579.156 C 557.227,579.156 578.149,558.84 578.149,516.927 L 578.149,66.804 C 578.149,24.203 557.227,1.768 514.627,1.768 C 514.624,1.768 66.133,1.625 66.275,1.768 z" style="fill:#111;stroke:#eee;stroke-width:3.40799999"/></g><path style="fill:#fff;fill-opacity:1;fill-rule:nonzero;stroke:#fff;stroke-width:1.25;stroke-linecap:round;stroke-miterlimit:4;stroke-opacity:1" id="path1061" d="M 358.45099,388.88488 A 11.516535,11.516535 0 1 1 358.45208,388.75969" transform="matrix(2.1230164,0,0,1.7621071,-435.4189,-539.85832)"/><path style="fill:none;fill-opacity:.75;fill-rule:evenodd;stroke:#fff;stroke-width:19.80927849;stroke-linecap:round;stroke-linejoin:miter;stroke-miterlimit:4;stroke-opacity:1" id="path1686" d="M 300.54222,162.60258 C 300.54222,162.90911 300.54222,163.21567 300.54222,163.5222 C 300.54222,187.85531 284.20952,399.78441 180.11187,538.73738"/><path style="fill:none;fill-opacity:.75;fill-rule:evenodd;stroke:#fff;stroke-width:19.80927849;stroke-linecap:round;stroke-linejoin:miter;stroke-miterlimit:4;stroke-opacity:1" id="path2308" d="M 300.2498,162.14279 C 300.2498,162.44933 300.2498,162.75589 300.2498,163.06242 C 300.2498,187.39547 316.5825,399.32463 420.68011,538.27769"/><path style="fill:none;fill-opacity:1;fill-rule:nonzero;stroke:#fff;stroke-width:12.499156;stroke-linecap:round;stroke-miterlimit:4;stroke-dasharray:none;stroke-opacity:1" id="path4190" d="M 659.80826,385.01245 A 377.16653,377.16653 0 0 1 621.99133,977.71708" transform="matrix(0.4194127,0,0,0.376063,150.18538,-103.88221)"/><path style="fill:none;fill-opacity:1;fill-rule:nonzero;stroke:#fff;stroke-width:12.499156;stroke-linecap:round;stroke-linejoin:miter;marker:none;marker-start:none;marker-mid:none;marker-end:none;stroke-miterlimit:4;stroke-dasharray:none;stroke-dashoffset:0;stroke-opacity:1;visibility:visible;display:block" id="path4196" d="M 559.42058,478.0061 A 240.40767,240.40767 0 0 1 534.50785,872.37959" transform="matrix(0.4194127,0,0,0.376063,149.65944,-103.51218)"/><path style="fill:none;fill-opacity:1;fill-rule:nonzero;stroke:#fff;stroke-width:12.499156;stroke-linecap:round;stroke-linejoin:miter;marker:none;marker-start:none;marker-mid:none;marker-end:none;stroke-miterlimit:4;stroke-dasharray:none;stroke-dashoffset:0;stroke-opacity:1;visibility:visible;display:block" id="path4198" d="M 485.29511,571.71763 A 120.92362,120.92362 0 0 1 472.76415,770.08514" transform="matrix(0.4201693,0,0,0.3487427,149.38752,-87.84677)"/><path style="fill:none;fill-opacity:1;fill-rule:nonzero;stroke:#fff;stroke-width:12.499156;stroke-linecap:round;stroke-miterlimit:4;stroke-dasharray:none;stroke-opacity:1" id="path4209" d="M 659.80826,385.01245 A 377.16653,377.16653 0 0 1 621.99133,977.71708" transform="matrix(-0.4194127,0,0,0.376063,455.72073,-103.66646)"/><path style="fill:none;fill-opacity:1;fill-rule:nonzero;stroke:#fff;stroke-width:12.499156;stroke-linecap:round;stroke-linejoin:miter;marker:none;marker-start:none;marker-mid:none;marker-end:none;stroke-miterlimit:4;stroke-dasharray:none;stroke-dashoffset:0;stroke-opacity:1;visibility:visible;display:block" id="path4210" d="M 559.42058,478.0061 A 240.40767,240.40767 0 0 1 534.50785,872.37959" transform="matrix(-0.4194127,0,0,0.376063,456.24791,-103.29644)"/><path style="fill:none;fill-opacity:1;fill-rule:nonzero;stroke:#fff;stroke-width:12.499156;stroke-linecap:round;stroke-linejoin:miter;marker:none;marker-start:none;marker-mid:none;marker-end:none;stroke-miterlimit:4;stroke-dasharray:none;stroke-dashoffset:0;stroke-opacity:1;visibility:visible;display:block" id="path4212" d="M 485.29511,571.71763 A 120.92362,120.92362 0 0 1 472.76415,770.08514" transform="matrix(-0.4201693,0,0,0.3487427,456.52906,-87.64671)"/><path style="opacity:1;fill:none;fill-rule:evenodd;stroke:#fff;stroke-width:12.53017044;stroke-linecap:round;stroke-linejoin:miter;stroke-miterlimit:4;stroke-dasharray:none;stroke-opacity:1" id="path3758" d="M 325.84839,314.64087 L 257.34445,378.05373"/><path id="path3768" d="M 275.37692,314.64087 L 343.88086,378.05373" style="opacity:1;fill:none;fill-rule:evenodd;stroke:#fff;stroke-width:12.53017044;stroke-linecap:round;stroke-linejoin:miter;stroke-miterlimit:4;stroke-dasharray:none;stroke-opacity:1"/><path id="path3770" d="M 270.86852,377.87329 L 378.09962,477.13518" style="opacity:1;fill:none;fill-rule:evenodd;stroke:#fff;stroke-width:15.42174816;stroke-linecap:round;stroke-linejoin:miter;stroke-miterlimit:4;stroke-dasharray:none;stroke-opacity:1"/><path style="opacity:1;fill:none;fill-rule:evenodd;stroke:#fff;stroke-width:15.42174816;stroke-linecap:round;stroke-linejoin:miter;stroke-miterlimit:4;stroke-dasharray:none;stroke-opacity:1" id="path3772" d="M 330.01303,377.87329 L 222.78193,477.13518"/></svg>