<svg xmlns="http://www.w3.org/2000/svg" xmlns:svg="http://www.w3.org/2000/svg" id="svg2" width="580" height="580" version="1.0"><metadata id="metadata2975"/><g id="g1327"><path style="fill:#111;stroke:#eee;stroke-width:3.40799999" id="path1329" d="M 66.275,1.768 C 24.94,1.768 1.704,23.139 1.704,66.804 L 1.704,516.927 C 1.704,557.771 22.599,579.156 63.896,579.156 L 515.92,579.156 C 557.227,579.156 578.149,558.841 578.149,516.927 L 578.149,66.804 C 578.149,24.203 557.227,1.768 514.628,1.768 C 514.624,1.768 66.133,1.625 66.275,1.768 z"/></g><path id="path837" d="M 206.82827,474.90828 L 95.95377,474.90828 L 150.87037,534.74412 L 206.82827,474.90828 z" style="fill:#fff;fill-opacity:1;fill-rule:evenodd;stroke:none;stroke-width:22.61511803;stroke-linecap:round;stroke-linejoin:round;stroke-dasharray:none;stroke-opacity:.58139535"/><rect style="opacity:1;fill:#fff;fill-opacity:1;stroke:#fff;stroke-width:18.41136932;stroke-linecap:square;stroke-miterlimit:4;stroke-dasharray:none;stroke-dashoffset:0;stroke-opacity:1" id="rect4101" width="413.886" height="20.555" x="84.472" y="113.207" rx="0"/><rect style="opacity:1;fill:#fff;fill-opacity:1;stroke:#fff;stroke-width:18.41136932;stroke-linecap:square;stroke-miterlimit:4;stroke-dasharray:none;stroke-dashoffset:0;stroke-opacity:1" id="rect4103" width="413.886" height="20.555" x="84.472" y="237.207" rx="0"/><rect style="opacity:1;fill:#fff;fill-opacity:1;stroke:#fff;stroke-width:18.41136932;stroke-linecap:square;stroke-miterlimit:4;stroke-dasharray:none;stroke-dashoffset:0;stroke-opacity:1" id="rect4105" width="413.886" height="20.555" x="84.472" y="361.207" rx="0"/><rect style="opacity:1;fill:#fff;fill-opacity:1;stroke:#fff;stroke-width:18.7501545;stroke-linecap:square;stroke-miterlimit:4;stroke-dasharray:none;stroke-dashoffset:0;stroke-opacity:1" id="rect4107" width="429.745" height="20.532" x="56.554" y="-161.406" rx="0" transform="matrix(0,1,-1,0,0,0)"/><rect style="opacity:1;fill:#fff;fill-opacity:1;stroke:#fff;stroke-width:18.7501545;stroke-linecap:square;stroke-miterlimit:4;stroke-dasharray:none;stroke-dashoffset:0;stroke-opacity:1" id="rect4109" width="429.745" height="20.532" x="55.604" y="-300.661" rx="0" transform="matrix(0,1,-1,0,0,0)"/><rect style="opacity:1;fill:#fff;fill-opacity:1;stroke:#fff;stroke-width:18.7501545;stroke-linecap:square;stroke-miterlimit:4;stroke-dasharray:none;stroke-dashoffset:0;stroke-opacity:1" id="rect4111" width="429.745" height="20.532" x="54.478" y="-439.276" rx="0" transform="matrix(0,1,-1,0,0,0)"/><path id="path4117" d="M 346.5892,475.79366 L 235.7147,475.79366 L 290.6313,535.6295 L 346.5892,475.79366 z" style="fill:#fff;fill-opacity:1;fill-rule:evenodd;stroke:none;stroke-width:22.61511803;stroke-linecap:round;stroke-linejoin:round;stroke-dasharray:none;stroke-opacity:.58139535"/><path id="path4119" d="M 486.5892,475.79366 L 375.7147,475.79366 L 430.6313,535.6295 L 486.5892,475.79366 z" style="fill:#fff;fill-opacity:1;fill-rule:evenodd;stroke:none;stroke-width:22.61511803;stroke-linecap:round;stroke-linejoin:round;stroke-dasharray:none;stroke-opacity:.58139535"/></svg>