<svg xmlns="http://www.w3.org/2000/svg" xmlns:svg="http://www.w3.org/2000/svg" id="svg2" width="580" height="580" version="1.0"><metadata id="metadata2975"/><g id="g1327"><path style="fill:#111;stroke:#eee;stroke-width:3.40799999" id="path1329" d="M 66.275,1.768 C 24.94,1.768 1.704,23.139 1.704,66.804 L 1.704,516.927 C 1.704,557.771 22.599,579.156 63.896,579.156 L 515.92,579.156 C 557.227,579.156 578.149,558.841 578.149,516.927 L 578.149,66.804 C 578.149,24.203 557.227,1.768 514.628,1.768 C 514.624,1.768 66.133,1.625 66.275,1.768 z"/></g><path id="path828" d="M 23.159867,470.46638 L 557.64236,469.5373 L 528.55835,419.16233 L 54.205081,419.16233 L 23.159867,470.46638 z" style="fill:#fff;fill-opacity:1;fill-rule:evenodd;stroke:none;stroke-width:22.61511803;stroke-linecap:round;stroke-linejoin:round;stroke-dasharray:none;stroke-opacity:.58139535"/><path id="path829" d="M 101.35121,425.11637 L 101.35121,205.47952" style="fill:#fff;fill-opacity:1;fill-rule:evenodd;stroke:#fff;stroke-width:48.48733902;stroke-opacity:1"/><path id="path830" d="M 223.95544,425.11637 L 223.95544,205.47952" style="fill:#fff;fill-opacity:1;fill-rule:evenodd;stroke:#fff;stroke-width:48.48733902;stroke-opacity:1"/><path id="path832" d="M 354.92482,425.11637 L 354.92482,205.47952" style="fill:#fff;fill-opacity:1;fill-rule:evenodd;stroke:#fff;stroke-width:48.48733902;stroke-opacity:1"/><path id="path833" d="M 477.52906,425.11637 L 477.52906,205.47952" style="fill:#fff;fill-opacity:1;fill-rule:evenodd;stroke:#fff;stroke-width:48.48733902;stroke-opacity:1"/><path id="path837" d="M 24.452984,148.9176 L 557.89553,148.9176 L 293.67923,59.311399 L 24.452984,148.9176 z" style="fill:#fff;fill-opacity:1;fill-rule:evenodd;stroke:none;stroke-width:22.61511803;stroke-linecap:round;stroke-linejoin:round;stroke-dasharray:none;stroke-opacity:.58139535"/><rect style="opacity:1;fill:#fff;fill-opacity:1;stroke:#fff;stroke-width:29.52299118;stroke-linecap:square;stroke-miterlimit:4;stroke-dasharray:none;stroke-dashoffset:0;stroke-opacity:1" id="rect3475" width="496.411" height="44.067" x="42.874" y="148.995" rx="0"/></svg>