<svg xmlns="http://www.w3.org/2000/svg" xmlns:svg="http://www.w3.org/2000/svg" xmlns:xlink="http://www.w3.org/1999/xlink" id="svg2" width="580" height="580" version="1.0"><metadata id="metadata2975"/><g id="g1327"><path style="fill:#111;stroke:#eee;stroke-width:3.40799999" id="path1329" d="M 66.275,1.768 C 24.94,1.768 1.704,23.139 1.704,66.804 L 1.704,516.927 C 1.704,557.771 22.599,579.156 63.896,579.156 L 515.92,579.156 C 557.227,579.156 578.149,558.841 578.149,516.927 L 578.149,66.804 C 578.149,24.203 557.227,1.768 514.628,1.768 C 514.624,1.768 66.133,1.625 66.275,1.768 z"/></g><path style="fill:#fff;fill-opacity:1;stroke:#fff;stroke-width:14;stroke-miterlimit:4;stroke-dasharray:none;stroke-opacity:1;stroke-linecap:round;stroke-linejoin:round" id="path6015" d="M 430.21598,-99.780267 C 429.63845,-99.13713 409.23804,-153.72282 393.21799,-219.91851 C 389.56622,-235.0078 363.06833,-312.81613 428.92263,-312.77998 C 496.31132,-312.74299 469.60677,-233.99105 464.59087,-216.0945 C 446.91246,-153.01857 430.79351,-100.4234 430.21598,-99.780267 z"/><use id="use6027" width="580" height="580" x="0" y="0" transform="matrix(0.8077858,-0.4663754,0.4663754,0.8077858,-36.482068,516.74249)" xlink:href="#path6015"/><use id="use6029" width="580" height="580" x="0" y="0" transform="matrix(0.5,-0.8660254,0.8660254,0.5,-99.608513,395.17405)" xlink:href="#use6027"/><use id="use6031" width="580" height="580" x="0" y="0" transform="matrix(0.5,-0.8660254,0.8660254,0.5,-100.02947,397.18544)" xlink:href="#use6029"/><use id="use6033" width="580" height="580" x="0" y="0" transform="matrix(0.5,-0.8660254,0.8660254,0.5,-100.38597,396.46523)" xlink:href="#use6031"/><use id="use6035" width="580" height="580" x="0" y="0" transform="matrix(0.5,-0.8660254,0.8660254,0.5,-102.40499,396.28914)" xlink:href="#use6033"/><use id="use6037" width="580" height="580" x="0" y="0" transform="matrix(0.8660254,-0.5,0.5,0.8660254,456.89843,297.20022)" xlink:href="#path6015"/><use id="use6039" width="580" height="580" x="0" y="0" transform="matrix(0.8077858,0.4663754,-0.4663754,0.8077858,-70.868724,113.90104)" xlink:href="#path6015"/></svg>