<svg xmlns="http://www.w3.org/2000/svg" xmlns:svg="http://www.w3.org/2000/svg" id="svg2" width="580" height="580" version="1.0"><metadata id="metadata2975"/><g id="g1327"><path style="fill:#111;stroke:#eee;stroke-width:3.40799999" id="path1329" d="M 66.275,1.768 C 24.94,1.768 1.704,23.139 1.704,66.804 L 1.704,516.927 C 1.704,557.771 22.599,579.156 63.896,579.156 L 515.92,579.156 C 557.227,579.156 578.149,558.841 578.149,516.927 L 578.149,66.804 C 578.149,24.203 557.227,1.768 514.628,1.768 C 514.624,1.768 66.133,1.625 66.275,1.768 z"/></g><g id="g6173" transform="translate(1.9777315,2.9304584)"><rect id="rect2911" width="519.816" height="184.558" x="30.866" y="340.706" style="opacity:.2;fill:#fff;fill-opacity:1;stroke:#fff;stroke-width:10.9733696;stroke-linecap:round;stroke-linejoin:round;stroke-miterlimit:4;stroke-opacity:1;stroke-dasharray:none"/><path id="path2921" d="m 21.699573,336.96478 537.064437,0" style="fill:none;stroke:#fff;stroke-width:20;stroke-linecap:butt;stroke-linejoin:miter;stroke-miterlimit:4;stroke-opacity:1;stroke-dasharray:none"/><path style="fill:none;stroke:#fff;stroke-width:20;stroke-linecap:butt;stroke-linejoin:miter;stroke-miterlimit:4;stroke-opacity:1;stroke-dasharray:none" id="path3695" d="m 21.699573,524.96478 537.064437,0"/><path id="path3697" d="m 37.173702,428.96478 508.821758,0" style="fill:none;stroke:#fff;stroke-width:19.46699905;stroke-linecap:butt;stroke-linejoin:miter;stroke-miterlimit:4;stroke-opacity:1;stroke-dasharray:38.93399811,38.93399811;stroke-dashoffset:0"/></g><g id="g6378" transform="matrix(0.58245081,0,0,0.58245081,366.97209,-53.743753)"><path id="path4817" d="m -58.01435,312.68741 32.60294,127.78375" style="fill:#d53b3b;fill-opacity:1;stroke:#fff;stroke-width:128.99134827;stroke-linecap:round;stroke-linejoin:round;stroke-miterlimit:4;stroke-opacity:1;stroke-dasharray:none"/><path id="path5329" d="m -66.90374,289.75646 -125.29131,17.87175 -73.41962,-87.41982" style="fill:none;stroke:#fff;stroke-width:56.67275238;stroke-linecap:round;stroke-linejoin:round;stroke-miterlimit:4;stroke-opacity:1;stroke-dasharray:none"/><path id="path5331" d="m 25.13188,580.59838 -173.27583,1.87442" style="fill:none;stroke:#fff;stroke-width:71.79707336;stroke-linecap:round;stroke-linejoin:round;stroke-miterlimit:4;stroke-opacity:1;stroke-dasharray:none"/><path id="path5333" d="M 1.9041098,457.51476 -147.20389,568.03986" style="fill:none;stroke:#fff;stroke-width:78.40309906;stroke-linecap:round;stroke-linejoin:round;stroke-miterlimit:4;stroke-opacity:1;stroke-dasharray:none"/><path style="fill:#fff;fill-opacity:1;stroke:#fff;stroke-width:78.40309906;stroke-linecap:round;stroke-linejoin:round;stroke-miterlimit:4;stroke-opacity:1;stroke-dasharray:none" id="path5339" d="m -111.434,165.91423 c -16.39627,0.74391 -22.85159,24.39144 -9.28973,33.41041 12.35231,10.18832 32.79976,-2.15972 29.44467,-17.92753 -1.48092,-9.45077 -10.60853,-16.54984 -20.15494,-15.48288 z"/><path style="fill:none;stroke:#fff;stroke-width:78.40309906;stroke-linecap:round;stroke-linejoin:round;stroke-miterlimit:4;stroke-opacity:1;stroke-dasharray:none" id="path4057" d="M -12.459,446.46622 -147.20389,568.03986"/><path style="fill:none;stroke:#fff;stroke-width:56.67275238;stroke-linecap:round;stroke-linejoin:round;stroke-miterlimit:4;stroke-opacity:1;stroke-dasharray:none" id="path4059" d="m -66.90374,299.75646 -125.29131,7.87175 -73.41962,-87.41982"/></g></svg>