<svg xmlns="http://www.w3.org/2000/svg" xmlns:svg="http://www.w3.org/2000/svg" id="svg2" width="580" height="580" version="1.0"><metadata id="metadata10"/><defs id="defs4"><style id="style6" type="text/css"/></defs><g id="g1327"><path id="path1329" d="M 66.275,1.768 C 24.94,1.768 1.704,23.139 1.704,66.804 L 1.704,516.927 C 1.704,557.771 22.598,579.156 63.896,579.156 L 515.92,579.156 C 557.227,579.156 578.149,558.84 578.149,516.927 L 578.149,66.804 C 578.149,24.203 557.227,1.768 514.627,1.768 C 514.624,1.768 66.133,1.625 66.275,1.768 z" style="fill:#111;stroke:#eee;stroke-width:3.40799999"/></g><path id="path3457" d="M 184.78155,542.01606 L 240.33221,215.29258 L 292.63713,183.97397 L 343.80161,216.12787 C 343.80161,216.12787 390.64574,547.32866 385.19959,544.67234 C 379.75344,542.01606 185.87079,546.00051 184.78155,542.01606 z" style="fill:#fff;fill-opacity:1;fill-rule:evenodd;stroke:none;stroke-width:14.07240009px;stroke-linecap:butt;stroke-linejoin:miter;stroke-opacity:1;opacity:.5"/><path id="path4180" d="M 78.35819,96.82824 L 139.07109,40.013241 L 286.19495,240.60115 L 267.45324,258.73256 L 78.35819,96.82824 z" style="fill:#fff;fill-opacity:1;fill-rule:evenodd;stroke:#fff;stroke-width:24.60000038;stroke-linecap:round;stroke-linejoin:round;stroke-miterlimit:4;stroke-dasharray:none;stroke-opacity:1"/><path style="fill:#fff;fill-opacity:1;fill-rule:evenodd;stroke:#fff;stroke-width:24.60000038;stroke-linecap:round;stroke-linejoin:round;stroke-miterlimit:4;stroke-dasharray:none;stroke-opacity:1" id="path4188" d="M 506.19495,96.82824 L 445.48205,40.013241 L 298.35819,240.60115 L 317.0999,258.73256 L 506.19495,96.82824 z"/><path style="fill:#fff;fill-opacity:1;fill-rule:evenodd;stroke:#fff;stroke-width:24.60000038;stroke-linecap:round;stroke-linejoin:round;stroke-miterlimit:4;stroke-dasharray:none;stroke-opacity:1" id="path4194" d="M 506.19495,421.91756 L 445.48205,478.73256 L 298.35819,278.14465 L 317.0999,260.01324 L 506.19495,421.91756 z"/><path id="path4196" d="M 78.35819,421.91756 L 139.07109,478.73256 L 286.19495,278.14465 L 267.45324,260.01324 L 78.35819,421.91756 z" style="fill:#fff;fill-opacity:1;fill-rule:evenodd;stroke:#fff;stroke-width:24.60000038;stroke-linecap:round;stroke-linejoin:round;stroke-miterlimit:4;stroke-dasharray:none;stroke-opacity:1"/></svg>