<svg xmlns="http://www.w3.org/2000/svg" xmlns:svg="http://www.w3.org/2000/svg" id="svg2" width="580" height="580" version="1.0"><metadata id="metadata10"/><defs id="defs4"><style id="style6" type="text/css"/></defs><g id="g1327"><path id="path1329" d="M 66.275,1.768 C 24.94,1.768 1.704,23.139 1.704,66.804 L 1.704,516.927 C 1.704,557.771 22.598,579.156 63.896,579.156 L 515.92,579.156 C 557.227,579.156 578.149,558.84 578.149,516.927 L 578.149,66.804 C 578.149,24.203 557.227,1.768 514.627,1.768 C 514.624,1.768 66.133,1.625 66.275,1.768 z" style="fill:#111;stroke:#eee;stroke-width:3.40799999"/></g><path id="path2845" d="m 162.09375,118.90625 c -7.54388,1.86034 -17.86615,-1.8012 -23.34375,5.15625 -1.8527,8.27965 6.87822,17.21084 15.25,14.59375 8.64197,0.26924 18.88574,3.45596 26.28125,-2.5625 -1.07836,-7.98061 -9.49105,-12.22377 -15.3125,-16.625 -0.9167,-0.36606 -1.87567,-0.6779 -2.875,-0.5625 z" style="fill:none;stroke:#fff;stroke-width:8.69999981;stroke-linecap:round;stroke-linejoin:round;stroke-miterlimit:4;stroke-opacity:1;stroke-dasharray:none"/><path style="fill:none;stroke:#fff;stroke-width:8.69999981;stroke-linecap:round;stroke-linejoin:round;stroke-miterlimit:4;stroke-opacity:1;stroke-dasharray:none" id="path3720" d="m 213.09375,306.90625 c -7.54388,1.86034 -17.86615,-1.8012 -23.34375,5.15625 -1.8527,8.27965 6.87822,17.21084 15.25,14.59375 8.64197,0.26924 18.88574,3.45596 26.28125,-2.5625 -1.07836,-7.98061 -9.49105,-12.22377 -15.3125,-16.625 -0.9167,-0.36606 -1.87567,-0.6779 -2.875,-0.5625 z"/><path id="path3722" d="m 317.8125,219.03125 c -6.94506,1.66919 -15.66332,-1.75576 -21.21875,3.96875 -1.08673,7.66083 7.17525,14.05434 14.375,11.6875 7.55393,0.21939 16.59421,3.12237 23.0625,-1.625 -2.35509,-6.81053 -9.47907,-10.9266 -15.34375,-14.15625 -0.29932,0.01 -0.57875,-0.26991 -0.875,0.125 z" style="fill:none;stroke:#fff;stroke-width:8.69999981;stroke-linecap:round;stroke-linejoin:round;stroke-miterlimit:4;stroke-opacity:1;stroke-dasharray:none"/><path id="path3724" d="m 179.90625,216.40625 c -2.77739,-0.30495 -3.49974,1.7747 -0.96875,2.84375 5.20747,2.21591 11.12585,-0.34164 16.5625,1.40625 4.32588,1.09062 2.00748,-1.10314 -0.25,-2.4375 -4.45512,-3.20523 -10.17563,-0.98733 -15.34375,-1.8125 z" style="fill:none;stroke:#fff;stroke-width:8.69999981;stroke-linecap:round;stroke-linejoin:round;stroke-miterlimit:4;stroke-opacity:1;stroke-dasharray:none"/><path id="path3736" d="m 353.8125,325.90625 c -8.93261,1.51509 -21.54424,-1.63526 -26.8125,7.96875 -3.18584,11.10588 8.85949,22.88956 19.9375,19.84375 9.50902,0.73456 22.46427,3.65875 28.86766,-5.49246 0.73995,-10.83984 -10.56107,-17.02729 -18.49266,-21.91379 -1.13062,-0.328 -2.32223,-0.50738 -3.5,-0.40625 z" style="fill:none;stroke:#fff;stroke-width:8.69999981;stroke-linecap:round;stroke-linejoin:round;stroke-miterlimit:4;stroke-opacity:1;stroke-dasharray:none"/><path style="fill:none;stroke:#fff;stroke-width:8.69999981;stroke-linecap:round;stroke-linejoin:round;stroke-miterlimit:4;stroke-opacity:1;stroke-dasharray:none" id="path3742" d="m 278.90625,291.40625 c -2.77739,-0.30495 -3.49974,1.7747 -0.96875,2.84375 5.20747,2.21591 11.12585,-0.34164 16.5625,1.40625 4.32588,1.09062 2.00748,-1.10314 -0.25,-2.4375 -4.45512,-3.20523 -10.17563,-0.98733 -15.34375,-1.8125 z"/><path id="path3744" d="m 110.84375,257.34375 c -5.18653,1.2232 -12.129845,-1.78199 -16.25,2.0625 1.142733,5.72491 8.08668,6.54153 12.8125,5.375 4.60242,0.0651 11.34685,2.24094 14.84375,0.15625 -2.85276,-3.35591 -6.96625,-6.98346 -11.40625,-7.59375 z" style="fill:none;stroke:#fff;stroke-width:8.69999981;stroke-linecap:round;stroke-linejoin:round;stroke-miterlimit:4;stroke-opacity:1;stroke-dasharray:none"/><path style="fill:none;stroke:#fff;stroke-width:8.69999981;stroke-linecap:round;stroke-linejoin:round;stroke-miterlimit:4;stroke-opacity:1;stroke-dasharray:none" id="path3750" d="m 125.84375,403.34375 c -5.18653,1.2232 -12.12984,-1.78199 -16.25,2.0625 1.14273,5.72491 8.08668,6.54153 12.8125,5.375 4.60242,0.0651 11.34685,2.24094 14.84375,0.15625 -2.85276,-3.35591 -6.96625,-6.98346 -11.40625,-7.59375 z"/><path id="path3752" d="m 81.09375,509.90625 c -7.54388,1.86034 -17.86615,-1.8012 -23.34375,5.15625 -1.8527,8.27965 6.87822,17.21084 15.25,14.59375 8.64197,0.26924 18.88574,3.45596 26.28125,-2.5625 -1.07836,-7.98061 -9.49105,-12.22377 -15.3125,-16.625 -0.9167,-0.36606 -1.87567,-0.6779 -2.875,-0.5625 z" style="fill:none;stroke:#fff;stroke-width:8.69999981;stroke-linecap:round;stroke-linejoin:round;stroke-miterlimit:4;stroke-opacity:1;stroke-dasharray:none"/><path id="path3754" d="m 184.90625,492.40625 c -2.77739,-0.30495 -3.49974,1.7747 -0.96875,2.84375 5.20747,2.21591 11.12585,-0.34164 16.5625,1.40625 4.32588,1.09062 2.00748,-1.10314 -0.25,-2.4375 -4.45512,-3.20523 -10.17563,-0.98733 -15.34375,-1.8125 z" style="fill:none;stroke:#fff;stroke-width:8.69999981;stroke-linecap:round;stroke-linejoin:round;stroke-miterlimit:4;stroke-opacity:1;stroke-dasharray:none"/><path style="fill:none;stroke:#fff;stroke-width:8.69999981;stroke-linecap:round;stroke-linejoin:round;stroke-miterlimit:4;stroke-opacity:1;stroke-dasharray:none" id="path3758" d="M 86.8125,336.03125 C 79.86744,337.70044 71.14918,334.27549 65.59375,340 c -1.08673,7.66083 7.17525,14.05434 14.375,11.6875 7.55393,0.21939 16.59421,3.12237 23.0625,-1.625 -2.35509,-6.81053 -9.47907,-10.9266 -15.34375,-14.15625 -0.29932,0.01 -0.57875,-0.26991 -0.875,0.125 z"/><path style="fill:none;stroke:#fff;stroke-width:8.69999981;stroke-linecap:round;stroke-linejoin:round;stroke-miterlimit:4;stroke-opacity:1;stroke-dasharray:none" id="path3760" d="m 467.09375,281.90625 c -7.54388,1.86034 -17.86615,-1.8012 -23.34375,5.15625 -1.8527,8.27965 6.87822,17.21084 15.25,14.59375 8.64197,0.26924 18.88574,3.45596 26.28125,-2.5625 -1.07836,-7.98061 -9.49105,-12.22377 -15.3125,-16.625 -0.9167,-0.36606 -1.87567,-0.6779 -2.875,-0.5625 z"/><path style="fill:none;stroke:#fff;stroke-width:8.69999981;stroke-linecap:round;stroke-linejoin:round;stroke-miterlimit:4;stroke-opacity:1;stroke-dasharray:none" id="path3762" d="m 46.812499,151.90625 c -8.93261,1.51509 -21.54424,-1.63526 -26.8125,7.96875 -3.18584,11.10588 8.85949,22.88956 19.9375,19.84375 9.50902,0.73456 22.46427,3.65875 28.86766,-5.49246 0.73995,-10.83984 -10.56107,-17.02729 -18.49266,-21.91379 -1.13062,-0.328 -2.32223,-0.50738 -3.5,-0.40625 z"/><path style="fill:none;stroke:#fff;stroke-width:8.69999981;stroke-linecap:round;stroke-linejoin:round;stroke-miterlimit:4;stroke-opacity:1;stroke-dasharray:none" id="path3764" d="m 520.8125,504.90625 c -8.93261,1.51509 -21.54424,-1.63526 -26.8125,7.96875 -3.18584,11.10588 8.85949,22.88956 19.9375,19.84375 9.50902,0.73456 22.46427,3.65875 28.86766,-5.49246 0.73995,-10.83984 -10.56107,-17.02729 -18.49266,-21.91379 -1.13062,-0.328 -2.32223,-0.50738 -3.5,-0.40625 z"/><path id="path3766" d="m 496.90625,459.40625 c -2.77739,-0.30495 -3.49974,1.7747 -0.96875,2.84375 5.20747,2.21591 11.12585,-0.34164 16.5625,1.40625 4.32588,1.09062 2.00748,-1.10314 -0.25,-2.4375 -4.45512,-3.20523 -10.17563,-0.98733 -15.34375,-1.8125 z" style="fill:none;stroke:#fff;stroke-width:8.69999981;stroke-linecap:round;stroke-linejoin:round;stroke-miterlimit:4;stroke-opacity:1;stroke-dasharray:none"/><path style="fill:none;stroke:#fff;stroke-width:8.69999981;stroke-linecap:round;stroke-linejoin:round;stroke-miterlimit:4;stroke-opacity:1;stroke-dasharray:none" id="path3768" d="m 397.84375,514.34375 c -5.18653,1.2232 -12.12984,-1.78199 -16.25,2.0625 1.14273,5.72491 8.08668,6.54153 12.8125,5.375 4.60242,0.0651 11.34685,2.24094 14.84375,0.15625 -2.85276,-3.35591 -6.96625,-6.98346 -11.40625,-7.59375 z"/><path style="fill:none;stroke:#fff;stroke-width:8.69999981;stroke-linecap:round;stroke-linejoin:round;stroke-miterlimit:4;stroke-opacity:1;stroke-dasharray:none" id="path3770" d="m 407.8125,418.03125 c -6.94506,1.66919 -15.66332,-1.75576 -21.21875,3.96875 -1.08673,7.66083 7.17525,14.05434 14.375,11.6875 7.55393,0.21939 16.59421,3.12237 23.0625,-1.625 -2.35509,-6.81053 -9.47907,-10.9266 -15.34375,-14.15625 -0.29932,0.01 -0.57875,-0.26991 -0.875,0.125 z"/><path id="path3772" d="m 284.09375,450.90625 c -7.54388,1.86034 -17.86615,-1.8012 -23.34375,5.15625 -1.8527,8.27965 6.87822,17.21084 15.25,14.59375 8.64197,0.26924 18.88574,3.45596 26.28125,-2.5625 -1.07836,-7.98061 -9.49105,-12.22377 -15.3125,-16.625 -0.9167,-0.36606 -1.87567,-0.6779 -2.875,-0.5625 z" style="fill:none;stroke:#fff;stroke-width:8.69999981;stroke-linecap:round;stroke-linejoin:round;stroke-miterlimit:4;stroke-opacity:1;stroke-dasharray:none"/><path id="path3774" d="m 499.09375,133.90625 c -7.54388,1.86034 -17.86615,-1.8012 -23.34375,5.15625 -1.8527,8.27965 6.87822,17.21084 15.25,14.59375 8.64197,0.26924 18.88574,3.45596 26.28125,-2.5625 -1.07836,-7.98061 -9.49105,-12.22377 -15.3125,-16.625 -0.9167,-0.36606 -1.87567,-0.6779 -2.875,-0.5625 z" style="fill:none;stroke:#fff;stroke-width:8.69999981;stroke-linecap:round;stroke-linejoin:round;stroke-miterlimit:4;stroke-opacity:1;stroke-dasharray:none"/><path style="fill:none;stroke:#fff;stroke-width:8.69999981;stroke-linecap:round;stroke-linejoin:round;stroke-miterlimit:4;stroke-opacity:1;stroke-dasharray:none" id="path3776" d="m 456.90625,89.406249 c -2.77739,-0.30495 -3.49974,1.7747 -0.96875,2.843751 5.20747,2.21591 11.12585,-0.341641 16.5625,1.40625 4.32588,1.09062 2.00748,-1.10314 -0.25,-2.437501 -4.45512,-3.20523 -10.17563,-0.98733 -15.34375,-1.8125 z"/><path style="fill:none;stroke:#fff;stroke-width:8.69999981;stroke-linecap:round;stroke-linejoin:round;stroke-miterlimit:4;stroke-opacity:1;stroke-dasharray:none" id="path3778" d="m 387.84375,174.34375 c -5.18653,1.2232 -12.12984,-1.78199 -16.25,2.0625 1.14273,5.72491 8.08668,6.54153 12.8125,5.375 4.60242,0.0651 11.34685,2.24094 14.84375,0.15625 -2.85276,-3.35591 -6.96625,-6.98346 -11.40625,-7.59375 z"/><path style="fill:none;stroke:#fff;stroke-width:8.69999981;stroke-linecap:round;stroke-linejoin:round;stroke-miterlimit:4;stroke-opacity:1;stroke-dasharray:none" id="path3780" d="m 241.8125,21.906249 c -8.93261,1.51509 -21.54424,-1.63526 -26.8125,7.96875 -3.18584,11.10588 8.85949,22.88956 19.9375,19.84375 9.50902,0.73456 22.46427,3.65875 28.86766,-5.49246 0.73995,-10.83984 -10.56107,-17.02729 -18.49266,-21.91379 -1.13062,-0.328 -2.32223,-0.50738 -3.5,-0.40625 z"/><path style="fill:none;stroke:#fff;stroke-width:8.69999981;stroke-linecap:round;stroke-linejoin:round;stroke-miterlimit:4;stroke-opacity:1;stroke-dasharray:none" id="path3782" d="m 270.90625,73.40625 c -2.77739,-0.30495 -3.49974,1.7747 -0.96875,2.84375 5.20747,2.21591 11.12585,-0.34164 16.5625,1.40625 4.32588,1.09062 2.00748,-1.10314 -0.25,-2.4375 -4.45512,-3.20523 -10.17563,-0.98733 -15.34375,-1.8125 z"/><path id="path3784" d="m 163.84375,50.34375 c -5.18653,1.2232 -12.12984,-1.78199 -16.25,2.0625 1.14273,5.72491 8.08668,6.54153 12.8125,5.375 4.60242,0.0651 11.34685,2.24094 14.84375,0.15625 -2.85276,-3.35591 -6.96625,-6.98346 -11.40625,-7.59375 z" style="fill:none;stroke:#fff;stroke-width:8.69999981;stroke-linecap:round;stroke-linejoin:round;stroke-miterlimit:4;stroke-opacity:1;stroke-dasharray:none"/><path style="fill:none;stroke:#fff;stroke-width:8.69999981;stroke-linecap:round;stroke-linejoin:round;stroke-miterlimit:4;stroke-opacity:1;stroke-dasharray:none" id="path3786" d="m 553.84375,171.34375 c -5.18653,1.2232 -12.12984,-1.78199 -16.25,2.0625 1.14273,5.72491 8.08668,6.54153 12.8125,5.375 4.60242,0.0651 11.34685,2.24094 14.84375,0.15625 -2.85276,-3.35591 -6.96625,-6.98346 -11.40625,-7.59375 z"/></svg>