<svg xmlns="http://www.w3.org/2000/svg" xmlns:svg="http://www.w3.org/2000/svg" id="svg2" width="580" height="580" version="1.0"><metadata id="metadata10"/><defs id="defs4"><style id="style6" type="text/css"/></defs><g id="g1327"><path id="path1329" d="M 66.275,1.768 C 24.94,1.768 1.704,23.139 1.704,66.804 L 1.704,516.927 C 1.704,557.771 22.598,579.156 63.896,579.156 L 515.92,579.156 C 557.227,579.156 578.149,558.84 578.149,516.927 L 578.149,66.804 C 578.149,24.203 557.227,1.768 514.627,1.768 C 514.624,1.768 66.133,1.625 66.275,1.768 z" style="fill:#111;stroke:#eee;stroke-width:3.40799999"/></g><path id="path3752" d="m 91.846983,454.74639 376.797227,0" style="fill:none;stroke:#fff;stroke-width:12;stroke-linecap:round;stroke-linejoin:round;stroke-miterlimit:4;stroke-opacity:1;stroke-dasharray:none"/><g style="stroke:#fff;stroke-opacity:1" id="g3779" transform="matrix(0.74835908,0,0,0.74835908,47.4084,40.634415)"><path id="path3781" d="m 219.43574,376.07932 0.44048,-111.44093" style="fill:none;stroke:#fff;stroke-width:15.573247909999999;stroke-linecap:round;stroke-linejoin:round;stroke-miterlimit:4;stroke-opacity:1;stroke-dasharray:none"/><path id="path3783" d="m 285.43186,303.99208 -35.23824,72.23839" style="fill:none;stroke:#fff;stroke-width:15.573247909999999;stroke-linecap:round;stroke-linejoin:round;stroke-miterlimit:4;stroke-opacity:1;stroke-dasharray:none"/><path id="path3785" d="m 329.55523,332.03152 -43.16684,44.0478" style="fill:none;stroke:#fff;stroke-width:15.573247909999999;stroke-linecap:round;stroke-linejoin:round;stroke-miterlimit:4;stroke-opacity:1;stroke-dasharray:none"/><path style="fill:none;stroke:#fff;stroke-width:15.573247909999999;stroke-linecap:round;stroke-linejoin:round;stroke-miterlimit:4;stroke-opacity:1;stroke-dasharray:none" id="path3787" d="m 159.34959,300.90874 30.39298,75.32173"/><path style="fill:none;stroke:#fff;stroke-width:15.573247909999999;stroke-linecap:round;stroke-linejoin:round;stroke-miterlimit:4;stroke-opacity:1;stroke-dasharray:none" id="path3789" d="m 110.82144,333.35295 42.72636,42.72637"/></g><g style="stroke:#fff;stroke-opacity:1" id="g3791" transform="matrix(0.74835908,0,0,0.74835908,247.4084,-55.36559)"><path style="fill:none;stroke:#fff;stroke-width:15.573247909999999;stroke-linecap:round;stroke-linejoin:round;stroke-miterlimit:4;stroke-opacity:1;stroke-dasharray:none" id="path3793" d="m 219.43574,376.07932 0.44048,-111.44093"/><path style="fill:none;stroke:#fff;stroke-width:15.573247909999999;stroke-linecap:round;stroke-linejoin:round;stroke-miterlimit:4;stroke-opacity:1;stroke-dasharray:none" id="path3795" d="m 285.43186,303.99208 -35.23824,72.23839"/><path style="fill:none;stroke:#fff;stroke-width:15.573247909999999;stroke-linecap:round;stroke-linejoin:round;stroke-miterlimit:4;stroke-opacity:1;stroke-dasharray:none" id="path3797" d="m 329.55523,332.03152 -43.16684,44.0478"/><path id="path3799" d="m 159.34959,300.90874 30.39298,75.32173" style="fill:none;stroke:#fff;stroke-width:15.573247909999999;stroke-linecap:round;stroke-linejoin:round;stroke-miterlimit:4;stroke-opacity:1;stroke-dasharray:none"/><path id="path3801" d="m 110.82144,333.35295 42.72636,42.72637" style="fill:none;stroke:#fff;stroke-width:15.573247909999999;stroke-linecap:round;stroke-linejoin:round;stroke-miterlimit:4;stroke-opacity:1;stroke-dasharray:none"/></g><path style="fill:none;stroke:#fff;stroke-width:12;stroke-linecap:round;stroke-linejoin:round;stroke-miterlimit:4;stroke-opacity:1;stroke-dasharray:none" id="path3803" d="m 346.41953,394.74639 169.65214,0"/></svg>