<svg xmlns="http://www.w3.org/2000/svg" xmlns:svg="http://www.w3.org/2000/svg" id="svg2" width="580" height="580" version="1.0"><metadata id="metadata2975"/><defs id="defs4"><symbol id="symbol-university" viewBox="244.5 110 489 219.9"><path id="path4460" d="M79,43l57,119c0,0,21-96,104-96s124,106,124,106l43-133l82-17L0,17L79,43z"/><path id="path4462" fill="none" stroke="#000" stroke-width="20" d="M94,176l-21,39"/><path id="path4464" d="M300,19c0,10.5-22.6,19-50.5,19S199,29.5,199,19s22.6-19,50.5-19S300,8.5,300,19z"/><path id="path4466" stroke="#000" stroke-width="20" d="M112,216l-16-38L64,88c0,0-9-8-4-35s16-24,16-24" ill="none"/></symbol></defs><g id="g1327"><path style="fill:#111;stroke:#eee;stroke-width:3.40799999" id="path1329" d="M 66.275,1.768 C 24.94,1.768 1.704,23.139 1.704,66.804 L 1.704,516.927 C 1.704,557.771 22.599,579.156 63.896,579.156 L 515.92,579.156 C 557.227,579.156 578.149,558.841 578.149,516.927 L 578.149,66.804 C 578.149,24.203 557.227,1.768 514.628,1.768 C 514.624,1.768 66.133,1.625 66.275,1.768 z"/></g><path style="fill:#fff;fill-opacity:1;fill-rule:evenodd;stroke:#fff;stroke-width:35.82899857;stroke-linecap:round;stroke-linejoin:miter;stroke-miterlimit:4;stroke-opacity:1;stroke-dasharray:none" id="path2157" d="M 47.545774,43.393944 44.346778,538.12088"/><path style="fill:#fff;fill-opacity:1;fill-rule:evenodd;stroke:#fff;stroke-width:35.82876587;stroke-linecap:butt;stroke-linejoin:miter;stroke-miterlimit:4;stroke-opacity:1;stroke-dasharray:none" id="path2159" d="m 50.744772,485.34997 479.849548,3.19899"/><path style="fill:#fff;fill-opacity:1;fill-rule:evenodd;stroke:#fff;stroke-width:35.82899857;stroke-linecap:round;stroke-linejoin:miter;stroke-miterlimit:4;stroke-opacity:1;stroke-dasharray:none" id="path2161" d="m 533.79332,528.52389 3.19899,-384.4845"/><rect style="fill:#fff;fill-opacity:1;stroke:#fff;stroke-width:34.70238113;stroke-miterlimit:4;stroke-opacity:1;stroke-dasharray:none" id="rect2163" width="207.966" height="38.605" x="237.127" y="393.631" ry="19.303"/><path style="fill:#fff;fill-opacity:1;stroke:#fff;stroke-width:2.29999995;stroke-miterlimit:4;stroke-opacity:1;stroke-dasharray:none" id="path2167" d="m 9.2857143,16.017857 a 1.5178572,1.3392857 0 1 1 -3.0357144,0 1.5178572,1.3392857 0 1 1 3.0357144,0 z" transform="matrix(18.921389,0,0,19.889185,29.572525,29.582841)"/><rect style="fill:#fff;fill-opacity:1;stroke:#fff;stroke-width:30.17598343;stroke-miterlimit:4;stroke-opacity:1;stroke-dasharray:none" id="rect2169" width="80.291" height="6.894" x="119.978" y="423.963" ry="3.447"/><path style="fill:#fff;fill-opacity:1;fill-rule:evenodd;stroke:#fff;stroke-width:35.82876587;stroke-linecap:butt;stroke-linejoin:miter;stroke-miterlimit:4;stroke-opacity:1;stroke-dasharray:none" id="path2159-3" d="m 55.503588,249.65197 479.849542,3.19899"/><rect style="fill:#fff;fill-opacity:1;stroke:#fff;stroke-width:34.70238113;stroke-miterlimit:4;stroke-opacity:1;stroke-dasharray:none" id="rect2163-5" width="207.966" height="38.605" x="241.673" y="159.186" ry="19.303"/><path style="fill:#fff;fill-opacity:1;stroke:#fff;stroke-width:2.29999995;stroke-miterlimit:4;stroke-opacity:1;stroke-dasharray:none" id="path2167-9" d="m 9.2857143,16.017857 a 1.5178572,1.3392857 0 1 1 -3.0357144,0 1.5178572,1.3392857 0 1 1 3.0357144,0 z" transform="matrix(18.921389,0,0,19.889185,34.117797,-204.86148)"/><rect style="fill:#fff;fill-opacity:1;stroke:#fff;stroke-width:30.17598343;stroke-miterlimit:4;stroke-opacity:1;stroke-dasharray:none" id="rect2169-6" width="80.291" height="6.894" x="124.524" y="189.519" ry="3.447"/></svg>