<svg xmlns="http://www.w3.org/2000/svg" xmlns:svg="http://www.w3.org/2000/svg" id="svg2" width="580" height="580" version="1.0"><metadata id="metadata2975"/><defs id="defs4"><symbol id="symbol-university" viewBox="244.5 110 489 219.9"><path id="path4460" d="M79,43l57,119c0,0,21-96,104-96s124,106,124,106l43-133l82-17L0,17L79,43z"/><path id="path4462" fill="none" stroke="#000" stroke-width="20" d="M94,176l-21,39"/><path id="path4464" d="M300,19c0,10.5-22.6,19-50.5,19S199,29.5,199,19s22.6-19,50.5-19S300,8.5,300,19z"/><path id="path4466" stroke="#000" stroke-width="20" d="M112,216l-16-38L64,88c0,0-9-8-4-35s16-24,16-24" ill="none"/></symbol></defs><g id="g1327"><path style="fill:#111;stroke:#eee;stroke-width:3.40799999" id="path1329" d="M 66.275,1.768 C 24.94,1.768 1.704,23.139 1.704,66.804 L 1.704,516.927 C 1.704,557.771 22.599,579.156 63.896,579.156 L 515.92,579.156 C 557.227,579.156 578.149,558.841 578.149,516.927 L 578.149,66.804 C 578.149,24.203 557.227,1.768 514.628,1.768 C 514.624,1.768 66.133,1.625 66.275,1.768 z"/></g><g id="g2913" transform="matrix(0.77452064,0,0,0.77452064,65.539985,24.712453)"><path id="path2157" d="M 47.545774,72.59912 44.346778,322.12088" style="fill:#fff;fill-opacity:1;fill-rule:evenodd;stroke:#fff;stroke-width:35.82899857;stroke-linecap:round;stroke-linejoin:miter;stroke-miterlimit:4;stroke-opacity:1;stroke-dasharray:none"/><path id="path2159" d="m 50.744772,229.34997 479.849548,3.19899" style="fill:#fff;fill-opacity:1;fill-rule:evenodd;stroke:#fff;stroke-width:35.82876587;stroke-linecap:butt;stroke-linejoin:miter;stroke-miterlimit:4;stroke-opacity:1;stroke-dasharray:none"/><path id="path2161" d="m 533.79332,312.52389 3.19899,-163.14885" style="fill:#fff;fill-opacity:1;fill-rule:evenodd;stroke:#fff;stroke-width:35.82899857;stroke-linecap:round;stroke-linejoin:miter;stroke-miterlimit:4;stroke-opacity:1;stroke-dasharray:none"/><rect id="rect2163" width="252.721" height="44.786" x="233.092" y="138.179" ry="22.393" style="fill:#fff;fill-opacity:1;stroke:#fff;stroke-width:41.20307922;stroke-miterlimit:4;stroke-opacity:1;stroke-dasharray:none"/><path id="path2167" d="m 9.2857143,16.017857 c 0,0.739667 -0.6795678,1.339285 -1.5178572,1.339285 -0.8382894,0 -1.5178572,-0.599618 -1.5178572,-1.339285 0,-0.739667 0.6795678,-1.339286 1.5178572,-1.339286 0.8382894,0 1.5178572,0.599619 1.5178572,1.339286 z" transform="matrix(22.993274,0,0,23.073314,-16.698545,-291.11131)" style="fill:#fff;fill-opacity:1;stroke:#fff;stroke-width:2.29999995;stroke-miterlimit:4;stroke-opacity:1;stroke-dasharray:none"/><rect id="rect2169" width="97.569" height="7.997" x="90.732" y="173.368" ry="3.999" style="fill:#fff;fill-opacity:1;stroke:#fff;stroke-width:35.82876587;stroke-miterlimit:4;stroke-opacity:1;stroke-dasharray:none"/></g><g id="g6173"><rect id="rect2911" width="519.816" height="184.558" x="30.866" y="340.706" style="opacity:.2;fill:#fff;fill-opacity:1;stroke:#fff;stroke-width:10.97336959999999983;stroke-linecap:round;stroke-linejoin:round;stroke-miterlimit:4;stroke-opacity:1;stroke-dasharray:none"/><path id="path2921" d="m 21.699573,336.96478 537.064437,0" style="fill:none;stroke:#fff;stroke-width:20;stroke-linecap:butt;stroke-linejoin:miter;stroke-opacity:1;stroke-miterlimit:4;stroke-dasharray:none"/><path style="fill:none;stroke:#fff;stroke-width:20;stroke-linecap:butt;stroke-linejoin:miter;stroke-miterlimit:4;stroke-opacity:1;stroke-dasharray:none" id="path3695" d="m 21.699573,524.96478 537.064437,0"/><path id="path3697" d="m 37.173702,428.96478 508.821758,0" style="fill:none;stroke:#fff;stroke-width:19.46699905;stroke-linecap:butt;stroke-linejoin:miter;stroke-miterlimit:4;stroke-opacity:1;stroke-dasharray:38.93399811,38.93399811;stroke-dashoffset:0"/></g></svg>