<svg xmlns="http://www.w3.org/2000/svg" xmlns:svg="http://www.w3.org/2000/svg" id="svg2" width="580" height="580" version="1.0"><metadata id="metadata2975"/><defs id="defs4"><symbol id="symbol-university" viewBox="244.5 110 489 219.9"><path id="path4460" d="M79,43l57,119c0,0,21-96,104-96s124,106,124,106l43-133l82-17L0,17L79,43z"/><path id="path4462" fill="none" stroke="#000" stroke-width="20" d="M94,176l-21,39"/><path id="path4464" d="M300,19c0,10.5-22.6,19-50.5,19S199,29.5,199,19s22.6-19,50.5-19S300,8.5,300,19z"/><path id="path4466" stroke="#000" stroke-width="20" d="M112,216l-16-38L64,88c0,0-9-8-4-35s16-24,16-24" ill="none"/></symbol></defs><g id="g1327"><path style="fill:#111;stroke:#eee;stroke-width:3.40799999" id="path1329" d="M 66.275,1.768 C 24.94,1.768 1.704,23.139 1.704,66.804 L 1.704,516.927 C 1.704,557.771 22.599,579.156 63.896,579.156 L 515.92,579.156 C 557.227,579.156 578.149,558.841 578.149,516.927 L 578.149,66.804 C 578.149,24.203 557.227,1.768 514.628,1.768 C 514.624,1.768 66.133,1.625 66.275,1.768 z"/></g><g id="layer5" transform="matrix(59.652201,0,0,59.652201,-72.304986,-50.562035)" style="stroke:#fff;stroke-opacity:1;display:inline"><path style="fill:none;fill-rule:evenodd;stroke:#fff;stroke-width:.30000001;stroke-linecap:round;stroke-linejoin:miter;stroke-miterlimit:4;stroke-dasharray:none;stroke-opacity:1" id="path12890" d="M 3.25,2.25 L 2.25,3.25"/><path style="fill:none;fill-rule:evenodd;stroke:#fff;stroke-width:.30000001;stroke-linecap:round;stroke-linejoin:miter;stroke-miterlimit:4;stroke-dasharray:none;stroke-opacity:1;display:inline" id="path15803" d="M 3.6,3.4 L 2.3679807,4.6320194"/><path style="fill:none;fill-rule:evenodd;stroke:#fff;stroke-width:.30000001;stroke-linecap:round;stroke-linejoin:miter;stroke-miterlimit:4;stroke-dasharray:none;stroke-opacity:1;display:inline" id="path15805" d="M 5.1320193,3.1179806 L 3.9,4.35"/><path style="fill:none;fill-rule:evenodd;stroke:#fff;stroke-width:.30000001;stroke-linecap:round;stroke-linejoin:miter;stroke-miterlimit:4;stroke-dasharray:none;stroke-opacity:1;display:inline" id="path15807" d="M 3.1,4.9 L 2.1331457,5.8668544"/><path style="fill:none;fill-rule:evenodd;stroke:#fff;stroke-width:.30000001;stroke-linecap:round;stroke-linejoin:miter;stroke-miterlimit:4;stroke-dasharray:none;stroke-opacity:1;display:inline" id="path15809" d="M 6.3820193,2.8679806 L 5.15,4.1"/><path style="fill:none;fill-rule:evenodd;stroke:#fff;stroke-width:.30000001;stroke-linecap:round;stroke-linejoin:miter;stroke-miterlimit:4;stroke-dasharray:none;stroke-opacity:1;display:inline" id="path15811" d="M 8.1320193,2.1179806 L 6.9,3.35"/><path style="fill:none;fill-rule:evenodd;stroke:#fff;stroke-width:.30000001;stroke-linecap:round;stroke-linejoin:miter;stroke-miterlimit:4;stroke-dasharray:none;stroke-opacity:1;display:inline" id="path15813" d="M 8.6320193,3.6179806 L 7.4,4.85"/><path style="fill:none;fill-rule:evenodd;stroke:#fff;stroke-width:.30000001;stroke-linecap:round;stroke-linejoin:miter;stroke-miterlimit:4;stroke-dasharray:none;stroke-opacity:1;display:inline" id="path15815" d="M 10.029592,3.5035534 L 9.1179807,4.3820194"/><path style="fill:none;fill-rule:evenodd;stroke:#fff;stroke-width:.30000001;stroke-linecap:round;stroke-linejoin:miter;stroke-miterlimit:4;stroke-dasharray:none;stroke-opacity:1;display:inline" id="path15817" d="M 10.029592,2.0035534 L 9.1179802,2.8820194"/><path style="fill:none;fill-rule:evenodd;stroke:#fff;stroke-width:.30000001;stroke-linecap:round;stroke-linejoin:miter;stroke-miterlimit:4;stroke-dasharray:none;stroke-opacity:1;display:inline" id="path15819" d="M 10.062738,4.7093592 L 9.1179803,5.6320194"/><path style="fill:none;fill-rule:evenodd;stroke:#fff;stroke-width:.30000001;stroke-linecap:round;stroke-linejoin:miter;stroke-miterlimit:4;stroke-dasharray:none;stroke-opacity:1;display:inline" id="path15821" d="M 8.5434563,4.9896893 L 8.1179807,5.3820194"/><path style="fill:none;fill-rule:evenodd;stroke:#fff;stroke-width:.30000001;stroke-linecap:round;stroke-linejoin:miter;stroke-miterlimit:4;stroke-dasharray:none;stroke-opacity:1;display:inline" id="path15823" d="M 7.2633009,4.0087961 L 6.65,4.6"/><path style="fill:none;fill-rule:evenodd;stroke:#fff;stroke-width:.30000001;stroke-linecap:round;stroke-linejoin:miter;stroke-miterlimit:4;stroke-dasharray:none;stroke-opacity:1;display:inline" id="path15825" d="M 4.841767,2.1361359 L 4.1179807,2.8820194"/></g><g id="layer2" transform="matrix(59.652201,0,0,59.652201,-72.304986,-50.562035)" style="fill:#fff;fill-opacity:1;stroke:#fff;stroke-opacity:1;display:inline;stroke-width:.33527682;stroke-miterlimit:4;stroke-dasharray:none;stroke-linejoin:round;stroke-linecap:round"><path style="fill:#fff;fill-opacity:1;fill-rule:evenodd;stroke:#fff;stroke-width:.33527682;stroke-linecap:round;stroke-linejoin:round;marker-mid:none;stroke-miterlimit:4;stroke-dasharray:none;stroke-opacity:1;display:inline" id="path7057" d="M 2.25,6.5 L 6,4.5 L 9.75,6.5 L 9.4989134,6.7556834 L 8.2452133,6.25 L 5.9986595,5.9796244 L 3.7469743,6.2460938 L 2.4998353,6.7500598 L 2.25,6.5 z"/><rect style="fill:#fff;fill-opacity:1;stroke:#fff;stroke-width:.33527682;stroke-linecap:round;stroke-linejoin:round;stroke-miterlimit:4;stroke-dasharray:none;stroke-opacity:1;display:inline" id="rect7059" width=".5" height="3.5" x="3.75" y="6"/><rect style="fill:#fff;fill-opacity:1;stroke:#fff;stroke-width:.33527682;stroke-linejoin:round;stroke-miterlimit:4;stroke-dasharray:none;stroke-opacity:1;display:inline;stroke-linecap:round" id="rect7061" width=".5" height="3.5" x="7.75" y="6" ry="0"/></g><path id="path10943" d="M 346.16505,531.70599 C 329.84989,478.72847 241.94165,478.81245 225.71046,531.70599 C 225.71046,531.70599 346.16505,531.70599 346.16505,531.70599 z" style="fill:#fff;fill-opacity:1;fill-rule:evenodd;stroke:#fff;stroke-width:10;stroke-linecap:round;stroke-linejoin:round;stroke-miterlimit:4;stroke-dasharray:none;stroke-opacity:1"/></svg>