<svg xmlns="http://www.w3.org/2000/svg" xmlns:svg="http://www.w3.org/2000/svg" id="svg2" width="580" height="580" version="1.0"><metadata id="metadata10"/><defs id="defs4"><style id="style6" type="text/css"/></defs><g id="g1327"><path id="path1329" d="M 66.275,1.768 C 24.94,1.768 1.704,23.139 1.704,66.804 L 1.704,516.927 C 1.704,557.771 22.598,579.156 63.896,579.156 L 515.92,579.156 C 557.227,579.156 578.149,558.84 578.149,516.927 L 578.149,66.804 C 578.149,24.203 557.227,1.768 514.627,1.768 C 514.624,1.768 66.133,1.625 66.275,1.768 z" style="fill:#111;stroke:#eee;stroke-width:3.40799999"/></g><path id="rect3172" d="m 105.34375,184.09375 c 10.21887,107.49256 2.61939,210.69427 -24,336.5625 l 32,0 160.125,0 32,0 c -26.61939,-125.86823 -34.21887,-229.06994 -24,-336.5625 -33.38204,14.58679 -62.50651,12.53748 -88.0625,14.40625 -25.55599,-1.86877 -54.68046,0.18054 -88.0625,-14.40625 z" style="fill:#fff;fill-opacity:1;stroke:#fff;stroke-width:10;stroke-linecap:round;stroke-linejoin:round;stroke-miterlimit:4;stroke-opacity:1;stroke-dasharray:none"/><path id="rect3947" d="m 278.18442,400.18442 232.63116,0 0,120.63116 -232.63116,0 z" style="fill:#fff;fill-opacity:1;stroke:#fff;stroke-width:8.36883259;stroke-linecap:round;stroke-linejoin:round;stroke-miterlimit:4;stroke-opacity:1;stroke-dasharray:none"/><g id="g4076" transform="translate(0,14)"><path style="opacity:.2;fill:#fff;fill-opacity:1;stroke:#fff;stroke-width:5;stroke-linecap:round;stroke-linejoin:round;stroke-miterlimit:4;stroke-opacity:1;stroke-dasharray:none" id="path3950" d="m 248,137 c 0,4.97056 -20.37104,9 -45.5,9 -25.12896,0 -45.5,-4.02944 -45.5,-9 0,-4.97056 20.37104,-9 45.5,-9 25.12896,0 45.5,4.02944 45.5,9 z"/><path id="path3952" d="m 248,137 c 0,4.97056 -20.37104,9 -45.5,9 -25.12896,0 -45.5,-4.02944 -45.5,-9 0,-4.97056 20.37104,-9 45.5,-9 25.12896,0 45.5,4.02944 45.5,9 z" transform="translate(20,-20)" style="opacity:.2;fill:#fff;fill-opacity:1;stroke:#fff;stroke-width:5;stroke-linecap:round;stroke-linejoin:round;stroke-miterlimit:4;stroke-opacity:1;stroke-dasharray:none"/><path style="opacity:.2;fill:#fff;fill-opacity:1;stroke:#fff;stroke-width:5;stroke-linecap:round;stroke-linejoin:round;stroke-miterlimit:4;stroke-opacity:1;stroke-dasharray:none" id="path3956" d="m 248,137 c 0,4.97056 -20.37104,9 -45.5,9 -25.12896,0 -45.5,-4.02944 -45.5,-9 0,-4.97056 20.37104,-9 45.5,-9 25.12896,0 45.5,4.02944 45.5,9 z" transform="translate(40,-40)"/><path id="path3958" d="m 248,137 c 0,4.97056 -20.37104,9 -45.5,9 -25.12896,0 -45.5,-4.02944 -45.5,-9 0,-4.97056 20.37104,-9 45.5,-9 25.12896,0 45.5,4.02944 45.5,9 z" transform="translate(60,-40)" style="opacity:.2;fill:#fff;fill-opacity:1;stroke:#fff;stroke-width:5;stroke-linecap:round;stroke-linejoin:round;stroke-miterlimit:4;stroke-opacity:1;stroke-dasharray:none"/><path style="opacity:.2;fill:#fff;fill-opacity:1;stroke:#fff;stroke-width:5;stroke-linecap:round;stroke-linejoin:round;stroke-miterlimit:4;stroke-opacity:1;stroke-dasharray:none" id="path3960" d="m 248,137 c 0,4.97056 -20.37104,9 -45.5,9 -25.12896,0 -45.5,-4.02944 -45.5,-9 0,-4.97056 20.37104,-9 45.5,-9 25.12896,0 45.5,4.02944 45.5,9 z" transform="translate(40,-30)"/><path id="path3962" d="m 248,137 c 0,4.97056 -20.37104,9 -45.5,9 -25.12896,0 -45.5,-4.02944 -45.5,-9 0,-4.97056 20.37104,-9 45.5,-9 25.12896,0 45.5,4.02944 45.5,9 z" transform="translate(80,-50)" style="opacity:.2;fill:#fff;fill-opacity:1;stroke:#fff;stroke-width:5;stroke-linecap:round;stroke-linejoin:round;stroke-miterlimit:4;stroke-opacity:1;stroke-dasharray:none"/><path style="opacity:.2;fill:#fff;fill-opacity:1;stroke:#fff;stroke-width:5;stroke-linecap:round;stroke-linejoin:round;stroke-miterlimit:4;stroke-opacity:1;stroke-dasharray:none" id="path3964" d="m 248,137 c 0,4.97056 -20.37104,9 -45.5,9 -25.12896,0 -45.5,-4.02944 -45.5,-9 0,-4.97056 20.37104,-9 45.5,-9 25.12896,0 45.5,4.02944 45.5,9 z" transform="translate(40,-58)"/><path id="path3966" d="m 248,137 c 0,4.97056 -20.37104,9 -45.5,9 -25.12896,0 -45.5,-4.02944 -45.5,-9 0,-4.97056 20.37104,-9 45.5,-9 25.12896,0 45.5,4.02944 45.5,9 z" transform="translate(20,-68)" style="opacity:.2;fill:#fff;fill-opacity:1;stroke:#fff;stroke-width:5;stroke-linecap:round;stroke-linejoin:round;stroke-miterlimit:4;stroke-opacity:1;stroke-dasharray:none"/><path style="opacity:.2;fill:#fff;fill-opacity:1;stroke:#fff;stroke-width:5;stroke-linecap:round;stroke-linejoin:round;stroke-miterlimit:4;stroke-opacity:1;stroke-dasharray:none" id="path3968" d="m 248,137 c 0,4.97056 -20.37104,9 -45.5,9 -25.12896,0 -45.5,-4.02944 -45.5,-9 0,-4.97056 20.37104,-9 45.5,-9 25.12896,0 45.5,4.02944 45.5,9 z" transform="translate(60,-68)"/><path id="path3970" d="m 248,137 c 0,4.97056 -20.37104,9 -45.5,9 -25.12896,0 -45.5,-4.02944 -45.5,-9 0,-4.97056 20.37104,-9 45.5,-9 25.12896,0 45.5,4.02944 45.5,9 z" transform="translate(120,-68)" style="opacity:.2;fill:#fff;fill-opacity:1;stroke:#fff;stroke-width:5;stroke-linecap:round;stroke-linejoin:round;stroke-miterlimit:4;stroke-opacity:1;stroke-dasharray:none"/><path style="opacity:.2;fill:#fff;fill-opacity:1;stroke:#fff;stroke-width:5;stroke-linecap:round;stroke-linejoin:round;stroke-miterlimit:4;stroke-opacity:1;stroke-dasharray:none" id="path3972" d="m 248,137 c 0,4.97056 -20.37104,9 -45.5,9 -25.12896,0 -45.5,-4.02944 -45.5,-9 0,-4.97056 20.37104,-9 45.5,-9 25.12896,0 45.5,4.02944 45.5,9 z" transform="translate(100,-56)"/><path id="path3974" d="m 248,137 c 0,4.97056 -20.37104,9 -45.5,9 -25.12896,0 -45.5,-4.02944 -45.5,-9 0,-4.97056 20.37104,-9 45.5,-9 25.12896,0 45.5,4.02944 45.5,9 z" transform="translate(100,-36)" style="opacity:.2;fill:#fff;fill-opacity:1;stroke:#fff;stroke-width:5;stroke-linecap:round;stroke-linejoin:round;stroke-miterlimit:4;stroke-opacity:1;stroke-dasharray:none"/><path style="opacity:.2;fill:#fff;fill-opacity:1;stroke:#fff;stroke-width:5;stroke-linecap:round;stroke-linejoin:round;stroke-miterlimit:4;stroke-opacity:1;stroke-dasharray:none" id="path3976" d="m 248,137 c 0,4.97056 -20.37104,9 -45.5,9 -25.12896,0 -45.5,-4.02944 -45.5,-9 0,-4.97056 20.37104,-9 45.5,-9 25.12896,0 45.5,4.02944 45.5,9 z" transform="translate(110,-48)"/><path id="path3978" d="m 248,137 c 0,4.97056 -20.37104,9 -45.5,9 -25.12896,0 -45.5,-4.02944 -45.5,-9 0,-4.97056 20.37104,-9 45.5,-9 25.12896,0 45.5,4.02944 45.5,9 z" transform="translate(130,-64)" style="opacity:.2;fill:#fff;fill-opacity:1;stroke:#fff;stroke-width:5;stroke-linecap:round;stroke-linejoin:round;stroke-miterlimit:4;stroke-opacity:1;stroke-dasharray:none"/><path id="path3980" d="m 248,137 c 0,4.97056 -20.37104,9 -45.5,9 -25.12896,0 -45.5,-4.02944 -45.5,-9 0,-4.97056 20.37104,-9 45.5,-9 25.12896,0 45.5,4.02944 45.5,9 z" transform="translate(26,-12)" style="opacity:.2;fill:#fff;fill-opacity:1;stroke:#fff;stroke-width:5;stroke-linecap:round;stroke-linejoin:round;stroke-miterlimit:4;stroke-opacity:1;stroke-dasharray:none"/><path id="path3982" d="m 248,137 c 0,4.97056 -20.37104,9 -45.5,9 -25.12896,0 -45.5,-4.02944 -45.5,-9 0,-4.97056 20.37104,-9 45.5,-9 25.12896,0 45.5,4.02944 45.5,9 z" transform="translate(10,-6)" style="opacity:.2;fill:#fff;fill-opacity:1;stroke:#fff;stroke-width:5;stroke-linecap:round;stroke-linejoin:round;stroke-miterlimit:4;stroke-opacity:1;stroke-dasharray:none"/><path style="opacity:.2;fill:#fff;fill-opacity:1;stroke:#fff;stroke-width:5;stroke-linecap:round;stroke-linejoin:round;stroke-miterlimit:4;stroke-opacity:1;stroke-dasharray:none" id="path3984" d="m 248,137 c 0,4.97056 -20.37104,9 -45.5,9 -25.12896,0 -45.5,-4.02944 -45.5,-9 0,-4.97056 20.37104,-9 45.5,-9 25.12896,0 45.5,4.02944 45.5,9 z" transform="translate(30,-26)"/><path id="path3986" d="m 248,137 c 0,4.97056 -20.37104,9 -45.5,9 -25.12896,0 -45.5,-4.02944 -45.5,-9 0,-4.97056 20.37104,-9 45.5,-9 25.12896,0 45.5,4.02944 45.5,9 z" transform="translate(50,-46)" style="opacity:.2;fill:#fff;fill-opacity:1;stroke:#fff;stroke-width:5;stroke-linecap:round;stroke-linejoin:round;stroke-miterlimit:4;stroke-opacity:1;stroke-dasharray:none"/><path style="opacity:.2;fill:#fff;fill-opacity:1;stroke:#fff;stroke-width:5;stroke-linecap:round;stroke-linejoin:round;stroke-miterlimit:4;stroke-opacity:1;stroke-dasharray:none" id="path3988" d="m 248,137 c 0,4.97056 -20.37104,9 -45.5,9 -25.12896,0 -45.5,-4.02944 -45.5,-9 0,-4.97056 20.37104,-9 45.5,-9 25.12896,0 45.5,4.02944 45.5,9 z" transform="translate(70,-46)"/><path id="path3990" d="m 248,137 c 0,4.97056 -20.37104,9 -45.5,9 -25.12896,0 -45.5,-4.02944 -45.5,-9 0,-4.97056 20.37104,-9 45.5,-9 25.12896,0 45.5,4.02944 45.5,9 z" transform="translate(50,-36)" style="opacity:.2;fill:#fff;fill-opacity:1;stroke:#fff;stroke-width:5;stroke-linecap:round;stroke-linejoin:round;stroke-miterlimit:4;stroke-opacity:1;stroke-dasharray:none"/><path style="opacity:.2;fill:#fff;fill-opacity:1;stroke:#fff;stroke-width:5;stroke-linecap:round;stroke-linejoin:round;stroke-miterlimit:4;stroke-opacity:1;stroke-dasharray:none" id="path3992" d="m 248,137 c 0,4.97056 -20.37104,9 -45.5,9 -25.12896,0 -45.5,-4.02944 -45.5,-9 0,-4.97056 20.37104,-9 45.5,-9 25.12896,0 45.5,4.02944 45.5,9 z" transform="translate(90,-56)"/><path id="path3994" d="m 248,137 c 0,4.97056 -20.37104,9 -45.5,9 -25.12896,0 -45.5,-4.02944 -45.5,-9 0,-4.97056 20.37104,-9 45.5,-9 25.12896,0 45.5,4.02944 45.5,9 z" transform="translate(50,-64)" style="opacity:.2;fill:#fff;fill-opacity:1;stroke:#fff;stroke-width:5;stroke-linecap:round;stroke-linejoin:round;stroke-miterlimit:4;stroke-opacity:1;stroke-dasharray:none"/><path style="opacity:.2;fill:#fff;fill-opacity:1;stroke:#fff;stroke-width:5;stroke-linecap:round;stroke-linejoin:round;stroke-miterlimit:4;stroke-opacity:1;stroke-dasharray:none" id="path3996" d="m 248,137 c 0,4.97056 -20.37104,9 -45.5,9 -25.12896,0 -45.5,-4.02944 -45.5,-9 0,-4.97056 20.37104,-9 45.5,-9 25.12896,0 45.5,4.02944 45.5,9 z" transform="translate(30,-74)"/><path id="path3998" d="m 248,137 c 0,4.97056 -20.37104,9 -45.5,9 -25.12896,0 -45.5,-4.02944 -45.5,-9 0,-4.97056 20.37104,-9 45.5,-9 25.12896,0 45.5,4.02944 45.5,9 z" transform="translate(70,-74)" style="opacity:.2;fill:#fff;fill-opacity:1;stroke:#fff;stroke-width:5;stroke-linecap:round;stroke-linejoin:round;stroke-miterlimit:4;stroke-opacity:1;stroke-dasharray:none"/><path style="opacity:.2;fill:#fff;fill-opacity:1;stroke:#fff;stroke-width:5;stroke-linecap:round;stroke-linejoin:round;stroke-miterlimit:4;stroke-opacity:1;stroke-dasharray:none" id="path4000" d="m 248,137 c 0,4.97056 -20.37104,9 -45.5,9 -25.12896,0 -45.5,-4.02944 -45.5,-9 0,-4.97056 20.37104,-9 45.5,-9 25.12896,0 45.5,4.02944 45.5,9 z" transform="translate(130,-74)"/><path id="path4002" d="m 248,137 c 0,4.97056 -20.37104,9 -45.5,9 -25.12896,0 -45.5,-4.02944 -45.5,-9 0,-4.97056 20.37104,-9 45.5,-9 25.12896,0 45.5,4.02944 45.5,9 z" transform="translate(110,-62)" style="opacity:.2;fill:#fff;fill-opacity:1;stroke:#fff;stroke-width:5;stroke-linecap:round;stroke-linejoin:round;stroke-miterlimit:4;stroke-opacity:1;stroke-dasharray:none"/><path style="opacity:.2;fill:#fff;fill-opacity:1;stroke:#fff;stroke-width:5;stroke-linecap:round;stroke-linejoin:round;stroke-miterlimit:4;stroke-opacity:1;stroke-dasharray:none" id="path4004" d="m 248,137 c 0,4.97056 -20.37104,9 -45.5,9 -25.12896,0 -45.5,-4.02944 -45.5,-9 0,-4.97056 20.37104,-9 45.5,-9 25.12896,0 45.5,4.02944 45.5,9 z" transform="translate(110,-42)"/><path id="path4006" d="m 248,137 c 0,4.97056 -20.37104,9 -45.5,9 -25.12896,0 -45.5,-4.02944 -45.5,-9 0,-4.97056 20.37104,-9 45.5,-9 25.12896,0 45.5,4.02944 45.5,9 z" transform="translate(120,-54)" style="opacity:.2;fill:#fff;fill-opacity:1;stroke:#fff;stroke-width:5;stroke-linecap:round;stroke-linejoin:round;stroke-miterlimit:4;stroke-opacity:1;stroke-dasharray:none"/><path style="opacity:.2;fill:#fff;fill-opacity:1;stroke:#fff;stroke-width:5;stroke-linecap:round;stroke-linejoin:round;stroke-miterlimit:4;stroke-opacity:1;stroke-dasharray:none" id="path4008" d="m 248,137 c 0,4.97056 -20.37104,9 -45.5,9 -25.12896,0 -45.5,-4.02944 -45.5,-9 0,-4.97056 20.37104,-9 45.5,-9 25.12896,0 45.5,4.02944 45.5,9 z" transform="translate(140,-70)"/><path style="opacity:.2;fill:#fff;fill-opacity:1;stroke:#fff;stroke-width:5;stroke-linecap:round;stroke-linejoin:round;stroke-miterlimit:4;stroke-opacity:1;stroke-dasharray:none" id="path4010" d="m 248,137 c 0,4.97056 -20.37104,9 -45.5,9 -25.12896,0 -45.5,-4.02944 -45.5,-9 0,-4.97056 20.37104,-9 45.5,-9 25.12896,0 45.5,4.02944 45.5,9 z" transform="translate(36,-18)"/><path style="opacity:.2;fill:#fff;fill-opacity:1;stroke:#fff;stroke-width:5;stroke-linecap:round;stroke-linejoin:round;stroke-miterlimit:4;stroke-opacity:1;stroke-dasharray:none" id="path4012" d="m 248,137 c 0,4.97056 -20.37104,9 -45.5,9 -25.12896,0 -45.5,-4.02944 -45.5,-9 0,-4.97056 20.37104,-9 45.5,-9 25.12896,0 45.5,4.02944 45.5,9 z" transform="translate(32,-6)"/><path id="path4014" d="m 248,137 c 0,4.97056 -20.37104,9 -45.5,9 -25.12896,0 -45.5,-4.02944 -45.5,-9 0,-4.97056 20.37104,-9 45.5,-9 25.12896,0 45.5,4.02944 45.5,9 z" transform="translate(52,-26)" style="opacity:.2;fill:#fff;fill-opacity:1;stroke:#fff;stroke-width:5;stroke-linecap:round;stroke-linejoin:round;stroke-miterlimit:4;stroke-opacity:1;stroke-dasharray:none"/><path style="opacity:.2;fill:#fff;fill-opacity:1;stroke:#fff;stroke-width:5;stroke-linecap:round;stroke-linejoin:round;stroke-miterlimit:4;stroke-opacity:1;stroke-dasharray:none" id="path4016" d="m 248,137 c 0,4.97056 -20.37104,9 -45.5,9 -25.12896,0 -45.5,-4.02944 -45.5,-9 0,-4.97056 20.37104,-9 45.5,-9 25.12896,0 45.5,4.02944 45.5,9 z" transform="translate(72,-46)"/><path id="path4018" d="m 248,137 c 0,4.97056 -20.37104,9 -45.5,9 -25.12896,0 -45.5,-4.02944 -45.5,-9 0,-4.97056 20.37104,-9 45.5,-9 25.12896,0 45.5,4.02944 45.5,9 z" transform="translate(92,-46)" style="opacity:.2;fill:#fff;fill-opacity:1;stroke:#fff;stroke-width:5;stroke-linecap:round;stroke-linejoin:round;stroke-miterlimit:4;stroke-opacity:1;stroke-dasharray:none"/><path style="opacity:.2;fill:#fff;fill-opacity:1;stroke:#fff;stroke-width:5;stroke-linecap:round;stroke-linejoin:round;stroke-miterlimit:4;stroke-opacity:1;stroke-dasharray:none" id="path4020" d="m 248,137 c 0,4.97056 -20.37104,9 -45.5,9 -25.12896,0 -45.5,-4.02944 -45.5,-9 0,-4.97056 20.37104,-9 45.5,-9 25.12896,0 45.5,4.02944 45.5,9 z" transform="translate(72,-36)"/><path id="path4022" d="m 248,137 c 0,4.97056 -20.37104,9 -45.5,9 -25.12896,0 -45.5,-4.02944 -45.5,-9 0,-4.97056 20.37104,-9 45.5,-9 25.12896,0 45.5,4.02944 45.5,9 z" transform="translate(112,-56)" style="opacity:.2;fill:#fff;fill-opacity:1;stroke:#fff;stroke-width:5;stroke-linecap:round;stroke-linejoin:round;stroke-miterlimit:4;stroke-opacity:1;stroke-dasharray:none"/><path style="opacity:.2;fill:#fff;fill-opacity:1;stroke:#fff;stroke-width:5;stroke-linecap:round;stroke-linejoin:round;stroke-miterlimit:4;stroke-opacity:1;stroke-dasharray:none" id="path4024" d="m 248,137 c 0,4.97056 -20.37104,9 -45.5,9 -25.12896,0 -45.5,-4.02944 -45.5,-9 0,-4.97056 20.37104,-9 45.5,-9 25.12896,0 45.5,4.02944 45.5,9 z" transform="translate(72,-64)"/><path id="path4026" d="m 248,137 c 0,4.97056 -20.37104,9 -45.5,9 -25.12896,0 -45.5,-4.02944 -45.5,-9 0,-4.97056 20.37104,-9 45.5,-9 25.12896,0 45.5,4.02944 45.5,9 z" transform="translate(52,-74)" style="opacity:.2;fill:#fff;fill-opacity:1;stroke:#fff;stroke-width:5;stroke-linecap:round;stroke-linejoin:round;stroke-miterlimit:4;stroke-opacity:1;stroke-dasharray:none"/><path style="opacity:.2;fill:#fff;fill-opacity:1;stroke:#fff;stroke-width:5;stroke-linecap:round;stroke-linejoin:round;stroke-miterlimit:4;stroke-opacity:1;stroke-dasharray:none" id="path4028" d="m 248,137 c 0,4.97056 -20.37104,9 -45.5,9 -25.12896,0 -45.5,-4.02944 -45.5,-9 0,-4.97056 20.37104,-9 45.5,-9 25.12896,0 45.5,4.02944 45.5,9 z" transform="translate(92,-74)"/><path id="path4030" d="m 248,137 c 0,4.97056 -20.37104,9 -45.5,9 -25.12896,0 -45.5,-4.02944 -45.5,-9 0,-4.97056 20.37104,-9 45.5,-9 25.12896,0 45.5,4.02944 45.5,9 z" transform="translate(152,-74)" style="opacity:.2;fill:#fff;fill-opacity:1;stroke:#fff;stroke-width:5;stroke-linecap:round;stroke-linejoin:round;stroke-miterlimit:4;stroke-opacity:1;stroke-dasharray:none"/><path style="opacity:.2;fill:#fff;fill-opacity:1;stroke:#fff;stroke-width:5;stroke-linecap:round;stroke-linejoin:round;stroke-miterlimit:4;stroke-opacity:1;stroke-dasharray:none" id="path4032" d="m 248,137 c 0,4.97056 -20.37104,9 -45.5,9 -25.12896,0 -45.5,-4.02944 -45.5,-9 0,-4.97056 20.37104,-9 45.5,-9 25.12896,0 45.5,4.02944 45.5,9 z" transform="translate(132,-62)"/><path id="path4034" d="m 248,137 c 0,4.97056 -20.37104,9 -45.5,9 -25.12896,0 -45.5,-4.02944 -45.5,-9 0,-4.97056 20.37104,-9 45.5,-9 25.12896,0 45.5,4.02944 45.5,9 z" transform="translate(132,-42)" style="opacity:.2;fill:#fff;fill-opacity:1;stroke:#fff;stroke-width:5;stroke-linecap:round;stroke-linejoin:round;stroke-miterlimit:4;stroke-opacity:1;stroke-dasharray:none"/><path style="opacity:.2;fill:#fff;fill-opacity:1;stroke:#fff;stroke-width:5;stroke-linecap:round;stroke-linejoin:round;stroke-miterlimit:4;stroke-opacity:1;stroke-dasharray:none" id="path4036" d="m 248,137 c 0,4.97056 -20.37104,9 -45.5,9 -25.12896,0 -45.5,-4.02944 -45.5,-9 0,-4.97056 20.37104,-9 45.5,-9 25.12896,0 45.5,4.02944 45.5,9 z" transform="translate(142,-54)"/><path id="path4038" d="m 248,137 c 0,4.97056 -20.37104,9 -45.5,9 -25.12896,0 -45.5,-4.02944 -45.5,-9 0,-4.97056 20.37104,-9 45.5,-9 25.12896,0 45.5,4.02944 45.5,9 z" transform="translate(162,-70)" style="opacity:.2;fill:#fff;fill-opacity:1;stroke:#fff;stroke-width:5;stroke-linecap:round;stroke-linejoin:round;stroke-miterlimit:4;stroke-opacity:1;stroke-dasharray:none"/><path id="path4040" d="m 248,137 c 0,4.97056 -20.37104,9 -45.5,9 -25.12896,0 -45.5,-4.02944 -45.5,-9 0,-4.97056 20.37104,-9 45.5,-9 25.12896,0 45.5,4.02944 45.5,9 z" transform="translate(58,-18)" style="opacity:.2;fill:#fff;fill-opacity:1;stroke:#fff;stroke-width:5;stroke-linecap:round;stroke-linejoin:round;stroke-miterlimit:4;stroke-opacity:1;stroke-dasharray:none"/><path id="path4042" d="m 248,137 c 0,4.97056 -20.37104,9 -45.5,9 -25.12896,0 -45.5,-4.02944 -45.5,-9 0,-4.97056 20.37104,-9 45.5,-9 25.12896,0 45.5,4.02944 45.5,9 z" transform="translate(52,-16)" style="opacity:.2;fill:#fff;fill-opacity:1;stroke:#fff;stroke-width:5;stroke-linecap:round;stroke-linejoin:round;stroke-miterlimit:4;stroke-opacity:1;stroke-dasharray:none"/><path style="opacity:.2;fill:#fff;fill-opacity:1;stroke:#fff;stroke-width:5;stroke-linecap:round;stroke-linejoin:round;stroke-miterlimit:4;stroke-opacity:1;stroke-dasharray:none" id="path4044" d="m 248,137 c 0,4.97056 -20.37104,9 -45.5,9 -25.12896,0 -45.5,-4.02944 -45.5,-9 0,-4.97056 20.37104,-9 45.5,-9 25.12896,0 45.5,4.02944 45.5,9 z" transform="translate(72,-36)"/><path id="path4046" d="m 248,137 c 0,4.97056 -20.37104,9 -45.5,9 -25.12896,0 -45.5,-4.02944 -45.5,-9 0,-4.97056 20.37104,-9 45.5,-9 25.12896,0 45.5,4.02944 45.5,9 z" transform="translate(92,-56)" style="opacity:.2;fill:#fff;fill-opacity:1;stroke:#fff;stroke-width:5;stroke-linecap:round;stroke-linejoin:round;stroke-miterlimit:4;stroke-opacity:1;stroke-dasharray:none"/><path style="opacity:.2;fill:#fff;fill-opacity:1;stroke:#fff;stroke-width:5;stroke-linecap:round;stroke-linejoin:round;stroke-miterlimit:4;stroke-opacity:1;stroke-dasharray:none" id="path4048" d="m 248,137 c 0,4.97056 -20.37104,9 -45.5,9 -25.12896,0 -45.5,-4.02944 -45.5,-9 0,-4.97056 20.37104,-9 45.5,-9 25.12896,0 45.5,4.02944 45.5,9 z" transform="translate(112,-56)"/><path id="path4050" d="m 248,137 c 0,4.97056 -20.37104,9 -45.5,9 -25.12896,0 -45.5,-4.02944 -45.5,-9 0,-4.97056 20.37104,-9 45.5,-9 25.12896,0 45.5,4.02944 45.5,9 z" transform="translate(92,-46)" style="opacity:.2;fill:#fff;fill-opacity:1;stroke:#fff;stroke-width:5;stroke-linecap:round;stroke-linejoin:round;stroke-miterlimit:4;stroke-opacity:1;stroke-dasharray:none"/><path style="opacity:.2;fill:#fff;fill-opacity:1;stroke:#fff;stroke-width:5;stroke-linecap:round;stroke-linejoin:round;stroke-miterlimit:4;stroke-opacity:1;stroke-dasharray:none" id="path4052" d="m 248,137 c 0,4.97056 -20.37104,9 -45.5,9 -25.12896,0 -45.5,-4.02944 -45.5,-9 0,-4.97056 20.37104,-9 45.5,-9 25.12896,0 45.5,4.02944 45.5,9 z" transform="translate(132,-66)"/><path id="path4054" d="m 248,137 c 0,4.97056 -20.37104,9 -45.5,9 -25.12896,0 -45.5,-4.02944 -45.5,-9 0,-4.97056 20.37104,-9 45.5,-9 25.12896,0 45.5,4.02944 45.5,9 z" transform="translate(92,-74)" style="opacity:.2;fill:#fff;fill-opacity:1;stroke:#fff;stroke-width:5;stroke-linecap:round;stroke-linejoin:round;stroke-miterlimit:4;stroke-opacity:1;stroke-dasharray:none"/><path style="opacity:.2;fill:#fff;fill-opacity:1;stroke:#fff;stroke-width:5;stroke-linecap:round;stroke-linejoin:round;stroke-miterlimit:4;stroke-opacity:1;stroke-dasharray:none" id="path4056" d="m 248,137 c 0,4.97056 -20.37104,9 -45.5,9 -25.12896,0 -45.5,-4.02944 -45.5,-9 0,-4.97056 20.37104,-9 45.5,-9 25.12896,0 45.5,4.02944 45.5,9 z" transform="translate(72,-84)"/><path id="path4058" d="m 248,137 c 0,4.97056 -20.37104,9 -45.5,9 -25.12896,0 -45.5,-4.02944 -45.5,-9 0,-4.97056 20.37104,-9 45.5,-9 25.12896,0 45.5,4.02944 45.5,9 z" transform="translate(112,-84)" style="opacity:.2;fill:#fff;fill-opacity:1;stroke:#fff;stroke-width:5;stroke-linecap:round;stroke-linejoin:round;stroke-miterlimit:4;stroke-opacity:1;stroke-dasharray:none"/><path style="opacity:.2;fill:#fff;fill-opacity:1;stroke:#fff;stroke-width:5;stroke-linecap:round;stroke-linejoin:round;stroke-miterlimit:4;stroke-opacity:1;stroke-dasharray:none" id="path4060" d="m 248,137 c 0,4.97056 -20.37104,9 -45.5,9 -25.12896,0 -45.5,-4.02944 -45.5,-9 0,-4.97056 20.37104,-9 45.5,-9 25.12896,0 45.5,4.02944 45.5,9 z" transform="translate(172,-84)"/><path id="path4062" d="m 248,137 c 0,4.97056 -20.37104,9 -45.5,9 -25.12896,0 -45.5,-4.02944 -45.5,-9 0,-4.97056 20.37104,-9 45.5,-9 25.12896,0 45.5,4.02944 45.5,9 z" transform="translate(152,-72)" style="opacity:.2;fill:#fff;fill-opacity:1;stroke:#fff;stroke-width:5;stroke-linecap:round;stroke-linejoin:round;stroke-miterlimit:4;stroke-opacity:1;stroke-dasharray:none"/><path style="opacity:.2;fill:#fff;fill-opacity:1;stroke:#fff;stroke-width:5;stroke-linecap:round;stroke-linejoin:round;stroke-miterlimit:4;stroke-opacity:1;stroke-dasharray:none" id="path4064" d="m 248,137 c 0,4.97056 -20.37104,9 -45.5,9 -25.12896,0 -45.5,-4.02944 -45.5,-9 0,-4.97056 20.37104,-9 45.5,-9 25.12896,0 45.5,4.02944 45.5,9 z" transform="translate(152,-52)"/><path id="path4066" d="m 248,137 c 0,4.97056 -20.37104,9 -45.5,9 -25.12896,0 -45.5,-4.02944 -45.5,-9 0,-4.97056 20.37104,-9 45.5,-9 25.12896,0 45.5,4.02944 45.5,9 z" transform="translate(162,-64)" style="opacity:.2;fill:#fff;fill-opacity:1;stroke:#fff;stroke-width:5;stroke-linecap:round;stroke-linejoin:round;stroke-miterlimit:4;stroke-opacity:1;stroke-dasharray:none"/><path style="opacity:.2;fill:#fff;fill-opacity:1;stroke:#fff;stroke-width:5;stroke-linecap:round;stroke-linejoin:round;stroke-miterlimit:4;stroke-opacity:1;stroke-dasharray:none" id="path4068" d="m 248,137 c 0,4.97056 -20.37104,9 -45.5,9 -25.12896,0 -45.5,-4.02944 -45.5,-9 0,-4.97056 20.37104,-9 45.5,-9 25.12896,0 45.5,4.02944 45.5,9 z" transform="translate(182,-80)"/><path style="opacity:.2;fill:#fff;fill-opacity:1;stroke:#fff;stroke-width:5;stroke-linecap:round;stroke-linejoin:round;stroke-miterlimit:4;stroke-opacity:1;stroke-dasharray:none" id="path4070" d="m 248,137 c 0,4.97056 -20.37104,9 -45.5,9 -25.12896,0 -45.5,-4.02944 -45.5,-9 0,-4.97056 20.37104,-9 45.5,-9 25.12896,0 45.5,4.02944 45.5,9 z" transform="translate(78,-28)"/></g></svg>