<svg xmlns="http://www.w3.org/2000/svg" xmlns:svg="http://www.w3.org/2000/svg" xmlns:xlink="http://www.w3.org/1999/xlink" id="svg2" width="580" height="580" version="1.0"><metadata id="metadata10"/><defs id="defs4"><style id="style6" type="text/css"/><linearGradient id="linearGradient3834" x1="251.277" x2="474.02" y1="630.148" y2="630.148" gradientUnits="userSpaceOnUse" xlink:href="#linearGradient3828"/><linearGradient id="linearGradient3828"><stop style="stop-color:#ccc;stop-opacity:0" id="stop3830" offset="0"/><stop id="stop3840" offset=".125" style="stop-color:#ccc;stop-opacity:.654867"/><stop id="stop3836" offset=".5" style="stop-color:#ccc;stop-opacity:1"/><stop style="stop-color:#ccc;stop-opacity:0" id="stop3832" offset="1"/></linearGradient></defs><g id="g1327"><path id="path1329" d="M 66.275,1.768 C 24.94,1.768 1.704,23.139 1.704,66.804 L 1.704,516.927 C 1.704,557.771 22.598,579.156 63.896,579.156 L 515.92,579.156 C 557.227,579.156 578.149,558.84 578.149,516.927 L 578.149,66.804 C 578.149,24.203 557.227,1.768 514.627,1.768 C 514.624,1.768 66.133,1.625 66.275,1.768 z" style="fill:#111;stroke:#eee;stroke-width:3.40799999"/></g><path id="rect3947" d="m 204.84375,178.21875 -13.78125,365.9375 c 84.45205,1.20517 150.16975,0.9375 235.90625,0.9375 l 0,-113.65625 -183.625,0 -5.9375,-253.21875 z" style="opacity:.8;fill:#fff;fill-opacity:1;stroke:#fff;stroke-width:7.88586998;stroke-linecap:round;stroke-linejoin:round;stroke-miterlimit:4;stroke-opacity:1;stroke-dasharray:none"/><path id="path3051" d="M 166.85955,549.98649 C 144.95255,555.85645 56.331311,267.76963 40.294269,251.73259 24.257227,235.69555 -263.8296,147.07433 -257.95964,125.16733 -252.08967,103.26032 41.711454,170.55549 63.61846,164.68552 85.525465,158.81556 306.3171,-46.364346 322.35414,-30.327305 338.39118,-14.290264 133.21129,206.50139 127.34133,228.4084 c -5.86996,21.907 61.42523,315.70812 39.51822,321.57809 z" transform="matrix(0.27803241,0.41038456,-0.41038456,0.27803241,284.11027,99.01502)" style="opacity:1;fill:#fff;fill-opacity:1;fill-rule:evenodd;stroke:#fff;stroke-width:1.99919705000000003;stroke-linecap:round;stroke-linejoin:miter;stroke-miterlimit:4;stroke-opacity:1;stroke-dasharray:none;stroke-dashoffset:0"/><path id="path3053" d="m 399.43882,293.77878 a 33.286572,33.286572 0 1 1 -66.57314,0 33.286572,33.286572 0 1 1 66.57314,0 z" transform="matrix(0.49569901,0,0,0.49569901,35.820182,45.691874)" style="opacity:1;fill:#fff;fill-opacity:1;fill-rule:evenodd;stroke:#fff;stroke-width:1.99919705000000003;stroke-linecap:round;stroke-linejoin:miter;stroke-miterlimit:4;stroke-opacity:1;stroke-dasharray:none;stroke-dashoffset:0"/></svg>