<svg xmlns="http://www.w3.org/2000/svg" xmlns:svg="http://www.w3.org/2000/svg" id="svg2" width="580" height="580" version="1.0"><metadata id="metadata10"/><defs id="defs4"><style id="style6" type="text/css"/></defs><g id="g1327"><path id="path1329" d="M 66.275,1.768 C 24.94,1.768 1.704,23.139 1.704,66.804 L 1.704,516.927 C 1.704,557.771 22.598,579.156 63.896,579.156 L 515.92,579.156 C 557.227,579.156 578.149,558.84 578.149,516.927 L 578.149,66.804 C 578.149,24.203 557.227,1.768 514.627,1.768 C 514.624,1.768 66.133,1.625 66.275,1.768 z" style="fill:#111;stroke:#eee;stroke-width:3.40799999"/></g><g id="g3183" transform="translate(2,-6)"><path id="path4742" d="m 436.53836,435.43685 c -0.24704,0.005 -40.22701,0.008 -40.47526,0.008 l 0,0 c -19.5539,0 -35.40547,-15.85157 -35.40547,-35.40547 0,-19.5539 15.85157,-35.40547 35.40547,-35.40547 0.24825,0 0.49591,0.003 0.74294,0.008 m 0,-0.57537 c -0.24703,0.005 -0.49469,0.008 -0.74294,0.008 l 0,0 c -19.5539,0 -35.40547,-15.85157 -35.40547,-35.40547 0,-19.5539 15.85157,-35.40547 35.40547,-35.40547 0.24825,0 0.49591,0.003 0.74294,0.008 m 0,-1.31115 c -0.24703,0.005 -0.49469,0.008 -0.74294,0.008 l 0,0 c -19.5539,0 -35.40547,-15.85157 -35.40547,-35.40547 0,-19.5539 15.85157,-35.40547 35.40547,-35.40547 0.24825,0 0.49591,0.003 0.74294,0.008 m 0,-0.57537 c -0.24703,0.005 -0.49469,0.008 -0.74294,0.008 l 0,0 c -19.5539,0 -35.40547,-15.85157 -35.40547,-35.40547 0,-19.5539 15.85157,-35.40547 35.40547,-35.40547 0.24825,0 40.22822,0.003 40.47526,0.008" style="fill:none;stroke:#fff;stroke-width:20;stroke-linecap:round;stroke-miterlimit:4;stroke-opacity:1;stroke-dasharray:none;stroke-dashoffset:0"/><path style="fill:none;stroke:#fff;stroke-width:20;stroke-linecap:round;stroke-miterlimit:4;stroke-opacity:1;stroke-dasharray:none;stroke-dashoffset:0" id="path4749" d="m 133.50091,435.43685 c 0.24703,0.005 40.22701,0.008 40.47526,0.008 l 0,0 c 19.5539,0 35.40547,-15.85157 35.40547,-35.40547 0,-19.5539 -15.85157,-35.40547 -35.40547,-35.40547 -0.24825,0 -0.49591,0.003 -0.74295,0.008 m 0,-0.57537 c 0.24704,0.005 0.4947,0.008 0.74295,0.008 l 0,0 c 19.5539,0 35.40547,-15.85157 35.40547,-35.40547 0,-19.5539 -15.85157,-35.40547 -35.40547,-35.40547 -0.24825,0 -0.49591,0.003 -0.74295,0.008 m 0,-1.31115 c 0.24704,0.005 0.4947,0.008 0.74295,0.008 l 0,0 c 19.5539,0 35.40547,-15.85157 35.40547,-35.40547 0,-19.5539 -15.85157,-35.40547 -35.40547,-35.40547 -0.24825,0 -0.49591,0.003 -0.74295,0.008 m 0,-0.57537 c 0.24704,0.005 0.4947,0.008 0.74295,0.008 l 0,0 c 19.5539,0 35.40547,-15.85157 35.40547,-35.40547 0,-19.5539 -15.85157,-35.40547 -35.40547,-35.40547 -0.24825,0 -40.22823,0.003 -40.47526,0.008"/><path style="fill:none;stroke:#fff;stroke-width:20;stroke-linecap:round;stroke-linejoin:miter;stroke-miterlimit:4;stroke-opacity:1;stroke-dasharray:none" id="path4755" d="m 313.50482,153.14216 0,280.94989"/><path id="path4759" d="m 259.43131,153.14216 0,280.94989" style="fill:none;stroke:#fff;stroke-width:20;stroke-linecap:round;stroke-linejoin:miter;stroke-miterlimit:4;stroke-opacity:1;stroke-dasharray:none"/></g></svg>