<svg xmlns="http://www.w3.org/2000/svg" xmlns:svg="http://www.w3.org/2000/svg" id="svg2" width="580" height="580" version="1.0"><defs id="defs22"><marker id="ArrowStart" markerHeight="3" markerUnits="strokeWidth" markerWidth="4" orient="auto" refX="10" refY="5" viewBox="0 0 10 10"><path id="path3568" d="M 10 0 L 0 5 L 10 10 z"/></marker><marker id="ArrowEnd" markerHeight="3" markerUnits="strokeWidth" markerWidth="4" orient="auto" refX="0" refY="5" viewBox="0 0 10 10"><path id="path3565" d="M 0 0 L 10 5 L 0 10 z"/></marker><marker id="marker2959" markerHeight="3" markerUnits="strokeWidth" markerWidth="4" orient="auto" refX="10" refY="5" viewBox="0 0 10 10"><path id="path2626" d="M 10 0 L 0 5 L 10 10 z"/></marker><marker id="marker2956" markerHeight="3" markerUnits="strokeWidth" markerWidth="4" orient="auto" refX="0" refY="5" viewBox="0 0 10 10"><path id="path2623" d="M 0 0 L 10 5 L 0 10 z"/></marker></defs><metadata id="metadata10"/><g id="g1327"><path style="fill:#111;stroke:#eee;stroke-width:3.40799999" id="path1329" d="M 66.275,1.768 C 24.94,1.768 1.704,23.139 1.704,66.804 L 1.704,516.927 C 1.704,557.771 22.598,579.156 63.896,579.156 L 515.92,579.156 C 557.227,579.156 578.149,558.84 578.149,516.927 L 578.149,66.804 C 578.149,24.203 557.227,1.768 514.627,1.768 C 514.624,1.768 66.133,1.625 66.275,1.768 z"/></g><g id="g2319" transform="translate(879.29125,36.805119)"><path id="path2323" style="fill:#fff;stroke:none"/></g><g id="g2325" transform="translate(879.29125,36.805119)"><path id="path2329" style="fill:#fff;stroke:none"/></g><g id="g2632" transform="matrix(1.2138666,0,0,1.2138666,-90.422903,-76.181271)"><g id="g2634"><path id="path2636" d="M 307.999,210.063 C 341.012,210.063 367.776,183.298 367.776,150.285 C 367.776,117.271 341.012,90.5059 307.999,90.5059 C 274.985,90.5059 248.223,117.271 248.223,150.285 C 248.223,183.298 274.985,210.063 307.999,210.063 z" style="fill:#fff;stroke:none"/><path id="path2638" style="fill:#fff;stroke:none"/></g><path id="path2640" d="M 307.901,335.023 L 244.712,335.023 L 244.712,289.396 L 196.387,338.042 C 174.555,359.874 144.963,331.88 166.831,310.009 L 246.847,229.84 C 253.337,223.396 260.44,219.296 271.712,219.296 L 307.901,219.296 L 307.961,219.296 L 343.462,219.296 C 354.734,219.296 362.337,223.271 369.016,229.84 L 449.845,310.795 C 470.664,331.614 440.273,359.874 420.304,338.841 L 370.712,289.146 L 370.712,335.023 L 307.961,335.023 L 307.901,335.023 z" style="fill:#fff;stroke:none"/><path id="path2642" d="M 370.451,358.686 L 322.962,406.179 L 357.828,440.979 L 322.102,476.705 C 301.017,497.792 330.105,527.95 351.91,506.145 L 408.411,447.396 C 420.537,435.022 423.89,412.166 410.89,399.166 C 410.846,399.122 370.451,358.686 370.451,358.686 z" style="fill:#fff;stroke:none"/><path id="path2644" d="M 244.722,358.686 L 292.212,406.179 L 257.346,440.979 L 293.072,476.705 C 314.157,497.792 285.069,527.95 263.264,506.145 L 206.763,447.396 C 194.637,435.022 191.284,412.166 204.284,399.166 C 204.328,399.122 244.722,358.686 244.722,358.686 z" style="fill:#fff;stroke:none"/></g></svg>