<svg xmlns="http://www.w3.org/2000/svg" xmlns:svg="http://www.w3.org/2000/svg" id="svg2" width="580" height="580" version="1.0"><metadata id="metadata2975"/><defs id="defs4"><symbol id="symbol-university" viewBox="244.5 110 489 219.9"><path id="path4460" d="M79,43l57,119c0,0,21-96,104-96s124,106,124,106l43-133l82-17L0,17L79,43z"/><path id="path4462" fill="none" stroke="#000" stroke-width="20" d="M94,176l-21,39"/><path id="path4464" d="M300,19c0,10.5-22.6,19-50.5,19S199,29.5,199,19s22.6-19,50.5-19S300,8.5,300,19z"/><path id="path4466" stroke="#000" stroke-width="20" d="M112,216l-16-38L64,88c0,0-9-8-4-35s16-24,16-24" ill="none"/></symbol><marker id="ArrowStart" markerHeight="3" markerUnits="strokeWidth" markerWidth="4" orient="auto" refX="10" refY="5" viewBox="0 0 10 10"><path id="path3634" d="M 10 0 L 0 5 L 10 10 z"/></marker><marker id="ArrowEnd" markerHeight="3" markerUnits="strokeWidth" markerWidth="4" orient="auto" refX="0" refY="5" viewBox="0 0 10 10"><path id="path3631" d="M 0 0 L 10 5 L 0 10 z"/></marker><marker id="marker2611" markerHeight="3" markerUnits="strokeWidth" markerWidth="4" orient="auto" refX="10" refY="5" viewBox="0 0 10 10"><path id="path1325" d="M 10 0 L 0 5 L 10 10 z"/></marker><marker id="marker2608" markerHeight="3" markerUnits="strokeWidth" markerWidth="4" orient="auto" refX="0" refY="5" viewBox="0 0 10 10"><path id="path1322" d="M 0 0 L 10 5 L 0 10 z"/></marker></defs><g id="g1327"><path style="fill:#111;stroke:#eee;stroke-width:3.40799999" id="path1329" d="M 66.275,1.768 C 24.94,1.768 1.704,23.139 1.704,66.804 L 1.704,516.927 C 1.704,557.771 22.599,579.156 63.896,579.156 L 515.92,579.156 C 557.227,579.156 578.149,558.841 578.149,516.927 L 578.149,66.804 C 578.149,24.203 557.227,1.768 514.628,1.768 C 514.624,1.768 66.133,1.625 66.275,1.768 z"/></g><path style="fill:#fff;fill-rule:evenodd;stroke:#fff;stroke-width:10;stroke-linecap:round;stroke-linejoin:round;stroke-miterlimit:4;stroke-dasharray:none;stroke-opacity:1" id="path2662" d="M 272.88678,135.49087 L 24.554768,260.20708 L 334.04076,264.35727 L 559.5004,146.80474 L 272.88678,135.49087 z"/><path style="fill:#fff;fill-rule:evenodd;stroke:#fff;stroke-width:10;stroke-linecap:round;stroke-linejoin:round;stroke-opacity:1;stroke-miterlimit:4;stroke-dasharray:none" id="path2664" d="M 127.2667,365.3754 L 154.09984,286.09352 L 341.09332,291.42596 L 465.59678,223.64726 L 515.40623,281.48345 C 515.40623,281.48345 452.5225,288.41485 425.1209,305.43773 C 397.7193,322.4606 362.17606,363.44383 362.17606,363.44383 C 362.17606,363.44383 284.79228,336.638 249.00949,336.03614 C 180.69074,334.88703 131.50867,364.45854 127.2667,365.3754 z"/><path style="fill:#fff;fill-opacity:1;fill-rule:evenodd;stroke:none;stroke-width:20;stroke-linecap:butt;stroke-linejoin:miter;stroke-miterlimit:4;stroke-dasharray:none;stroke-opacity:1" id="path2666" d="M 134.25,280.09375 L 104.21875,280.53125 C 100.02835,287.5158 97.009988,296.28576 93.78125,306.71875 C 89.128683,321.75255 85.191392,339.76671 82.875,357.71875 C 74.146268,425.36641 74.125,456.65625 74.125,456.65625 L 94.125,456.65625 C 94.125,456.65625 94.08782,427.17095 102.71875,360.28125 C 104.88395,343.50095 108.62408,326.36097 112.875,312.625 C 117.12592,298.88903 123.05253,288.10333 124.5625,286.625 C 128.09983,283.16179 131.17852,281.42336 133.1875,280.53125 C 133.63538,280.33236 133.96818,280.20769 134.25,280.09375 z"/><path style="fill:#fff;fill-opacity:1;stroke:#fff;stroke-width:15.4746418;stroke-linecap:butt;stroke-linejoin:round;stroke-miterlimit:4;stroke-dashoffset:0;stroke-opacity:1" id="path3462" d="M 106.46373,433.24868 C 106.46373,446.35545 91.82635,480.99284 78.719573,480.99284 C 65.612797,480.99284 58.975414,446.35545 58.975414,433.24868 C 58.975414,420.1419 69.612797,409.50452 82.719573,409.50452 C 95.82635,409.50452 106.46373,420.1419 106.46373,433.24868 z"/><path id="path3466" d="M 81.949709,438.15162 L 69.214311,492.79019 L 81.949709,438.15162 z" style="fill:none;fill-rule:evenodd;stroke:#fff;stroke-width:10;stroke-linecap:round;stroke-linejoin:round;stroke-miterlimit:4;stroke-dasharray:none;stroke-opacity:1"/><path style="fill:none;fill-rule:evenodd;stroke:#fff;stroke-width:10;stroke-linecap:round;stroke-linejoin:round;stroke-miterlimit:4;stroke-dasharray:none;stroke-opacity:1" id="path3468" d="M 106.41283,437.87281 L 88.618917,496.4658 L 106.41283,437.87281 z"/><path id="path3471" d="M 56.079496,432.50244 L 51.793515,485.72506 L 56.079496,432.50244 z" style="fill:none;fill-rule:evenodd;stroke:#fff;stroke-width:10;stroke-linecap:round;stroke-linejoin:round;stroke-miterlimit:4;stroke-dasharray:none;stroke-opacity:1"/><path id="path3482" d="M 65.682673,436.61091 L 61.396692,489.83353 L 65.682673,436.61091 z" style="fill:none;fill-rule:evenodd;stroke:#fff;stroke-width:10;stroke-linecap:round;stroke-linejoin:round;stroke-miterlimit:4;stroke-dasharray:none;stroke-opacity:1"/><path style="fill:none;fill-rule:evenodd;stroke:#fff;stroke-width:10;stroke-linecap:round;stroke-linejoin:round;stroke-miterlimit:4;stroke-dasharray:none;stroke-opacity:1" id="path3484" d="M 91.949709,440.15162 L 79.214311,494.79019 L 91.949709,440.15162 z"/></svg>