<svg xmlns="http://www.w3.org/2000/svg" xmlns:svg="http://www.w3.org/2000/svg" xmlns:xlink="http://www.w3.org/1999/xlink" id="svg2" width="580" height="580" version="1.0"><metadata id="metadata1976"/><defs id="defs4"><marker id="ArrowStart" markerHeight="3" markerUnits="strokeWidth" markerWidth="4" orient="auto" refX="10" refY="5" viewBox="0 0 10 10"><path id="path2111" d="M 10 0 L 0 5 L 10 10 z"/></marker><marker id="ArrowEnd" markerHeight="3" markerUnits="strokeWidth" markerWidth="4" orient="auto" refX="0" refY="5" viewBox="0 0 10 10"><path id="path2108" d="M 0 0 L 10 5 L 0 10 z"/></marker></defs><g id="g1327"><path style="fill:#111;stroke:#eee;stroke-width:3.40799999" id="path1329" d="M 66.275,1.768 C 24.94,1.768 1.704,23.139 1.704,66.804 L 1.704,516.927 C 1.704,557.771 22.6,579.156 63.896,579.156 L 515.92,579.156 C 557.227,579.156 578.149,558.842 578.149,516.927 L 578.149,66.804 C 578.149,24.203 557.227,1.768 514.628,1.768 C 514.624,1.768 66.133,1.625 66.275,1.768 z"/></g><g id="g2117" transform="matrix(1.1975036,0,0,1.1975036,80.128205,34.575832)" style="fill:#000"><g id="g2119" style="fill:#000"><g id="g2121" style="fill:#000"><path id="path2125" style="fill:#000;stroke:none"/></g><g id="g2127" style="fill:#000"><path id="path2131" style="fill:#000;stroke:none"/></g></g></g><image id="image3356" width="239" height="190" x="-1801.193" y="573.995" xlink:href="pastedpic_10102008_233747.png"/><path style="fill:#fff;fill-opacity:1;fill-rule:evenodd;stroke:none;stroke-width:1px;stroke-linecap:butt;stroke-linejoin:miter;stroke-opacity:1" id="path4356" d="M 170.84645,479.71764 C 134.26479,459.08465 111.96923,410.84242 128.43193,338.74121 C 139.98073,288.16121 173.63315,225.7375 147.84207,173.75941 C 179.12805,195.38395 211.6556,246.80618 244.46049,304.88437 C 246.72251,242.07667 214.13127,200.92511 237.55918,115.09824 C 253.63467,221.27702 318.11863,227.8581 350.85571,324.43808 C 364.7804,279.02904 393.74644,264.08309 379.61117,151.33015 C 521.95367,345.72774 440.82571,414.78419 412.39237,484.31853 L 421.59417,387.70014 C 376.95048,516.74999 341.18167,540.55802 308.87272,569.43472 C 326.92995,508.85654 334.05033,448.27833 297.3705,387.70014 C 288.46535,487.16243 263.33162,466.46438 258.26309,546.43034 C 208.00879,508.50069 197.68748,469.5924 188.67484,406.10364 C 181.83766,413.53277 170.29289,444.58439 170.84645,479.71764 z"/><path style="fill:#fff;fill-opacity:1;fill-rule:evenodd;stroke:none;stroke-width:1px;stroke-linecap:butt;stroke-linejoin:miter;stroke-opacity:1" id="path4358" d="M 274.94127,15.604315 C 237.71543,166.76262 305.68075,165.43455 343.37933,254.27475 C 369.82192,117.28646 290.71622,148.10885 274.94127,15.604315 z"/></svg>