<svg xmlns="http://www.w3.org/2000/svg" xmlns:svg="http://www.w3.org/2000/svg" id="svg2" width="580" height="580" version="1.0"><metadata id="metadata2975"/><g id="g1327"><path style="fill:#111;stroke:#eee;stroke-width:3.40799999" id="path1329" d="M 66.275,1.768 C 24.94,1.768 1.704,23.139 1.704,66.804 L 1.704,516.927 C 1.704,557.771 22.599,579.156 63.896,579.156 L 515.92,579.156 C 557.227,579.156 578.149,558.841 578.149,516.927 L 578.149,66.804 C 578.149,24.203 557.227,1.768 514.628,1.768 C 514.624,1.768 66.133,1.625 66.275,1.768 z"/></g><path style="fill:#fff;fill-opacity:1;fill-rule:evenodd;stroke:#fff;stroke-width:10;stroke-linecap:round;stroke-linejoin:round;stroke-miterlimit:4;stroke-dasharray:none;stroke-opacity:1" id="path3470" d="M 73.931354,159.8883 L 302.43289,419.37306 L 521.25215,293.50359 L 298.56009,35.95529 L 73.931354,159.8883 z"/><path style="fill:#fff;fill-opacity:1;fill-rule:evenodd;stroke:#fff;stroke-width:10;stroke-linecap:round;stroke-linejoin:round;stroke-miterlimit:4;stroke-dasharray:none;stroke-opacity:1" id="path3474" d="M 61.6534,188.60064 L 286.28195,444.21251 L 287.2502,541.03514 L 60.685154,284.9392 L 61.6534,188.60064 z"/><path style="opacity:.75;fill:#fff;fill-opacity:1;fill-rule:evenodd;stroke:#fff;stroke-width:16.47733498;stroke-linecap:round;stroke-linejoin:round;stroke-miterlimit:4;stroke-dasharray:none;stroke-opacity:1" id="path3476" d="M 519.50933,327.13704 L 313.25992,447.99014 L 313.11567,451.17546 L 519.19198,330.40891 L 519.50933,327.13704 z"/><path id="path3505" d="M 519.50933,367.13704 L 313.25992,487.99014 L 313.11567,491.17546 L 519.19198,370.40891 L 519.50933,367.13704 z" style="opacity:.75;fill:#fff;fill-opacity:1;fill-rule:evenodd;stroke:#fff;stroke-width:16.47733498;stroke-linecap:round;stroke-linejoin:round;stroke-miterlimit:4;stroke-dasharray:none;stroke-opacity:1"/><path style="opacity:.75;fill:#fff;fill-opacity:1;fill-rule:evenodd;stroke:#fff;stroke-width:16.47733498;stroke-linecap:round;stroke-linejoin:round;stroke-miterlimit:4;stroke-dasharray:none;stroke-opacity:1" id="path3507" d="M 519.50933,407.13704 L 313.25992,527.99014 L 313.11567,531.17546 L 519.19198,410.40891 L 519.50933,407.13704 z"/></svg>