<svg xmlns="http://www.w3.org/2000/svg" xmlns:svg="http://www.w3.org/2000/svg" id="svg2" width="580" height="580" version="1.0"><metadata id="metadata2975"/><g id="g1327"><path style="fill:#111;stroke:#eee;stroke-width:3.40799999" id="path1329" d="M 66.275,1.768 C 24.94,1.768 1.704,23.139 1.704,66.804 L 1.704,516.927 C 1.704,557.771 22.599,579.156 63.896,579.156 L 515.92,579.156 C 557.227,579.156 578.149,558.841 578.149,516.927 L 578.149,66.804 C 578.149,24.203 557.227,1.768 514.628,1.768 C 514.624,1.768 66.133,1.625 66.275,1.768 z"/></g><path style="font-size:40px;font-style:normal;font-variant:normal;font-weight:400;font-stretch:normal;text-align:start;line-height:125%;writing-mode:lr-tb;text-anchor:start;fill:#fff;fill-opacity:1;stroke:none;stroke-width:1px;stroke-linecap:butt;stroke-linejoin:miter;stroke-opacity:1;font-family:NPSPICT3;-inkscape-font-specification:NPSPICT3" id="flowRoot3192" d="M 131.79596,192.04629 L 228.24657,288.96614 L 131.79596,385.41673 L 131.79596,192.04629 z M 431.85502,173.87381 L 313.05143,292.22239 C 307.14536,298.12834 299.68963,301.08124 290.68421,301.08111 C 281.36551,301.08124 273.59696,297.97192 267.37853,291.75313 L 149.49921,173.87381 L 431.85502,173.87381 z M 450.49674,385.41673 L 354.04613,288.96614 L 450.49674,192.04629 L 450.49674,385.41673 z M 149.02996,403.5892 L 245.9498,307.1386 L 250.14455,311.33334 C 261.33031,322.2066 274.84352,327.64317 290.68421,327.64306 C 306.52444,327.64317 319.88125,322.2066 330.75466,311.33334 L 334.94939,307.1386 L 431.85502,403.5892 L 149.02996,403.5892 z M 105.70326,429.68191 L 477.52793,429.68191 L 477.52793,147.31187 L 105.70326,147.31187 L 105.70326,429.68191 z"/><path style="fill:none;fill-opacity:1;stroke:#fff;stroke-width:25.1376152;stroke-miterlimit:4;stroke-dasharray:none;stroke-dashoffset:0;stroke-opacity:1" id="path2207" d="M 505.71429,305.71429 A 288.57144,288.57144 0 1 1 -71.428589,305.71429 A 288.57144,288.57144 0 1 1 505.71429,305.71429 z" transform="matrix(0.9469422,0,0,0.9469422,85.693279,2.9720757)"/><path id="path3267" d="M 505.71429,305.71429 A 288.57144,288.57144 0 1 1 -71.428589,305.71429 A 288.57144,288.57144 0 1 1 505.71429,305.71429 z" transform="matrix(0.9469422,0,0,0.9469422,85.693279,2.9720757)" style="fill:#fff;fill-opacity:1;stroke:#fff;stroke-width:25.137615199999999;stroke-miterlimit:4;stroke-dasharray:none;stroke-dashoffset:0;stroke-opacity:1;opacity:.1"/></svg>