<svg xmlns="http://www.w3.org/2000/svg" xmlns:svg="http://www.w3.org/2000/svg" id="svg2" width="580" height="580" version="1.0"><metadata id="metadata2975"/><defs id="defs4"><symbol id="symbol-university" viewBox="244.5 110 489 219.9"><path id="path4460" d="M79,43l57,119c0,0,21-96,104-96s124,106,124,106l43-133l82-17L0,17L79,43z"/><path id="path4462" fill="none" stroke="#000" stroke-width="20" d="M94,176l-21,39"/><path id="path4464" d="M300,19c0,10.5-22.6,19-50.5,19S199,29.5,199,19s22.6-19,50.5-19S300,8.5,300,19z"/><path id="path4466" stroke="#000" stroke-width="20" d="M112,216l-16-38L64,88c0,0-9-8-4-35s16-24,16-24" ill="none"/></symbol></defs><g id="g1327"><path style="fill:#111;stroke:#eee;stroke-width:3.40799999" id="path1329" d="M 66.275,1.768 C 24.94,1.768 1.704,23.139 1.704,66.804 L 1.704,516.927 C 1.704,557.771 22.599,579.156 63.896,579.156 L 515.92,579.156 C 557.227,579.156 578.149,558.841 578.149,516.927 L 578.149,66.804 C 578.149,24.203 557.227,1.768 514.628,1.768 C 514.624,1.768 66.133,1.625 66.275,1.768 z"/></g><path style="font-size:12px;opacity:.2;fill:#fff;fill-opacity:1;fill-rule:evenodd;stroke:#fff;stroke-width:1.24141979;stroke-opacity:1" id="path645" d="M 286.94406,44.001595 L 34.884618,235.90902 L 85.296174,235.90902 L 85.296174,543.77001 L 236.53218,543.77001 L 340.81297,543.77001 L 488.59196,543.77001 L 488.59196,235.90902 L 539.00386,235.90902 L 286.94406,44.001595 L 286.94406,44.001595 L 286.94406,44.001595 z"/><path id="path3198" d="M 286.94406,34.001595 L 34.884618,225.90902 L 85.296174,225.90902 L 85.296174,543.77001 L 236.53218,543.77001 L 340.81297,543.77001 L 488.59196,543.77001 L 488.59196,225.90902 L 539.00386,225.90902 L 286.94406,34.001595 L 286.94406,34.001595 L 286.94406,34.001595 z" style="font-size:12px;opacity:1;fill:none;fill-opacity:1;fill-rule:evenodd;stroke:#fff;stroke-width:20;stroke-linejoin:round;stroke-miterlimit:4;stroke-dasharray:none;stroke-opacity:1"/><g id="g8776" transform="matrix(0.87658488,0,0,0.87658488,99.682021,266.47073)"><path id="flowRoot3192" d="m 117.84375,42.625 c -10.57662,3.9e-4 -19.790529,3.83221 -27.625,11.46875 -7.83376,7.63729 -11.749626,16.915957 -11.75,27.875 3.7e-4,10.97169 3.916241,20.3009 11.75,27.9375 7.83447,7.63723 17.04838,11.43781 27.625,11.4375 0.38998,1e-5 0.77047,-0.0216 1.15625,-0.0312 0.39015,0.01 0.79305,0.0313 1.1875,0.0312 10.57662,3.1e-4 19.75928,-3.80027 27.59375,-11.4375 7.83376,-7.6366 11.74963,-16.96581 11.75,-27.9375 -3.6e-4,-10.959043 -3.91624,-20.23771 -11.75,-27.875 -7.83447,-7.63654 -17.01713,-11.46836 -27.59375,-11.46875 -0.39434,1.4e-5 -0.79747,0.02135 -1.1875,0.03125 -0.38566,-0.0097 -0.76638,-0.03124 -1.15625,-0.03125 z M 87.875,130.15625 c -11.35344,2.9e-4 -17.609638,5.8771 -18.78125,17.625 l 0,138.03125 0,2.96875 L 119,287.3125 l 49.9375,1.46875 0,-2.96875 0,-138.03125 c -1.1716,-11.7479 -7.42781,-17.62471 -18.78125,-17.625 l -62.28125,0 z" style="font-size:40px;font-style:normal;font-variant:normal;font-weight:400;font-stretch:normal;text-align:start;line-height:125%;writing-mode:lr-tb;text-anchor:start;fill:#fff;fill-opacity:1;stroke:none;font-family:NPSPICT3;-inkscape-font-specification:NPSPICT3"/><path style="fill:#fff;fill-rule:evenodd;stroke:#fff;stroke-width:67.0968399;stroke-linecap:round;stroke-linejoin:miter;stroke-miterlimit:4;stroke-opacity:1;stroke-dasharray:none" id="path3239" d="m 79.060779,243.05446 -0.7002,-78.24513"/><path id="path8774" d="m 155.06078,243.05446 -0.7002,-78.24513" style="fill:#fff;fill-rule:evenodd;stroke:#fff;stroke-width:67.0968399;stroke-linecap:round;stroke-linejoin:miter;stroke-miterlimit:4;stroke-opacity:1;stroke-dasharray:none"/></g><g id="g8789" transform="matrix(0.87658488,0,0,0.87658488,266.23315,266.47073)"><path style="font-size:40px;font-style:normal;font-variant:normal;font-weight:400;font-stretch:normal;text-align:start;line-height:125%;writing-mode:lr-tb;text-anchor:start;fill:#fff;fill-opacity:1;stroke:none;font-family:NPSPICT3;-inkscape-font-specification:NPSPICT3" id="path8791" d="m 117.84375,42.625 c -10.57662,3.9e-4 -19.790529,3.83221 -27.625,11.46875 -7.83376,7.63729 -11.749626,16.915957 -11.75,27.875 3.7e-4,10.97169 3.916241,20.3009 11.75,27.9375 7.83447,7.63723 17.04838,11.43781 27.625,11.4375 0.38998,1e-5 0.77047,-0.0216 1.15625,-0.0312 0.39015,0.01 0.79305,0.0313 1.1875,0.0312 10.57662,3.1e-4 19.75928,-3.80027 27.59375,-11.4375 7.83376,-7.6366 11.74963,-16.96581 11.75,-27.9375 -3.6e-4,-10.959043 -3.91624,-20.23771 -11.75,-27.875 -7.83447,-7.63654 -17.01713,-11.46836 -27.59375,-11.46875 -0.39434,1.4e-5 -0.79747,0.02135 -1.1875,0.03125 -0.38566,-0.0097 -0.76638,-0.03124 -1.15625,-0.03125 z M 87.875,130.15625 c -11.35344,2.9e-4 -17.609638,5.8771 -18.78125,17.625 l 0,138.03125 0,2.96875 L 119,287.3125 l 49.9375,1.46875 0,-2.96875 0,-138.03125 c -1.1716,-11.7479 -7.42781,-17.62471 -18.78125,-17.625 l -62.28125,0 z"/><path id="path8793" d="m 79.060779,243.05446 -0.7002,-78.24513" style="fill:#fff;fill-rule:evenodd;stroke:#fff;stroke-width:67.0968399;stroke-linecap:round;stroke-linejoin:miter;stroke-miterlimit:4;stroke-opacity:1;stroke-dasharray:none"/><path style="fill:#fff;fill-rule:evenodd;stroke:#fff;stroke-width:67.0968399;stroke-linecap:round;stroke-linejoin:miter;stroke-miterlimit:4;stroke-opacity:1;stroke-dasharray:none" id="path8795" d="m 155.06078,243.05446 -0.7002,-78.24513"/></g><g id="g7680" transform="translate(20,0)"><g id="g7614" transform="matrix(0.48931467,0,0,0.48931467,107.15615,142.64262)"><path style="font-size:40px;font-style:normal;font-variant:normal;font-weight:400;font-stretch:normal;text-align:start;line-height:125%;writing-mode:lr-tb;text-anchor:start;fill:#fff;fill-opacity:1;stroke:none;font-family:NPSPICT3;-inkscape-font-specification:NPSPICT3" id="path7616" d="m 117.84375,42.625 c -10.57662,3.9e-4 -19.790529,3.83221 -27.625,11.46875 -7.83376,7.63729 -11.749626,16.915957 -11.75,27.875 3.7e-4,10.97169 3.916241,20.3009 11.75,27.9375 7.83447,7.63723 17.04838,11.43781 27.625,11.4375 0.38998,1e-5 0.77047,-0.0216 1.15625,-0.0312 0.39015,0.01 0.79305,0.0313 1.1875,0.0312 10.57662,3.1e-4 19.75928,-3.80027 27.59375,-11.4375 7.83376,-7.6366 11.74963,-16.96581 11.75,-27.9375 -3.6e-4,-10.959043 -3.91624,-20.23771 -11.75,-27.875 -7.83447,-7.63654 -17.01713,-11.46836 -27.59375,-11.46875 -0.39434,1.4e-5 -0.79747,0.02135 -1.1875,0.03125 -0.38566,-0.0097 -0.76638,-0.03124 -1.15625,-0.03125 z M 87.875,130.15625 c -11.35344,2.9e-4 -17.609638,5.8771 -18.78125,17.625 l 0,138.03125 0,2.96875 L 119,287.3125 l 49.9375,1.46875 0,-2.96875 0,-138.03125 c -1.1716,-11.7479 -7.42781,-17.62471 -18.78125,-17.625 l -62.28125,0 z"/><path id="path7618" d="m 79.060779,243.05446 -0.7002,-78.24513" style="fill:#fff;fill-rule:evenodd;stroke:#fff;stroke-width:67.0968399;stroke-linecap:round;stroke-linejoin:miter;stroke-miterlimit:4;stroke-opacity:1;stroke-dasharray:none"/><path style="fill:#fff;fill-rule:evenodd;stroke:#fff;stroke-width:67.0968399;stroke-linecap:round;stroke-linejoin:miter;stroke-miterlimit:4;stroke-opacity:1;stroke-dasharray:none" id="path7620" d="m 155.06078,243.05446 -0.7002,-78.24513"/></g><g id="g7622" transform="matrix(0.48931467,0,0,0.48931467,207.15615,142.64262)"><path id="path7624" d="m 117.84375,42.625 c -10.57662,3.9e-4 -19.790529,3.83221 -27.625,11.46875 -7.83376,7.63729 -11.749626,16.915957 -11.75,27.875 3.7e-4,10.97169 3.916241,20.3009 11.75,27.9375 7.83447,7.63723 17.04838,11.43781 27.625,11.4375 0.38998,1e-5 0.77047,-0.0216 1.15625,-0.0312 0.39015,0.01 0.79305,0.0313 1.1875,0.0312 10.57662,3.1e-4 19.75928,-3.80027 27.59375,-11.4375 7.83376,-7.6366 11.74963,-16.96581 11.75,-27.9375 -3.6e-4,-10.959043 -3.91624,-20.23771 -11.75,-27.875 -7.83447,-7.63654 -17.01713,-11.46836 -27.59375,-11.46875 -0.39434,1.4e-5 -0.79747,0.02135 -1.1875,0.03125 -0.38566,-0.0097 -0.76638,-0.03124 -1.15625,-0.03125 z M 87.875,130.15625 c -11.35344,2.9e-4 -17.609638,5.8771 -18.78125,17.625 l 0,138.03125 0,2.96875 L 119,287.3125 l 49.9375,1.46875 0,-2.96875 0,-138.03125 c -1.1716,-11.7479 -7.42781,-17.62471 -18.78125,-17.625 l -62.28125,0 z" style="font-size:40px;font-style:normal;font-variant:normal;font-weight:400;font-stretch:normal;text-align:start;line-height:125%;writing-mode:lr-tb;text-anchor:start;fill:#fff;fill-opacity:1;stroke:none;font-family:NPSPICT3;-inkscape-font-specification:NPSPICT3"/><path style="fill:#fff;fill-rule:evenodd;stroke:#fff;stroke-width:67.0968399;stroke-linecap:round;stroke-linejoin:miter;stroke-miterlimit:4;stroke-opacity:1;stroke-dasharray:none" id="path7626" d="m 79.060779,243.05446 -0.7002,-78.24513"/><path id="path7628" d="m 155.06078,243.05446 -0.7002,-78.24513" style="fill:#fff;fill-rule:evenodd;stroke:#fff;stroke-width:67.0968399;stroke-linecap:round;stroke-linejoin:miter;stroke-miterlimit:4;stroke-opacity:1;stroke-dasharray:none"/></g><g id="g7630" transform="matrix(0.48931467,0,0,0.48931467,307.15615,142.64262)"><path style="font-size:40px;font-style:normal;font-variant:normal;font-weight:400;font-stretch:normal;text-align:start;line-height:125%;writing-mode:lr-tb;text-anchor:start;fill:#fff;fill-opacity:1;stroke:none;font-family:NPSPICT3;-inkscape-font-specification:NPSPICT3" id="path7632" d="m 117.84375,42.625 c -10.57662,3.9e-4 -19.790529,3.83221 -27.625,11.46875 -7.83376,7.63729 -11.749626,16.915957 -11.75,27.875 3.7e-4,10.97169 3.916241,20.3009 11.75,27.9375 7.83447,7.63723 17.04838,11.43781 27.625,11.4375 0.38998,1e-5 0.77047,-0.0216 1.15625,-0.0312 0.39015,0.01 0.79305,0.0313 1.1875,0.0312 10.57662,3.1e-4 19.75928,-3.80027 27.59375,-11.4375 7.83376,-7.6366 11.74963,-16.96581 11.75,-27.9375 -3.6e-4,-10.959043 -3.91624,-20.23771 -11.75,-27.875 -7.83447,-7.63654 -17.01713,-11.46836 -27.59375,-11.46875 -0.39434,1.4e-5 -0.79747,0.02135 -1.1875,0.03125 -0.38566,-0.0097 -0.76638,-0.03124 -1.15625,-0.03125 z M 87.875,130.15625 c -11.35344,2.9e-4 -17.609638,5.8771 -18.78125,17.625 l 0,138.03125 0,2.96875 L 119,287.3125 l 49.9375,1.46875 0,-2.96875 0,-138.03125 c -1.1716,-11.7479 -7.42781,-17.62471 -18.78125,-17.625 l -62.28125,0 z"/><path id="path7634" d="m 79.060779,243.05446 -0.7002,-78.24513" style="fill:#fff;fill-rule:evenodd;stroke:#fff;stroke-width:67.0968399;stroke-linecap:round;stroke-linejoin:miter;stroke-miterlimit:4;stroke-opacity:1;stroke-dasharray:none"/><path style="fill:#fff;fill-rule:evenodd;stroke:#fff;stroke-width:67.0968399;stroke-linecap:round;stroke-linejoin:miter;stroke-miterlimit:4;stroke-opacity:1;stroke-dasharray:none" id="path7636" d="m 155.06078,243.05446 -0.7002,-78.24513"/></g></g></svg>