<svg xmlns="http://www.w3.org/2000/svg" xmlns:svg="http://www.w3.org/2000/svg" id="svg2" width="580" height="580" version="1.0"><metadata id="metadata1976"/><g id="g1327"><path style="fill:#111;stroke:#eee;stroke-width:3.40799999" id="path1329" d="M 66.275,1.768 C 24.94,1.768 1.704,23.139 1.704,66.804 L 1.704,516.927 C 1.704,557.771 22.6,579.156 63.896,579.156 L 515.92,579.156 C 557.227,579.156 578.149,558.842 578.149,516.927 L 578.149,66.804 C 578.149,24.203 557.227,1.768 514.628,1.768 C 514.624,1.768 66.133,1.625 66.275,1.768 z"/></g><path id="path117" d="M 293.41477,110.48793 C 319.40337,110.48793 340.49222,132.51195 340.49222,159.65122 C 340.49222,186.79048 319.40173,208.8145 293.41477,208.8145 C 267.42781,208.8145 246.33563,186.79048 246.33563,159.65122 C 246.33563,132.51195 267.42613,110.48793 293.41477,110.48793" clip-rule="evenodd" style="fill:#fff;fill-opacity:1;fill-rule:evenodd"/><path style="fill:none;fill-rule:evenodd;stroke:#fff;stroke-width:45.08664703;stroke-linecap:round;stroke-linejoin:miter;stroke-miterlimit:4;stroke-dasharray:none;stroke-opacity:1" id="path4758" d="M 222.50836,105.59421 L 368.48164,105.59421"/><path style="fill:none;fill-rule:evenodd;stroke:#fff;stroke-width:35.82465744;stroke-linecap:round;stroke-linejoin:miter;stroke-miterlimit:4;stroke-dasharray:none;stroke-opacity:1" id="path5269" d="M 143.14404,440.28564 L 263.09481,187.45446"/><path style="fill:none;fill-rule:evenodd;stroke:#fff;stroke-width:35.82465744;stroke-linecap:round;stroke-linejoin:miter;stroke-miterlimit:4;stroke-dasharray:none;stroke-opacity:1" id="path5271" d="M 442.99353,434.28901 L 323.04276,181.45783"/><path style="fill:none;fill-rule:evenodd;stroke:#fff;stroke-width:35.9272995;stroke-linecap:round;stroke-linejoin:miter;stroke-miterlimit:4;stroke-dasharray:none;stroke-opacity:1" id="path5273" d="M 292.60524,513.80679 L 293.5323,201.19958"/></svg>